<?xml version="1.0" encoding="us-ascii" standalone="no"?><svg xmlns="http://www.w3.org/2000/svg" xmlns:xlink="http://www.w3.org/1999/xlink" contentStyleType="text/css" height="982px" preserveAspectRatio="none" style="width:399px;height:982px;background:#FFFFFF;" version="1.1" viewBox="0 0 399 982" width="399px" zoomAndPan="magnify"><defs/><g><text fill="#000000" font-family="sans-serif" font-size="14" font-weight="bold" lengthAdjust="spacing" textLength="371" x="10" y="24.9659">System Communication - Components and Interfaces</text><!--entity Browser--><g id="elem_Browser"><rect fill="#D5E8D4" height="49.0679" rx="2.5" ry="2.5" style="stroke:#181818;stroke-width:0.5;" width="95" x="155.5" y="47.0679"/><rect fill="#D5E8D4" height="10" style="stroke:#181818;stroke-width:0.5;" width="15" x="230.5" y="52.0679"/><rect fill="#D5E8D4" height="2" style="stroke:#181818;stroke-width:0.5;" width="4" x="228.5" y="54.0679"/><rect fill="#D5E8D4" height="2" style="stroke:#181818;stroke-width:0.5;" width="4" x="228.5" y="58.0679"/><text fill="#000000" font-family="sans-serif" font-size="14" lengthAdjust="spacing" textLength="55" x="170.5" y="82.0339">Browser</text></g><!--entity SS--><g id="elem_SS"><rect fill="#FFE4E1" height="68.1358" rx="2.5" ry="2.5" style="stroke:#181818;stroke-width:0.5;" width="143" x="131.5" y="318.0679"/><rect fill="#FFE4E1" height="10" style="stroke:#181818;stroke-width:0.5;" width="15" x="254.5" y="323.0679"/><rect fill="#FFE4E1" height="2" style="stroke:#181818;stroke-width:0.5;" width="4" x="252.5" y="325.0679"/><rect fill="#FFE4E1" height="2" style="stroke:#181818;stroke-width:0.5;" width="4" x="252.5" y="329.0679"/><text fill="#000000" font-family="sans-serif" font-size="14" font-style="italic" lengthAdjust="spacing" textLength="103" x="146.5" y="353.0339">&#171;SvelteKit (CSR)&#187;</text><text fill="#000000" font-family="sans-serif" font-size="14" lengthAdjust="spacing" textLength="40" x="178" y="372.1018">Svelte</text></g><!--entity SS_INT--><g id="elem_SS_INT"><ellipse cx="203" cy="207.0679" fill="#FFE4E1" rx="8" ry="8" style="stroke:#181818;stroke-width:0.5;"/><text fill="#000000" font-family="sans-serif" font-size="14" lengthAdjust="spacing" textLength="122" x="142" y="239.0339">Frontend Platform</text><text fill="#000000" font-family="sans-serif" font-size="14" lengthAdjust="spacing" textLength="153" x="126.5" y="258.1018">(HTML, CSS, JavaScript)</text></g><!--entity CNT--><g id="elem_CNT"><rect fill="#E1D5E7" height="68.1358" rx="2.5" ry="2.5" style="stroke:#181818;stroke-width:0.5;" width="169" x="118.5" y="608.0679"/><rect fill="#E1D5E7" height="10" style="stroke:#181818;stroke-width:0.5;" width="15" x="267.5" y="613.0679"/><rect fill="#E1D5E7" height="2" style="stroke:#181818;stroke-width:0.5;" width="4" x="265.5" y="615.0679"/><rect fill="#E1D5E7" height="2" style="stroke:#181818;stroke-width:0.5;" width="4" x="265.5" y="619.0679"/><text fill="#000000" font-family="sans-serif" font-size="14" font-style="italic" lengthAdjust="spacing" textLength="129" x="133.5" y="643.0339">&#171;Cloudflare Worker&#187;</text><text fill="#000000" font-family="sans-serif" font-size="14" lengthAdjust="spacing" textLength="84" x="156" y="662.1018">Contacts API</text></g><!--entity CNT_DB--><g id="elem_CNT_DB"><path d="M152.5,908.0679 C152.5,898.0679 203,898.0679 203,898.0679 C203,898.0679 253.5,898.0679 253.5,908.0679 L253.5,955.2038 C253.5,965.2038 203,965.2038 203,965.2038 C203,965.2038 152.5,965.2038 152.5,955.2038 L152.5,908.0679 " fill="#E1D5E7" style="stroke:#181818;stroke-width:0.5;"/><path d="M152.5,908.0679 C152.5,918.0679 203,918.0679 203,918.0679 C203,918.0679 253.5,918.0679 253.5,908.0679 " fill="none" style="stroke:#181818;stroke-width:0.5;"/><text fill="#000000" font-family="sans-serif" font-size="14" font-style="italic" lengthAdjust="spacing" textLength="32" x="187" y="937.0339">&#171;Git&#187;</text><text fill="#000000" font-family="sans-serif" font-size="14" lengthAdjust="spacing" textLength="81" x="162.5" y="956.1018">Contacts DB</text></g><!--entity CNT_INT--><g id="elem_CNT_INT"><ellipse cx="203" cy="497.0679" fill="#E1D5E7" rx="8" ry="8" style="stroke:#181818;stroke-width:0.5;"/><text fill="#000000" font-family="sans-serif" font-size="14" lengthAdjust="spacing" textLength="92" x="157" y="529.0339">Contacts Lists</text><text fill="#000000" font-family="sans-serif" font-size="14" lengthAdjust="spacing" textLength="42" x="182" y="548.1018">(JSON)</text></g><!--entity CNT_DB_INT--><g id="elem_CNT_DB_INT"><ellipse cx="203" cy="787.0679" fill="#E1D5E7" rx="8" ry="8" style="stroke:#181818;stroke-width:0.5;"/><text fill="#000000" font-family="sans-serif" font-size="14" lengthAdjust="spacing" textLength="93" x="156.5" y="819.0339">Contacts Data</text><text fill="#000000" font-family="sans-serif" font-size="14" lengthAdjust="spacing" textLength="42" x="182" y="838.1018">(JSON)</text></g><!--link SS_INT to SS--><g id="link_SS_INT_SS"><path d="M203,216.1679 C203,235.3679 203,284.5479 203,317.9079 " fill="none" id="SS_INT-SS" style="stroke:#181818;stroke-width:1.0;"/></g><!--link CNT_INT to CNT--><g id="link_CNT_INT_CNT"><path d="M203,506.1679 C203,525.3679 203,574.5479 203,607.9079 " fill="none" id="CNT_INT-CNT" style="stroke:#181818;stroke-width:1.0;"/></g><!--link CNT_DB_INT to CNT_DB--><g id="link_CNT_DB_INT_CNT_DB"><path d="M203,796.1379 C203,815.3279 203,864.5779 203,897.8379 " fill="none" id="CNT_DB_INT-CNT_DB" style="stroke:#181818;stroke-width:1.0;"/></g><!--link Browser to SS_INT--><g id="link_Browser_SS_INT"><path d="M203,96.1279 C203,126.5179 203,167.8379 203,187.7879 " fill="none" id="Browser-to-SS_INT" style="stroke:#181818;stroke-width:1.0;"/><path d="M211.4572,194.7097 A9,9 0 0 0 194.5428 194.7097" fill="none" style="stroke:#181818;stroke-width:1.5;"/></g><!--link SS to CNT_INT--><g id="link_SS_CNT_INT"><path d="M203,386.2379 C203,419.5679 203,458.6779 203,477.9179 " fill="none" id="SS-to-CNT_INT" style="stroke:#181818;stroke-width:1.0;"/><path d="M211.4572,484.8397 A9,9 0 0 0 194.5428 484.8397" fill="none" style="stroke:#181818;stroke-width:1.5;"/></g><!--link CNT to CNT_DB_INT--><g id="link_CNT_CNT_DB_INT"><path d="M203,676.2379 C203,709.5679 203,748.6779 203,767.9179 " fill="none" id="CNT-to-CNT_DB_INT" style="stroke:#181818;stroke-width:1.0;"/><path d="M211.4572,774.8397 A9,9 0 0 0 194.5428 774.8397" fill="none" style="stroke:#181818;stroke-width:1.5;"/></g><!--SRC=[TL9DJzj04BtFhvWwXoGIFY21saE4H6n20ocDkf6u8A757gUhsBlMxZejGlptZXtRSOFmRUTzp9iPU-Lpma2yEay5HgOeAgqIwPNH6DRlqcZItg7KAIwr9vl9X5m0u7PAbzBA0jy0-KifarNkD_JNN-TggmkMOKAr1Du1lZ2kDE5ARN_xMqkaSPHUqhVqudzeNTcI4utedD6l9vZIEnmj5ZSND-S0us6yXgRgs019LyQvDNySsK7J8Hg8FUMU0fGEXS3PxF2-LnudaVWrlRewjWNLpOx1mXf-y3xMkVIPiSMJddpV_5YTOIJ46Tx9lHI9LQMVjjRFouVDm6eO8M8hcV00r-jbmuwOEfj5kQdIB9UMyD7O7Ta-IxCUIAMNBzBHm22UT_hdUCuMjygVY0OZzAgLSjvn_Zlnys7Q6nppVgwCES87OJp_eEKx7VyRD5b6Lkaj06yyhCgmNGz0FNXJQ0D0EqbVEtYV-2L6kwee3uSVZ_kBXzXT2VfIEEcRCRE_OeYFz8A2x5wnOvEBcLsAcZh4cHwtotU7p2svYmV_0000]--></g></svg>