<?xml version="1.0" encoding="UTF-8" standalone="no"?><svg xmlns="http://www.w3.org/2000/svg" xmlns:xlink="http://www.w3.org/1999/xlink" contentStyleType="text/css" height="648px" preserveAspectRatio="none" style="width:673px;height:648px;background:#FFFFFF;" version="1.1" viewBox="0 0 673 648" width="673px" zoomAndPan="magnify"><defs/><g><rect fill="none" height="29.0679" id="_title" style="stroke:none;stroke-width:1.0;" width="303" x="178" y="5"/><text fill="#000000" font-family="sans-serif" font-size="14" font-weight="bold" lengthAdjust="spacing" textLength="293" x="183" y="24.9659">Domain Model - Entities and Relationships</text><!--MD5=[cd682dce6bb52901b197b3ba7c050d9f]
class USR--><g id="elem_USR"><rect codeLine="20" fill="#FFFFFF" height="37.0679" id="USR" rx="2.5" ry="2.5" style="stroke:#181818;stroke-width:0.5;" width="37" x="467.5" y="163.0679"/><rect fill="#F8CECC" height="29.0679" rx="2.5" ry="2.5" style="stroke:#F8CECC;stroke-width:0.5;" width="37" x="467.5" y="163.0679"/><rect fill="#F8CECC" height="2.5" style="stroke:#F8CECC;stroke-width:0.5;" width="37" x="467.5" y="189.6358"/><rect codeLine="20" fill="none" height="37.0679" id="USR" rx="2.5" ry="2.5" style="stroke:#181818;stroke-width:0.5;" width="37" x="467.5" y="163.0679"/><text fill="#000000" font-family="sans-serif" font-size="14" lengthAdjust="spacing" textLength="31" x="470.5" y="183.0339">User</text><line style="stroke:#181818;stroke-width:0.5;" x1="468.5" x2="503.5" y1="192.1358" y2="192.1358"/></g><!--MD5=[df3a98471d26415a9061f1eed4be57ef]
class VWR--><g id="elem_VWR"><rect codeLine="21" fill="#FFFFFF" height="37.0679" id="VWR" rx="2.5" ry="2.5" style="stroke:#181818;stroke-width:0.5;" width="51" x="139.5" y="163.0679"/><rect fill="#D5E8D4" height="29.0679" rx="2.5" ry="2.5" style="stroke:#D5E8D4;stroke-width:0.5;" width="51" x="139.5" y="163.0679"/><rect fill="#D5E8D4" height="2.5" style="stroke:#D5E8D4;stroke-width:0.5;" width="51" x="139.5" y="189.6358"/><rect codeLine="21" fill="none" height="37.0679" id="VWR" rx="2.5" ry="2.5" style="stroke:#181818;stroke-width:0.5;" width="51" x="139.5" y="163.0679"/><text fill="#000000" font-family="sans-serif" font-size="14" lengthAdjust="spacing" textLength="45" x="142.5" y="183.0339">Viewer</text><line style="stroke:#181818;stroke-width:0.5;" x1="140.5" x2="189.5" y1="192.1358" y2="192.1358"/></g><!--MD5=[3948de7321e8f5268222a1adac03d41c]
class CL--><g id="elem_CL"><rect codeLine="22" fill="#FFFFFF" height="37.0679" id="CL" rx="2.5" ry="2.5" style="stroke:#181818;stroke-width:0.5;" width="84" x="304" y="163.0679"/><rect fill="#DAE8FC" height="29.0679" rx="2.5" ry="2.5" style="stroke:#DAE8FC;stroke-width:0.5;" width="84" x="304" y="163.0679"/><rect fill="#DAE8FC" height="2.5" style="stroke:#DAE8FC;stroke-width:0.5;" width="84" x="304" y="189.6358"/><rect codeLine="22" fill="none" height="37.0679" id="CL" rx="2.5" ry="2.5" style="stroke:#181818;stroke-width:0.5;" width="84" x="304" y="163.0679"/><text fill="#000000" font-family="sans-serif" font-size="14" lengthAdjust="spacing" textLength="78" x="307" y="183.0339">Contact List</text><line style="stroke:#181818;stroke-width:0.5;" x1="305" x2="387" y1="192.1358" y2="192.1358"/></g><!--MD5=[4cbe87623530d90844ebc604c35014ce]
class SE--><g id="elem_SE"><rect codeLine="23" fill="#FFFFFF" height="37.0679" id="SE" rx="2.5" ry="2.5" style="stroke:#181818;stroke-width:0.5;" width="153" x="363.5" y="47.0679"/><rect fill="#A020F0" fill-opacity="0.31373" height="29.0679" rx="2.5" ry="2.5" style="stroke:#A020F050;stroke-width:0.5;" width="153" x="363.5" y="47.0679"/><rect fill="#A020F0" fill-opacity="0.31373" height="2.5" style="stroke:#A020F050;stroke-width:0.5;" width="153" x="363.5" y="73.6358"/><rect codeLine="23" fill="none" height="37.0679" id="SE" rx="2.5" ry="2.5" style="stroke:#181818;stroke-width:0.5;" width="153" x="363.5" y="47.0679"/><text fill="#000000" font-family="sans-serif" font-size="14" lengthAdjust="spacing" textLength="147" x="366.5" y="67.0339">Symmetric Encryption</text><line style="stroke:#181818;stroke-width:0.5;" x1="364.5" x2="515.5" y1="76.1358" y2="76.1358"/></g><!--MD5=[f4ab536ae70ac6fc333067e4edc1eecb]
class AE--><g id="elem_AE"><rect codeLine="24" fill="#FFFFFF" height="37.0679" id="AE" rx="2.5" ry="2.5" style="stroke:#181818;stroke-width:0.5;" width="161" x="167.5" y="47.0679"/><rect fill="#E1D5E7" height="29.0679" rx="2.5" ry="2.5" style="stroke:#E1D5E7;stroke-width:0.5;" width="161" x="167.5" y="47.0679"/><rect fill="#E1D5E7" height="2.5" style="stroke:#E1D5E7;stroke-width:0.5;" width="161" x="167.5" y="73.6358"/><rect codeLine="24" fill="none" height="37.0679" id="AE" rx="2.5" ry="2.5" style="stroke:#181818;stroke-width:0.5;" width="161" x="167.5" y="47.0679"/><text fill="#000000" font-family="sans-serif" font-size="14" lengthAdjust="spacing" textLength="155" x="170.5" y="67.0339">Asymmetric Encryption</text><line style="stroke:#181818;stroke-width:0.5;" x1="168.5" x2="327.5" y1="76.1358" y2="76.1358"/></g><!--MD5=[d2c19bb76ad14d2a3c5e6730c3a34a64]
class CNT--><g id="elem_CNT"><rect codeLine="28" fill="#FFFFFF" height="94.2717" id="CNT" rx="2.5" ry="2.5" style="stroke:#181818;stroke-width:0.5;" width="107" x="292.5" y="307.5679"/><rect fill="#DAE8FC" height="29.0679" rx="2.5" ry="2.5" style="stroke:#DAE8FC;stroke-width:0.5;" width="107" x="292.5" y="307.5679"/><rect fill="#DAE8FC" height="2.5" style="stroke:#DAE8FC;stroke-width:0.5;" width="107" x="292.5" y="334.1358"/><rect codeLine="28" fill="none" height="94.2717" id="CNT" rx="2.5" ry="2.5" style="stroke:#181818;stroke-width:0.5;" width="107" x="292.5" y="307.5679"/><text fill="#000000" font-family="sans-serif" font-size="14" lengthAdjust="spacing" textLength="51" x="320.5" y="327.5339">Contact</text><line style="stroke:#181818;stroke-width:0.5;" x1="293.5" x2="398.5" y1="336.6358" y2="336.6358"/><text fill="#000000" font-family="sans-serif" font-size="14" lengthAdjust="spacing" textLength="38" x="298.5" y="355.6018">name</text><text fill="#000000" font-family="sans-serif" font-size="14" lengthAdjust="spacing" textLength="84" x="298.5" y="374.6697">date of birth</text><text fill="#000000" font-family="sans-serif" font-size="14" lengthAdjust="spacing" textLength="95" x="298.5" y="393.7376">email address</text></g><!--MD5=[675e75ab443201a80ff26c74c58ee402]
class ADR--><g id="elem_ADR"><rect codeLine="34" fill="#FFFFFF" height="151.4754" id="ADR" rx="2.5" ry="2.5" style="stroke:#181818;stroke-width:0.5;" width="105" x="515.5" y="279.0679"/><rect fill="#FFF2CC" height="29.0679" rx="2.5" ry="2.5" style="stroke:#FFF2CC;stroke-width:0.5;" width="105" x="515.5" y="279.0679"/><rect fill="#FFF2CC" height="2.5" style="stroke:#FFF2CC;stroke-width:0.5;" width="105" x="515.5" y="305.6358"/><rect codeLine="34" fill="none" height="151.4754" id="ADR" rx="2.5" ry="2.5" style="stroke:#181818;stroke-width:0.5;" width="105" x="515.5" y="279.0679"/><text fill="#000000" font-family="sans-serif" font-size="14" lengthAdjust="spacing" textLength="55" x="540.5" y="299.0339">Address</text><line style="stroke:#181818;stroke-width:0.5;" x1="516.5" x2="619.5" y1="308.1358" y2="308.1358"/><text fill="#000000" font-family="sans-serif" font-size="14" lengthAdjust="spacing" textLength="29" x="521.5" y="327.1018">type</text><text fill="#000000" font-family="sans-serif" font-size="14" lengthAdjust="spacing" textLength="39" x="521.5" y="346.1697">street</text><text fill="#000000" font-family="sans-serif" font-size="14" lengthAdjust="spacing" textLength="53" x="521.5" y="365.2376">location</text><text fill="#000000" font-family="sans-serif" font-size="14" lengthAdjust="spacing" textLength="44" x="521.5" y="384.3055">region</text><text fill="#000000" font-family="sans-serif" font-size="14" lengthAdjust="spacing" textLength="93" x="521.5" y="403.3734">country name</text><text fill="#000000" font-family="sans-serif" font-size="14" lengthAdjust="spacing" textLength="77" x="521.5" y="422.4414">postal code</text></g><!--MD5=[eeba7c2e1e5dc9ca4c8801fde2e664f9]
class ADRT--><g id="elem_ADRT"><rect codeLine="43" fill="#FFFFFF" height="75.2038" id="ADRT" rx="2.5" ry="2.5" style="stroke:#181818;stroke-width:0.5;" width="97" x="519.5" y="537.5679"/><rect fill="#FFF2CC" height="29.0679" rx="2.5" ry="2.5" style="stroke:#FFF2CC;stroke-width:0.5;" width="97" x="519.5" y="537.5679"/><rect fill="#FFF2CC" height="2.5" style="stroke:#FFF2CC;stroke-width:0.5;" width="97" x="519.5" y="564.1358"/><rect codeLine="43" fill="none" height="75.2038" id="ADRT" rx="2.5" ry="2.5" style="stroke:#181818;stroke-width:0.5;" width="97" x="519.5" y="537.5679"/><text fill="#000000" font-family="sans-serif" font-size="14" lengthAdjust="spacing" textLength="91" x="522.5" y="557.5339">Address Type</text><line style="stroke:#181818;stroke-width:0.5;" x1="520.5" x2="615.5" y1="566.6358" y2="566.6358"/><text fill="#000000" font-family="sans-serif" font-size="14" lengthAdjust="spacing" textLength="39" x="525.5" y="585.6018">Home</text><text fill="#000000" font-family="sans-serif" font-size="14" lengthAdjust="spacing" textLength="34" x="525.5" y="604.6697">Work</text></g><!--MD5=[763f04eb08a9b15e40740735da2d7859]
class PN--><g id="elem_PN"><rect codeLine="48" fill="#FFFFFF" height="75.2038" id="PN" rx="2.5" ry="2.5" style="stroke:#181818;stroke-width:0.5;" width="108" x="127" y="317.0679"/><rect fill="#FFCC99" height="29.0679" rx="2.5" ry="2.5" style="stroke:#FFCC99;stroke-width:0.5;" width="108" x="127" y="317.0679"/><rect fill="#FFCC99" height="2.5" style="stroke:#FFCC99;stroke-width:0.5;" width="108" x="127" y="343.6358"/><rect codeLine="48" fill="none" height="75.2038" id="PN" rx="2.5" ry="2.5" style="stroke:#181818;stroke-width:0.5;" width="108" x="127" y="317.0679"/><text fill="#000000" font-family="sans-serif" font-size="14" lengthAdjust="spacing" textLength="102" x="130" y="337.0339">Phone Number</text><line style="stroke:#181818;stroke-width:0.5;" x1="128" x2="234" y1="346.1358" y2="346.1358"/><text fill="#000000" font-family="sans-serif" font-size="14" lengthAdjust="spacing" textLength="29" x="133" y="365.1018">type</text><text fill="#000000" font-family="sans-serif" font-size="14" lengthAdjust="spacing" textLength="36" x="133" y="384.1697">value</text></g><!--MD5=[7a2762869ff6148808bd00be5eb29447]
class PNT--><g id="elem_PNT"><rect codeLine="53" fill="#FFFFFF" height="132.4075" id="PNT" rx="2.5" ry="2.5" style="stroke:#181818;stroke-width:0.5;" width="144" x="109" y="509.0679"/><rect fill="#FFCC99" height="29.0679" rx="2.5" ry="2.5" style="stroke:#FFCC99;stroke-width:0.5;" width="144" x="109" y="509.0679"/><rect fill="#FFCC99" height="2.5" style="stroke:#FFCC99;stroke-width:0.5;" width="144" x="109" y="535.6358"/><rect codeLine="53" fill="none" height="132.4075" id="PNT" rx="2.5" ry="2.5" style="stroke:#181818;stroke-width:0.5;" width="144" x="109" y="509.0679"/><text fill="#000000" font-family="sans-serif" font-size="14" lengthAdjust="spacing" textLength="138" x="112" y="529.0339">Phone Number Type</text><line style="stroke:#181818;stroke-width:0.5;" x1="110" x2="252" y1="538.1358" y2="538.1358"/><text fill="#000000" font-family="sans-serif" font-size="14" lengthAdjust="spacing" textLength="39" x="115" y="557.1018">Home</text><text fill="#000000" font-family="sans-serif" font-size="14" lengthAdjust="spacing" textLength="34" x="115" y="576.1697">Work</text><text fill="#000000" font-family="sans-serif" font-size="14" lengthAdjust="spacing" textLength="46" x="115" y="595.2376">Mobile</text><text fill="#000000" font-family="sans-serif" font-size="14" lengthAdjust="spacing" textLength="39" x="115" y="614.3055">Other</text><text fill="#000000" font-family="sans-serif" font-size="14" lengthAdjust="spacing" textLength="35" x="115" y="633.3734">Voice</text></g><!--MD5=[e4acb686d9d0c7d4d82c91fba668fe61]
class GN--><g id="elem_GN"><rect codeLine="61" fill="#FFFFFF" height="132.4075" id="GN" rx="2.5" ry="2.5" style="stroke:#181818;stroke-width:0.5;" width="75" x="308.5" y="509.0679"/><rect fill="#F5F5F5" height="29.0679" rx="2.5" ry="2.5" style="stroke:#F5F5F5;stroke-width:0.5;" width="75" x="308.5" y="509.0679"/><rect fill="#F5F5F5" height="2.5" style="stroke:#F5F5F5;stroke-width:0.5;" width="75" x="308.5" y="535.6358"/><rect codeLine="61" fill="none" height="132.4075" id="GN" rx="2.5" ry="2.5" style="stroke:#181818;stroke-width:0.5;" width="75" x="308.5" y="509.0679"/><text fill="#000000" font-family="sans-serif" font-size="14" lengthAdjust="spacing" textLength="50" x="321" y="529.0339">Gender</text><line style="stroke:#181818;stroke-width:0.5;" x1="309.5" x2="382.5" y1="538.1358" y2="538.1358"/><text fill="#000000" font-family="sans-serif" font-size="14" lengthAdjust="spacing" textLength="48" x="314.5" y="557.1018">Female</text><text fill="#000000" font-family="sans-serif" font-size="14" lengthAdjust="spacing" textLength="33" x="314.5" y="576.1697">Male</text><text fill="#000000" font-family="sans-serif" font-size="14" lengthAdjust="spacing" textLength="36" x="314.5" y="595.2376">None</text><text fill="#000000" font-family="sans-serif" font-size="14" lengthAdjust="spacing" textLength="39" x="314.5" y="614.3055">Other</text><text fill="#000000" font-family="sans-serif" font-size="14" lengthAdjust="spacing" textLength="63" x="314.5" y="633.3734">Unknown</text></g><g id="elem_PAE_NOTE"><path d="M6,51.5679 L6,79.2739 A0,0 0 0 0 6,79.2739 L132,79.2739 A0,0 0 0 0 132,79.2739 L132,69.5679 L167.09,65.5679 L132,61.5679 L132,61.5679 L122,51.5679 L6,51.5679 A0,0 0 0 0 6,51.5679 " fill="#FEFFDD" style="stroke:#181818;stroke-width:0.5;"/><path d="M122,51.5679 L122,61.5679 L132,61.5679 L122,51.5679 " fill="#FEFFDD" style="stroke:#181818;stroke-width:0.5;"/><text fill="#000000" font-family="sans-serif" font-size="13" lengthAdjust="spacing" textLength="105" x="12" y="70.4649">RSA - OAEP (2048)</text></g><g id="elem_PSE_NOTE"><path d="M552,51.5679 L552,61.5679 L516.58,65.5679 L552,69.5679 L552,79.2739 A0,0 0 0 0 552,79.2739 L666,79.2739 A0,0 0 0 0 666,79.2739 L666,61.5679 L656,51.5679 L552,51.5679 A0,0 0 0 0 552,51.5679 " fill="#FEFFDD" style="stroke:#181818;stroke-width:0.5;"/><path d="M656,51.5679 L656,61.5679 L666,61.5679 L656,51.5679 " fill="#FEFFDD" style="stroke:#181818;stroke-width:0.5;"/><text fill="#000000" font-family="sans-serif" font-size="13" lengthAdjust="spacing" textLength="93" x="558" y="70.4649">AES - GCM (256)</text></g><!--MD5=[ff0f1fd9941b4f8953654ac8143deb09]
link CNT to GN--><g id="link_CNT_GN"><path codeLine="77" d="M346,401.6379 C346,432.8179 346,474.4479 346,508.9979 " fill="none" id="CNT-GN" style="stroke:#181818;stroke-width:1.0;"/><text fill="#000000" font-family="sans-serif" font-size="13" lengthAdjust="spacing" textLength="79" x="347" y="474.9649">associated to</text><text fill="#000000" font-family="sans-serif" font-size="13" lengthAdjust="spacing" textLength="7" x="338.4859" y="423.7287">1</text><text fill="#000000" font-family="sans-serif" font-size="13" lengthAdjust="spacing" textLength="20" x="324.8438" y="497.29">0..1</text></g><!--MD5=[2c62b096e51398edb3f69d20ae236c9e]
link CNT to ADR--><g id="link_CNT_ADR"><path codeLine="78" d="M399.74,354.5679 C434.77,354.5679 480.28,354.5679 515.14,354.5679 " fill="none" id="CNT-ADR" style="stroke:#181818;stroke-width:1.0;"/><text fill="#000000" font-family="sans-serif" font-size="13" lengthAdjust="spacing" textLength="79" x="418" y="347.4649">associated to</text><text fill="#000000" font-family="sans-serif" font-size="13" lengthAdjust="spacing" textLength="7" x="407.4316" y="350.3519">1</text><text fill="#000000" font-family="sans-serif" font-size="13" lengthAdjust="spacing" textLength="7" x="500.5666" y="350.3382">*</text></g><!--MD5=[224bbda862263b0fdd37530b575bc99c]
reverse link PN to CNT--><g id="link_PN_CNT"><path codeLine="79" d="M240.26,354.5679 C257.29,354.5679 275.75,354.5679 292.41,354.5679 " fill="none" id="PN-backto-CNT" style="stroke:#181818;stroke-width:1.0;"/><polygon fill="#181818" points="235.03,354.5679,244.03,358.5679,240.03,354.5679,244.03,350.5679,235.03,354.5679" style="stroke:#181818;stroke-width:1.0;"/><text fill="#000000" font-family="sans-serif" font-size="13" lengthAdjust="spacing" textLength="21" x="253.25" y="347.4649">has</text><text fill="#000000" font-family="sans-serif" font-size="13" lengthAdjust="spacing" textLength="20" x="242.8337" y="369.5315">1..*</text><text fill="#000000" font-family="sans-serif" font-size="13" lengthAdjust="spacing" textLength="7" x="277.3817" y="350.3002">1</text></g><!--MD5=[7bcfa2fa49aa5812718d45d739b3096a]
link ADR to ADRT--><g id="link_ADR_ADRT"><path codeLine="81" d="M568,430.1479 C568,466.3779 568,508.2679 568,537.4879 " fill="none" id="ADR-ADRT" style="stroke:#181818;stroke-width:1.0;stroke-dasharray:7.0,7.0;"/></g><!--MD5=[db3d357aeb1626a620d858a5cbdd8799]
link PN to PNT--><g id="link_PN_PNT"><path codeLine="83" d="M181,392.1379 C181,423.9679 181,470.8579 181,509.0679 " fill="none" id="PN-PNT" style="stroke:#181818;stroke-width:1.0;stroke-dasharray:7.0,7.0;"/></g><!--MD5=[464eac318a92ec39b084d1d4bdfb819d]
link CL to CNT--><g id="link_CL_CNT"><path codeLine="85" d="M346,200.2279 C346,225.3079 346,272.1479 346,307.4879 " fill="none" id="CL-CNT" style="stroke:#181818;stroke-width:1.0;"/><text fill="#000000" font-family="sans-serif" font-size="13" lengthAdjust="spacing" textLength="45" x="347" y="244.9649">records</text><text fill="#000000" font-family="sans-serif" font-size="13" lengthAdjust="spacing" textLength="7" x="337.9719" y="222.1969">1</text><text fill="#000000" font-family="sans-serif" font-size="13" lengthAdjust="spacing" textLength="20" x="324.4688" y="295.9075">1..*</text></g><!--MD5=[c28deae2032be50940fbf797623ac618]
reverse link SE to CL--><g id="link_SE_CL"><path codeLine="86" d="M426.72,88.5879 C418.27,101.9479 406.75,119.0579 395,133.0679 C386.17,143.5979 375.28,154.3379 366.01,162.9379 " fill="none" id="SE-backto-CL" style="stroke:#181818;stroke-width:1.0;stroke-dasharray:7.0,7.0;"/><polygon fill="#181818" points="429.46,84.2179,421.293,89.7225,426.8062,88.4555,428.0732,93.9686,429.46,84.2179" style="stroke:#181818;stroke-width:1.0;"/><text fill="#000000" font-family="sans-serif" font-size="13" lengthAdjust="spacing" textLength="97" x="409" y="128.9649">encrypted using</text></g><!--MD5=[3924d6f5a4fdbf9dd68b8512f04050b7]
reverse link AE to CL--><g id="link_AE_CL"><path codeLine="87" d="M245.69,89.4979 C245.46,103.2579 247.33,120.4679 256,133.0679 C267.31,149.5179 286.17,160.6979 303.72,168.0579 " fill="none" id="AE-backto-CL" style="stroke:#181818;stroke-width:1.0;stroke-dasharray:7.0,7.0;"/><polygon fill="#181818" points="245.88,84.2279,241.5487,93.0732,245.6944,89.2245,249.5432,93.3702,245.88,84.2279" style="stroke:#181818;stroke-width:1.0;"/><text fill="#000000" font-family="sans-serif" font-size="13" lengthAdjust="spacing" textLength="129" x="257" y="128.9649">shared securely using</text></g><!--MD5=[835328a2f883bbab348786aeebc0e457]
link USR to CL--><g id="link_USR_CL"><path codeLine="89" d="M467.36,181.5679 C447.21,181.5679 414.42,181.5679 388,181.5679 " fill="none" id="USR-CL" style="stroke:#181818;stroke-width:1.0;"/><text fill="#000000" font-family="sans-serif" font-size="13" lengthAdjust="spacing" textLength="43" x="406.25" y="174.4649">creates</text><text fill="#000000" font-family="sans-serif" font-size="13" lengthAdjust="spacing" textLength="7" x="452.4726" y="175.5505">1</text><text fill="#000000" font-family="sans-serif" font-size="13" lengthAdjust="spacing" textLength="7" x="396.1047" y="177.0077">*</text></g><!--MD5=[20b5b270278e5c5ba7b032cf646a87fa]
link CL to USR--><g id="link_CL_USR"><path codeLine="90" d="M388.14,199.6579 C405.84,204.9879 426.6,208.2779 445.25,203.5679 C452.89,201.6379 460.65,197.9579 467.32,194.1579 " fill="none" id="CL-USR" style="stroke:#181818;stroke-width:1.0;"/><text fill="#000000" font-family="sans-serif" font-size="13" lengthAdjust="spacing" textLength="33" x="411.25" y="199.4649">share</text><text fill="#000000" font-family="sans-serif" font-size="13" lengthAdjust="spacing" textLength="7" x="393.4565" y="222.1322">*</text><text fill="#000000" font-family="sans-serif" font-size="13" lengthAdjust="spacing" textLength="7" x="452.4184" y="192.6257">1</text></g><!--MD5=[fcd321a4d91678bc7680fb3c868fdb23]
link VWR to CL--><g id="link_VWR_CL"><path codeLine="91" d="M190.55,181.5679 C219.98,181.5679 268.77,181.5679 303.85,181.5679 " fill="none" id="VWR-CL" style="stroke:#181818;stroke-width:1.0;"/><text fill="#000000" font-family="sans-serif" font-size="13" lengthAdjust="spacing" textLength="77" x="208.75" y="174.4649">views shared</text><text fill="#000000" font-family="sans-serif" font-size="13" lengthAdjust="spacing" textLength="7" x="198.3572" y="176.2663">*</text><text fill="#000000" font-family="sans-serif" font-size="13" lengthAdjust="spacing" textLength="7" x="289.0039" y="177.0588">*</text></g><!--MD5=[de3b342bb92382060f717b3d40a53002]
@startuml domain-model

title "Domain Model - Entities and Relationships"

hide circle
hide empty methods

hide stereotype
skinparam {
    ClassHeaderBackgroundColor<<LightRed>> #f8cecc
    ClassHeaderBackgroundColor<<LightGreen>> #d5e8d4
    ClassHeaderBackgroundColor<<LightBlue>> #dae8fc
    ClassHeaderBackgroundColor<<LightYellow>> #fff2cc
    ClassHeaderBackgroundColor<<LightPurple>> #e1d5e7
    ClassHeaderBackgroundColor<<LightGray>> #f5f5f5
    ClassHeaderBackgroundColor<<LightOrange>> #ffcc99
    ClassHeaderBackgroundColor<<Purple>> #a020f050
    ClassBackgroundColor #FFFFFF
}

entity "User" as USR<<LightRed>> 
entity "Viewer" as VWR<<LightGreen>>
entity "Contact List" as CL<<LightBlue>>
entity "Symmetric Encryption" as SE <<Purple>>
entity "Asymmetric Encryption" as AE <<LightPurple>>

' Contact entities declaration for vCard schema based on w3 spec: https://www.w3.org/TR/vcard-rdf/

entity "Contact" as CNT <<LightBlue>> {
    name
    date of birth
    email address
}

entity "Address" as ADR <<LightYellow>> {
    type
    street
    location
    region
    country name
    postal code
}

enum "Address Type" as ADRT <<LightYellow>> {
  Home
  Work
}

entity "Phone Number" as PN <<LightOrange>> { 
    type
    value
}

enum "Phone Number Type" as PNT <<LightOrange>> {
    Home
    Work
    Mobile
    Other
    Voice
}

enum "Gender" as GN <<LightGray>> {
    Female
    Male
    None
    Other
    Unknown
}

note "RSA - OAEP (2048)" as PAE_NOTE
note "AES - GCM (256)" as PSE_NOTE

' Relationships

AE .left. PAE_NOTE
SE . PSE_NOTE

CNT "1" -down- "0..1" GN: associated to
CNT "1" -right- "*" ADR: associated to
CNT "1" -left-> "1..*" PN: has

ADR .. ADRT

PN .. PNT

CL "1" - - "1..*" CNT: records
CL .up.> SE: encrypted using
CL .up.> AE: shared securely using

USR "1" - - "*" CL: creates
USR "1" -left- "*" CL: share
VWR "*" -right- "*" CL: views shared

@enduml

@startuml domain-model

title "Domain Model - Entities and Relationships"

hide circle
hide empty methods

hide stereotype
skinparam {
    ClassHeaderBackgroundColor<<LightRed>> #f8cecc
    ClassHeaderBackgroundColor<<LightGreen>> #d5e8d4
    ClassHeaderBackgroundColor<<LightBlue>> #dae8fc
    ClassHeaderBackgroundColor<<LightYellow>> #fff2cc
    ClassHeaderBackgroundColor<<LightPurple>> #e1d5e7
    ClassHeaderBackgroundColor<<LightGray>> #f5f5f5
    ClassHeaderBackgroundColor<<LightOrange>> #ffcc99
    ClassHeaderBackgroundColor<<Purple>> #a020f050
    ClassBackgroundColor #FFFFFF
}

entity "User" as USR<<LightRed>> 
entity "Viewer" as VWR<<LightGreen>>
entity "Contact List" as CL<<LightBlue>>
entity "Symmetric Encryption" as SE <<Purple>>
entity "Asymmetric Encryption" as AE <<LightPurple>>


entity "Contact" as CNT <<LightBlue>> {
    name
    date of birth
    email address
}

entity "Address" as ADR <<LightYellow>> {
    type
    street
    location
    region
    country name
    postal code
}

enum "Address Type" as ADRT <<LightYellow>> {
  Home
  Work
}

entity "Phone Number" as PN <<LightOrange>> { 
    type
    value
}

enum "Phone Number Type" as PNT <<LightOrange>> {
    Home
    Work
    Mobile
    Other
    Voice
}

enum "Gender" as GN <<LightGray>> {
    Female
    Male
    None
    Other
    Unknown
}

note "RSA - OAEP (2048)" as PAE_NOTE
note "AES - GCM (256)" as PSE_NOTE


AE .left. PAE_NOTE
SE . PSE_NOTE

CNT "1" -down- "0..1" GN: associated to
CNT "1" -right- "*" ADR: associated to
CNT "1" -left-> "1..*" PN: has

ADR .. ADRT

PN .. PNT

CL "1" - - "1..*" CNT: records
CL .up.> SE: encrypted using
CL .up.> AE: shared securely using

USR "1" - - "*" CL: creates
USR "1" -left- "*" CL: share
VWR "*" -right- "*" CL: views shared

@enduml

PlantUML version 1.2022.7(Mon Aug 22 18:01:30 WEST 2022)
(GPL source distribution)
Java Runtime: OpenJDK Runtime Environment
JVM: OpenJDK 64-Bit Server VM
Default Encoding: ANSI_X3.4-1968
Language: en
Country: US
--></g></svg>