<?xml version="1.0" encoding="us-ascii" standalone="no"?><svg xmlns="http://www.w3.org/2000/svg" xmlns:xlink="http://www.w3.org/1999/xlink" contentStyleType="text/css" height="713px" preserveAspectRatio="none" style="width:673px;height:713px;background:#FFFFFF;" version="1.1" viewBox="0 0 673 713" width="673px" zoomAndPan="magnify"><defs/><g><text fill="#000000" font-family="sans-serif" font-size="14" font-weight="bold" lengthAdjust="spacing" textLength="293" x="183" y="24.9659">Domain Model - Entities and Relationships</text><!--class USR--><g id="elem_USR"><rect codeLine="20" fill="#FFFFFF" height="53.412" id="USR" rx="2.5" ry="2.5" style="stroke:#181818;stroke-width:0.5;" width="61" x="467.5" y="179.0679"/><rect fill="#F8CECC" height="45.412" rx="2.5" ry="2.5" style="stroke:#F8CECC;stroke-width:0.5;" width="61" x="467.5" y="179.0679"/><rect fill="#F8CECC" height="2.5" style="stroke:#F8CECC;stroke-width:0.5;" width="61" x="467.5" y="221.9799"/><rect codeLine="20" fill="none" height="53.412" id="USR" rx="2.5" ry="2.5" style="stroke:#181818;stroke-width:0.5;" width="61" x="467.5" y="179.0679"/><text fill="#000000" font-family="sans-serif" font-size="12" font-style="italic" lengthAdjust="spacing" textLength="59" x="468.5" y="196.896">&#171;LightRed&#187;</text><text fill="#000000" font-family="sans-serif" font-size="14" lengthAdjust="spacing" textLength="31" x="482.5" y="215.378">User</text><line style="stroke:#181818;stroke-width:0.5;" x1="468.5" x2="527.5" y1="224.4799" y2="224.4799"/></g><!--class VWR--><g id="elem_VWR"><rect codeLine="21" fill="#FFFFFF" height="53.412" id="VWR" rx="2.5" ry="2.5" style="stroke:#181818;stroke-width:0.5;" width="73" x="117.5" y="179.0679"/><rect fill="#D5E8D4" height="45.412" rx="2.5" ry="2.5" style="stroke:#D5E8D4;stroke-width:0.5;" width="73" x="117.5" y="179.0679"/><rect fill="#D5E8D4" height="2.5" style="stroke:#D5E8D4;stroke-width:0.5;" width="73" x="117.5" y="221.9799"/><rect codeLine="21" fill="none" height="53.412" id="VWR" rx="2.5" ry="2.5" style="stroke:#181818;stroke-width:0.5;" width="73" x="117.5" y="179.0679"/><text fill="#000000" font-family="sans-serif" font-size="12" font-style="italic" lengthAdjust="spacing" textLength="71" x="118.5" y="196.896">&#171;LightGreen&#187;</text><text fill="#000000" font-family="sans-serif" font-size="14" lengthAdjust="spacing" textLength="45" x="131.5" y="215.378">Viewer</text><line style="stroke:#181818;stroke-width:0.5;" x1="118.5" x2="189.5" y1="224.4799" y2="224.4799"/></g><!--class CL--><g id="elem_CL"><rect codeLine="22" fill="#FFFFFF" height="53.412" id="CL" rx="2.5" ry="2.5" style="stroke:#181818;stroke-width:0.5;" width="84" x="304" y="179.0679"/><rect fill="#DAE8FC" height="45.412" rx="2.5" ry="2.5" style="stroke:#DAE8FC;stroke-width:0.5;" width="84" x="304" y="179.0679"/><rect fill="#DAE8FC" height="2.5" style="stroke:#DAE8FC;stroke-width:0.5;" width="84" x="304" y="221.9799"/><rect codeLine="22" fill="none" height="53.412" id="CL" rx="2.5" ry="2.5" style="stroke:#181818;stroke-width:0.5;" width="84" x="304" y="179.0679"/><text fill="#000000" font-family="sans-serif" font-size="12" font-style="italic" lengthAdjust="spacing" textLength="62" x="315" y="196.896">&#171;LightBlue&#187;</text><text fill="#000000" font-family="sans-serif" font-size="14" lengthAdjust="spacing" textLength="78" x="307" y="215.378">Contact List</text><line style="stroke:#181818;stroke-width:0.5;" x1="305" x2="387" y1="224.4799" y2="224.4799"/></g><!--class SE--><g id="elem_SE"><rect codeLine="23" fill="#FFFFFF" height="53.412" id="SE" rx="2.5" ry="2.5" style="stroke:#181818;stroke-width:0.5;" width="153" x="363.5" y="47.0679"/><rect fill="#A020F0" fill-opacity="0.31373" height="45.412" rx="2.5" ry="2.5" style="stroke:#A020F050;stroke-width:0.5;" width="153" x="363.5" y="47.0679"/><rect fill="#A020F0" fill-opacity="0.31373" height="2.5" style="stroke:#A020F050;stroke-width:0.5;" width="153" x="363.5" y="89.9799"/><rect codeLine="23" fill="none" height="53.412" id="SE" rx="2.5" ry="2.5" style="stroke:#181818;stroke-width:0.5;" width="153" x="363.5" y="47.0679"/><text fill="#000000" font-family="sans-serif" font-size="12" font-style="italic" lengthAdjust="spacing" textLength="47" x="416.5" y="64.896">&#171;Purple&#187;</text><text fill="#000000" font-family="sans-serif" font-size="14" lengthAdjust="spacing" textLength="147" x="366.5" y="83.378">Symmetric Encryption</text><line style="stroke:#181818;stroke-width:0.5;" x1="364.5" x2="515.5" y1="92.4799" y2="92.4799"/></g><!--class AE--><g id="elem_AE"><rect codeLine="24" fill="#FFFFFF" height="53.412" id="AE" rx="2.5" ry="2.5" style="stroke:#181818;stroke-width:0.5;" width="161" x="167.5" y="47.0679"/><rect fill="#E1D5E7" height="45.412" rx="2.5" ry="2.5" style="stroke:#E1D5E7;stroke-width:0.5;" width="161" x="167.5" y="47.0679"/><rect fill="#E1D5E7" height="2.5" style="stroke:#E1D5E7;stroke-width:0.5;" width="161" x="167.5" y="89.9799"/><rect codeLine="24" fill="none" height="53.412" id="AE" rx="2.5" ry="2.5" style="stroke:#181818;stroke-width:0.5;" width="161" x="167.5" y="47.0679"/><text fill="#000000" font-family="sans-serif" font-size="12" font-style="italic" lengthAdjust="spacing" textLength="74" x="211" y="64.896">&#171;LightPurple&#187;</text><text fill="#000000" font-family="sans-serif" font-size="14" lengthAdjust="spacing" textLength="155" x="170.5" y="83.378">Asymmetric Encryption</text><line style="stroke:#181818;stroke-width:0.5;" x1="168.5" x2="327.5" y1="92.4799" y2="92.4799"/></g><!--class CNT--><g id="elem_CNT"><rect codeLine="28" fill="#FFFFFF" height="110.6158" id="CNT" rx="2.5" ry="2.5" style="stroke:#181818;stroke-width:0.5;" width="107" x="292.5" y="339.5679"/><rect fill="#DAE8FC" height="45.412" rx="2.5" ry="2.5" style="stroke:#DAE8FC;stroke-width:0.5;" width="107" x="292.5" y="339.5679"/><rect fill="#DAE8FC" height="2.5" style="stroke:#DAE8FC;stroke-width:0.5;" width="107" x="292.5" y="382.4799"/><rect codeLine="28" fill="none" height="110.6158" id="CNT" rx="2.5" ry="2.5" style="stroke:#181818;stroke-width:0.5;" width="107" x="292.5" y="339.5679"/><text fill="#000000" font-family="sans-serif" font-size="12" font-style="italic" lengthAdjust="spacing" textLength="62" x="315" y="357.396">&#171;LightBlue&#187;</text><text fill="#000000" font-family="sans-serif" font-size="14" lengthAdjust="spacing" textLength="51" x="320.5" y="375.878">Contact</text><line style="stroke:#181818;stroke-width:0.5;" x1="293.5" x2="398.5" y1="384.9799" y2="384.9799"/><text fill="#000000" font-family="sans-serif" font-size="14" lengthAdjust="spacing" textLength="38" x="298.5" y="403.9459">name</text><text fill="#000000" font-family="sans-serif" font-size="14" lengthAdjust="spacing" textLength="84" x="298.5" y="423.0138">date of birth</text><text fill="#000000" font-family="sans-serif" font-size="14" lengthAdjust="spacing" textLength="95" x="298.5" y="442.0817">email address</text></g><!--class ADR--><g id="elem_ADR"><rect codeLine="34" fill="#FFFFFF" height="167.8195" id="ADR" rx="2.5" ry="2.5" style="stroke:#181818;stroke-width:0.5;" width="105" x="515.5" y="311.0679"/><rect fill="#FFF2CC" height="45.412" rx="2.5" ry="2.5" style="stroke:#FFF2CC;stroke-width:0.5;" width="105" x="515.5" y="311.0679"/><rect fill="#FFF2CC" height="2.5" style="stroke:#FFF2CC;stroke-width:0.5;" width="105" x="515.5" y="353.9799"/><rect codeLine="34" fill="none" height="167.8195" id="ADR" rx="2.5" ry="2.5" style="stroke:#181818;stroke-width:0.5;" width="105" x="515.5" y="311.0679"/><text fill="#000000" font-family="sans-serif" font-size="12" font-style="italic" lengthAdjust="spacing" textLength="73" x="531.5" y="328.896">&#171;LightYellow&#187;</text><text fill="#000000" font-family="sans-serif" font-size="14" lengthAdjust="spacing" textLength="55" x="540.5" y="347.378">Address</text><line style="stroke:#181818;stroke-width:0.5;" x1="516.5" x2="619.5" y1="356.4799" y2="356.4799"/><text fill="#000000" font-family="sans-serif" font-size="14" lengthAdjust="spacing" textLength="29" x="521.5" y="375.4459">type</text><text fill="#000000" font-family="sans-serif" font-size="14" lengthAdjust="spacing" textLength="39" x="521.5" y="394.5138">street</text><text fill="#000000" font-family="sans-serif" font-size="14" lengthAdjust="spacing" textLength="53" x="521.5" y="413.5817">location</text><text fill="#000000" font-family="sans-serif" font-size="14" lengthAdjust="spacing" textLength="44" x="521.5" y="432.6496">region</text><text fill="#000000" font-family="sans-serif" font-size="14" lengthAdjust="spacing" textLength="93" x="521.5" y="451.7176">country name</text><text fill="#000000" font-family="sans-serif" font-size="14" lengthAdjust="spacing" textLength="77" x="521.5" y="470.7855">postal code</text></g><!--class ADRT--><g id="elem_ADRT"><rect codeLine="43" fill="#FFFFFF" height="91.5479" id="ADRT" rx="2.5" ry="2.5" style="stroke:#181818;stroke-width:0.5;" width="97" x="519.5" y="586.5679"/><rect fill="#FFF2CC" height="45.412" rx="2.5" ry="2.5" style="stroke:#FFF2CC;stroke-width:0.5;" width="97" x="519.5" y="586.5679"/><rect fill="#FFF2CC" height="2.5" style="stroke:#FFF2CC;stroke-width:0.5;" width="97" x="519.5" y="629.4799"/><rect codeLine="43" fill="none" height="91.5479" id="ADRT" rx="2.5" ry="2.5" style="stroke:#181818;stroke-width:0.5;" width="97" x="519.5" y="586.5679"/><text fill="#000000" font-family="sans-serif" font-size="12" font-style="italic" lengthAdjust="spacing" textLength="73" x="531.5" y="604.396">&#171;LightYellow&#187;</text><text fill="#000000" font-family="sans-serif" font-size="14" lengthAdjust="spacing" textLength="91" x="522.5" y="622.878">Address Type</text><line style="stroke:#181818;stroke-width:0.5;" x1="520.5" x2="615.5" y1="631.9799" y2="631.9799"/><text fill="#000000" font-family="sans-serif" font-size="14" lengthAdjust="spacing" textLength="39" x="525.5" y="650.9459">Home</text><text fill="#000000" font-family="sans-serif" font-size="14" lengthAdjust="spacing" textLength="34" x="525.5" y="670.0138">Work</text></g><!--class PN--><g id="elem_PN"><rect codeLine="48" fill="#FFFFFF" height="91.5479" id="PN" rx="2.5" ry="2.5" style="stroke:#181818;stroke-width:0.5;" width="108" x="127" y="349.0679"/><rect fill="#FFCC99" height="45.412" rx="2.5" ry="2.5" style="stroke:#FFCC99;stroke-width:0.5;" width="108" x="127" y="349.0679"/><rect fill="#FFCC99" height="2.5" style="stroke:#FFCC99;stroke-width:0.5;" width="108" x="127" y="391.9799"/><rect codeLine="48" fill="none" height="91.5479" id="PN" rx="2.5" ry="2.5" style="stroke:#181818;stroke-width:0.5;" width="108" x="127" y="349.0679"/><text fill="#000000" font-family="sans-serif" font-size="12" font-style="italic" lengthAdjust="spacing" textLength="80" x="141" y="366.896">&#171;LightOrange&#187;</text><text fill="#000000" font-family="sans-serif" font-size="14" lengthAdjust="spacing" textLength="102" x="130" y="385.378">Phone Number</text><line style="stroke:#181818;stroke-width:0.5;" x1="128" x2="234" y1="394.4799" y2="394.4799"/><text fill="#000000" font-family="sans-serif" font-size="14" lengthAdjust="spacing" textLength="29" x="133" y="413.4459">type</text><text fill="#000000" font-family="sans-serif" font-size="14" lengthAdjust="spacing" textLength="36" x="133" y="432.5138">value</text></g><!--class PNT--><g id="elem_PNT"><rect codeLine="53" fill="#FFFFFF" height="148.7516" id="PNT" rx="2.5" ry="2.5" style="stroke:#181818;stroke-width:0.5;" width="144" x="109" y="558.0679"/><rect fill="#FFCC99" height="45.412" rx="2.5" ry="2.5" style="stroke:#FFCC99;stroke-width:0.5;" width="144" x="109" y="558.0679"/><rect fill="#FFCC99" height="2.5" style="stroke:#FFCC99;stroke-width:0.5;" width="144" x="109" y="600.9799"/><rect codeLine="53" fill="none" height="148.7516" id="PNT" rx="2.5" ry="2.5" style="stroke:#181818;stroke-width:0.5;" width="144" x="109" y="558.0679"/><text fill="#000000" font-family="sans-serif" font-size="12" font-style="italic" lengthAdjust="spacing" textLength="80" x="141" y="575.896">&#171;LightOrange&#187;</text><text fill="#000000" font-family="sans-serif" font-size="14" lengthAdjust="spacing" textLength="138" x="112" y="594.378">Phone Number Type</text><line style="stroke:#181818;stroke-width:0.5;" x1="110" x2="252" y1="603.4799" y2="603.4799"/><text fill="#000000" font-family="sans-serif" font-size="14" lengthAdjust="spacing" textLength="39" x="115" y="622.4459">Home</text><text fill="#000000" font-family="sans-serif" font-size="14" lengthAdjust="spacing" textLength="34" x="115" y="641.5138">Work</text><text fill="#000000" font-family="sans-serif" font-size="14" lengthAdjust="spacing" textLength="46" x="115" y="660.5817">Mobile</text><text fill="#000000" font-family="sans-serif" font-size="14" lengthAdjust="spacing" textLength="39" x="115" y="679.6496">Other</text><text fill="#000000" font-family="sans-serif" font-size="14" lengthAdjust="spacing" textLength="35" x="115" y="698.7176">Voice</text></g><!--class GN--><g id="elem_GN"><rect codeLine="61" fill="#FFFFFF" height="148.7516" id="GN" rx="2.5" ry="2.5" style="stroke:#181818;stroke-width:0.5;" width="75" x="308.5" y="558.0679"/><rect fill="#F5F5F5" height="45.412" rx="2.5" ry="2.5" style="stroke:#F5F5F5;stroke-width:0.5;" width="75" x="308.5" y="558.0679"/><rect fill="#F5F5F5" height="2.5" style="stroke:#F5F5F5;stroke-width:0.5;" width="75" x="308.5" y="600.9799"/><rect codeLine="61" fill="none" height="148.7516" id="GN" rx="2.5" ry="2.5" style="stroke:#181818;stroke-width:0.5;" width="75" x="308.5" y="558.0679"/><text fill="#000000" font-family="sans-serif" font-size="12" font-style="italic" lengthAdjust="spacing" textLength="65" x="313.5" y="575.896">&#171;LightGray&#187;</text><text fill="#000000" font-family="sans-serif" font-size="14" lengthAdjust="spacing" textLength="50" x="321" y="594.378">Gender</text><line style="stroke:#181818;stroke-width:0.5;" x1="309.5" x2="382.5" y1="603.4799" y2="603.4799"/><text fill="#000000" font-family="sans-serif" font-size="14" lengthAdjust="spacing" textLength="48" x="314.5" y="622.4459">Female</text><text fill="#000000" font-family="sans-serif" font-size="14" lengthAdjust="spacing" textLength="33" x="314.5" y="641.5138">Male</text><text fill="#000000" font-family="sans-serif" font-size="14" lengthAdjust="spacing" textLength="36" x="314.5" y="660.5817">None</text><text fill="#000000" font-family="sans-serif" font-size="14" lengthAdjust="spacing" textLength="39" x="314.5" y="679.6496">Other</text><text fill="#000000" font-family="sans-serif" font-size="14" lengthAdjust="spacing" textLength="63" x="314.5" y="698.7176">Unknown</text></g><g id="elem_PAE_NOTE"><path d="M6,59.5679 L6,87.2739 A0,0 0 0 0 6,87.2739 L132,87.2739 A0,0 0 0 0 132,87.2739 L132,77.5679 L167.09,73.5679 L132,69.5679 L132,69.5679 L122,59.5679 L6,59.5679 A0,0 0 0 0 6,59.5679 " fill="#FEFFDD" style="stroke:#181818;stroke-width:0.5;"/><path d="M122,59.5679 L122,69.5679 L132,69.5679 L122,59.5679 " fill="#FEFFDD" style="stroke:#181818;stroke-width:0.5;"/><text fill="#000000" font-family="sans-serif" font-size="13" lengthAdjust="spacing" textLength="105" x="12" y="78.4649">RSA - OAEP (2048)</text></g><g id="elem_PSE_NOTE"><path d="M552,59.5679 L552,69.5679 L516.58,73.5679 L552,77.5679 L552,87.2739 A0,0 0 0 0 552,87.2739 L666,87.2739 A0,0 0 0 0 666,87.2739 L666,69.5679 L656,59.5679 L552,59.5679 A0,0 0 0 0 552,59.5679 " fill="#FEFFDD" style="stroke:#181818;stroke-width:0.5;"/><path d="M656,59.5679 L656,69.5679 L666,69.5679 L656,59.5679 " fill="#FEFFDD" style="stroke:#181818;stroke-width:0.5;"/><text fill="#000000" font-family="sans-serif" font-size="13" lengthAdjust="spacing" textLength="93" x="558" y="78.4649">AES - GCM (256)</text></g><!--link CNT to GN--><g id="link_CNT_GN"><path codeLine="77" d="M346,450.6879 C346,482.6179 346,523.3479 346,558.0679 " fill="none" id="CNT-GN" style="stroke:#181818;stroke-width:1.0;"/><text fill="#000000" font-family="sans-serif" font-size="13" lengthAdjust="spacing" textLength="79" x="347" y="523.9649">associated to</text><text fill="#000000" font-family="sans-serif" font-size="13" lengthAdjust="spacing" textLength="7" x="338.5953" y="472.0618">1</text><text fill="#000000" font-family="sans-serif" font-size="13" lengthAdjust="spacing" textLength="20" x="324.9688" y="546.4548">0..1</text></g><!--link CNT to ADR--><g id="link_CNT_ADR"><path codeLine="78" d="M399.74,395.0679 C434.77,395.0679 480.28,395.0679 515.14,395.0679 " fill="none" id="CNT-ADR" style="stroke:#181818;stroke-width:1.0;"/><text fill="#000000" font-family="sans-serif" font-size="13" lengthAdjust="spacing" textLength="79" x="418" y="387.9649">associated to</text><text fill="#000000" font-family="sans-serif" font-size="13" lengthAdjust="spacing" textLength="7" x="407.4316" y="390.896">1</text><text fill="#000000" font-family="sans-serif" font-size="13" lengthAdjust="spacing" textLength="7" x="500.5666" y="390.8823">*</text></g><!--reverse link PN to CNT--><g id="link_PN_CNT"><path codeLine="79" d="M241.03,395.0679 C259.45,395.0679 274.03,395.0679 292.41,395.0679 " fill="none" id="PN-backto-CNT" style="stroke:#181818;stroke-width:1.0;"/><polygon fill="#181818" points="235.03,395.0679,244.03,399.0679,240.03,395.0679,244.03,391.0679,235.03,395.0679" style="stroke:#181818;stroke-width:1.0;"/><text fill="#000000" font-family="sans-serif" font-size="13" lengthAdjust="spacing" textLength="21" x="253.25" y="387.9649">has</text><text fill="#000000" font-family="sans-serif" font-size="13" lengthAdjust="spacing" textLength="20" x="242.8337" y="410.0714">1..*</text><text fill="#000000" font-family="sans-serif" font-size="13" lengthAdjust="spacing" textLength="7" x="277.3817" y="390.8463">1</text></g><!--link ADR to ADRT--><g id="link_ADR_ADRT"><path codeLine="81" d="M568,479.0979 C568,515.2479 568,556.1979 568,586.5479 " fill="none" id="ADR-ADRT" style="stroke:#181818;stroke-width:1.0;stroke-dasharray:7.0,7.0;"/></g><!--link PN to PNT--><g id="link_PN_PNT"><path codeLine="83" d="M181,441.1979 C181,474.1879 181,519.6479 181,557.8779 " fill="none" id="PN-PNT" style="stroke:#181818;stroke-width:1.0;stroke-dasharray:7.0,7.0;"/></g><!--link CL to CNT--><g id="link_CL_CNT"><path codeLine="85" d="M346,232.2479 C346,259.7279 346,304.1379 346,339.4879 " fill="none" id="CL-CNT" style="stroke:#181818;stroke-width:1.0;"/><text fill="#000000" font-family="sans-serif" font-size="13" lengthAdjust="spacing" textLength="45" x="347" y="276.9649">records</text><text fill="#000000" font-family="sans-serif" font-size="13" lengthAdjust="spacing" textLength="7" x="338.1906" y="254.3143">1</text><text fill="#000000" font-family="sans-serif" font-size="13" lengthAdjust="spacing" textLength="20" x="324.6563" y="327.8474">1..*</text></g><!--reverse link SE to CL--><g id="link_SE_CL"><path codeLine="86" d="M423.1189,105.3406 C414.7289,120.0606 406.45,133.4779 395,149.0679 C387.55,159.2179 378.62,169.7379 370.44,178.8479 " fill="none" id="SE-backto-CL" style="stroke:#181818;stroke-width:1.0;stroke-dasharray:7.0,7.0;"/><polygon fill="#181818" points="426.09,100.1279,418.1582,105.9663,423.6141,104.4719,425.1085,109.9277,426.09,100.1279" style="stroke:#181818;stroke-width:1.0;"/><text fill="#000000" font-family="sans-serif" font-size="13" lengthAdjust="spacing" textLength="97" x="408" y="144.9649">encrypted using</text></g><!--reverse link AE to CL--><g id="link_AE_CL"><path codeLine="87" d="M245.2305,106.1965 C244.9005,121.4865 246.91,134.6579 256,149.0679 C267.16,166.7679 286.23,179.7079 303.95,188.6179 " fill="none" id="AE-backto-CL" style="stroke:#181818;stroke-width:1.0;stroke-dasharray:7.0,7.0;"/><polygon fill="#181818" points="245.36,100.1979,241.1667,109.1095,245.2521,105.1968,249.1649,109.2821,245.36,100.1979" style="stroke:#181818;stroke-width:1.0;"/><text fill="#000000" font-family="sans-serif" font-size="13" lengthAdjust="spacing" textLength="129" x="257" y="144.9649">shared securely using</text></g><!--link USR to CL--><g id="link_USR_CL"><path codeLine="89" d="M467.45,205.5679 C444.74,205.5679 413.46,205.5679 388.34,205.5679 " fill="none" id="USR-CL" style="stroke:#181818;stroke-width:1.0;"/><text fill="#000000" font-family="sans-serif" font-size="13" lengthAdjust="spacing" textLength="43" x="406.25" y="198.4649">creates</text><text fill="#000000" font-family="sans-serif" font-size="13" lengthAdjust="spacing" textLength="7" x="452.5759" y="200.5333">1</text><text fill="#000000" font-family="sans-serif" font-size="13" lengthAdjust="spacing" textLength="7" x="395.9322" y="201.0815">*</text></g><!--link CL to USR--><g id="link_CL_USR"><path codeLine="90" d="M388.42,222.8779 C405.97,227.9779 426.56,231.3079 445.25,227.5679 C452.64,226.0879 460.3,223.5479 467.4,220.7079 " fill="none" id="CL-USR" style="stroke:#181818;stroke-width:1.0;"/><text fill="#000000" font-family="sans-serif" font-size="13" lengthAdjust="spacing" textLength="33" x="411.25" y="223.4649">share</text><text fill="#000000" font-family="sans-serif" font-size="13" lengthAdjust="spacing" textLength="7" x="396.0255" y="221.2584">*</text><text fill="#000000" font-family="sans-serif" font-size="13" lengthAdjust="spacing" textLength="7" x="452.5144" y="219.1744">1</text></g><!--link VWR to CL--><g id="link_VWR_CL"><path codeLine="91" d="M190.57,205.5679 C222.88,205.5679 270.01,205.5679 303.89,205.5679 " fill="none" id="VWR-CL" style="stroke:#181818;stroke-width:1.0;"/><text fill="#000000" font-family="sans-serif" font-size="13" lengthAdjust="spacing" textLength="77" x="208.75" y="198.4649">views shared</text><text fill="#000000" font-family="sans-serif" font-size="13" lengthAdjust="spacing" textLength="7" x="198.4588" y="200.8204">*</text><text fill="#000000" font-family="sans-serif" font-size="13" lengthAdjust="spacing" textLength="7" x="289.0508" y="201.0293">*</text></g><!--SRC=[ZLNVRzem47xtNt7A7lP38h1ktJeqLMACqGTA4T1EUvfS-qAiEdPaco8qxN_VnGa4qAOHNYw-x-w-otrdWWeQ8Vbg2wuCt5g96ZemCa45XHwuaJ17pOEonkUgz0bZkP88GZcXiRQnACCM2WovbRxn-u0ERTYMoFoJCYLtl81V3EWPQkxz3NA9xWiNJojdrqOEhRRky-U9MkLXZlBw6bvaLmA5E2zax11D5IGlyKg-Fo_eYrvZZE5ubPrPw0TgRJUHNfPTd4jljdQbZhNmBJ7yU6vJV1ihNLQ_ysBk73ShhFa9yUdJVwDQQhntqSjwbxqsv0GCBxx5X_rc32k5R26vz-WIu1xk5_EZyUqH3met3URX-_nuNdlGq9h0HO29yY52XvEZ8Us1Ysr1GdDAa4Q5svQLC6F0OWHjCtlumFyBFwZmHyDXx2NiUE1k0IGAJTgjmY2ZJ_0yv4w25paM71wvHmdasRm3NwBeGnv2wVlTxcQpIJVlKkjMtUMy-omegEDarcMd7TVDJfTmhCbwKmmlC1gI1mIRmQDo8OydL5vfu58wzFvm88FwgExnwnnETLjdZejP6JxG948qjHMnp_ZYSBKp1GaWk6tBfhG-S4td4klAws9V5vQKULTy-TVgDpRc-MxTqo7nMMuDmdHTF3PgcKtXLDI_u9ZzCwVFrN8uJD4IcRLVjqqKmnic3PVAkBMFIjTdTo575wq7gyH1bJ4QsL0Sxoaskrhd_KRJQRBSxemfKJl9Us-UZDsOAhEnDE1alXZGvNit6CtWrKNl_TNhclzWz7DwjnmreC5eGQ3ny9OmbnyQoAA1a8IFhcl6IEUfnYoaRHvQbVGWf59VyZQ1ZYGo7KXwQKfluscVCdih56bFGh0jpbKD4_1DKWtvdx2gQkUQx3Gbv8povRmYHA9CqoWFncZ6PDE4YCQa3kli8YXHdtGehAD_5VAcwpAzfZtlqtR6LQPwQw_CgdKEoEbpxiZZKQmTwcq3ONG_xVDNoITz40w9j6zTaV7U7HCnkhFYoM7NbVUPhZNV56D_0000]--></g></svg>