<?xml version="1.0" encoding="us-ascii" standalone="no"?><svg xmlns="http://www.w3.org/2000/svg" xmlns:xlink="http://www.w3.org/1999/xlink" contentStyleType="text/css" height="379px" preserveAspectRatio="none" style="width:877px;height:379px;background:#FFFFFF;" version="1.1" viewBox="0 0 877 379" width="877px" zoomAndPan="magnify"><defs/><g><text fill="#000000" font-family="sans-serif" font-size="14" font-weight="bold" lengthAdjust="spacing" textLength="112" x="382.25" y="29.9659">Encryption Flow</text><line style="stroke:#181818;stroke-width:0.5;stroke-dasharray:5.0,5.0;" x1="40" x2="40" y1="79.1358" y2="341.3719"/><line style="stroke:#181818;stroke-width:0.5;stroke-dasharray:5.0,5.0;" x1="477" x2="477" y1="79.1358" y2="341.3719"/><rect fill="#FFE4E1" height="33.0679" rx="2.5" ry="2.5" style="stroke:#181818;stroke-width:0.5;" width="71" x="5" y="45.0679"/><text fill="#000000" font-family="sans-serif" font-size="14" lengthAdjust="spacing" textLength="57" x="12" y="67.0339">Platform</text><rect fill="#FFE4E1" height="33.0679" rx="2.5" ry="2.5" style="stroke:#181818;stroke-width:0.5;" width="71" x="5" y="340.3719"/><text fill="#000000" font-family="sans-serif" font-size="14" lengthAdjust="spacing" textLength="57" x="12" y="362.3379">Platform</text><rect fill="#F5FFFA" height="33.0679" rx="2.5" ry="2.5" style="stroke:#181818;stroke-width:0.5;" width="69" x="443" y="45.0679"/><text fill="#000000" font-family="sans-serif" font-size="14" lengthAdjust="spacing" textLength="55" x="450" y="67.0339">Browser</text><rect fill="#F5FFFA" height="33.0679" rx="2.5" ry="2.5" style="stroke:#181818;stroke-width:0.5;" width="69" x="443" y="340.3719"/><text fill="#000000" font-family="sans-serif" font-size="14" lengthAdjust="spacing" textLength="55" x="450" y="362.3379">Browser</text><polygon fill="#181818" points="465.5,108.8419,475.5,112.8419,465.5,116.8419,469.5,112.8419" style="stroke:#181818;stroke-width:1.0;"/><line style="stroke:#181818;stroke-width:1.0;" x1="40.5" x2="471.5" y1="112.8419" y2="112.8419"/><text fill="#000000" font-family="sans-serif" font-size="13" lengthAdjust="spacing" textLength="206" x="47.5" y="107.0328">Request encryption of contacts list</text><line style="stroke:#181818;stroke-width:1.0;stroke-dasharray:2.0,2.0;" x1="477.5" x2="519.5" y1="144.5479" y2="144.5479"/><line style="stroke:#181818;stroke-width:1.0;stroke-dasharray:2.0,2.0;" x1="519.5" x2="519.5" y1="144.5479" y2="157.5479"/><line style="stroke:#181818;stroke-width:1.0;stroke-dasharray:2.0,2.0;" x1="478.5" x2="519.5" y1="157.5479" y2="157.5479"/><polygon fill="#181818" points="488.5,153.5479,478.5,157.5479,488.5,161.5479,484.5,157.5479" style="stroke:#181818;stroke-width:1.0;"/><text fill="#000000" font-family="sans-serif" font-size="13" lengthAdjust="spacing" textLength="194" x="484.5" y="138.7389">Generate initialization vector (IV)</text><line style="stroke:#181818;stroke-width:1.0;stroke-dasharray:2.0,2.0;" x1="477.5" x2="519.5" y1="189.2539" y2="189.2539"/><line style="stroke:#181818;stroke-width:1.0;stroke-dasharray:2.0,2.0;" x1="519.5" x2="519.5" y1="189.2539" y2="202.2539"/><line style="stroke:#181818;stroke-width:1.0;stroke-dasharray:2.0,2.0;" x1="478.5" x2="519.5" y1="202.2539" y2="202.2539"/><polygon fill="#181818" points="488.5,198.2539,478.5,202.2539,488.5,206.2539,484.5,202.2539" style="stroke:#181818;stroke-width:1.0;"/><text fill="#000000" font-family="sans-serif" font-size="13" lengthAdjust="spacing" textLength="149" x="484.5" y="183.4449">Encrypt contacts list with</text><text fill="#000000" font-family="sans-serif" font-size="13" font-weight="bold" lengthAdjust="spacing" textLength="128" x="636.5" y="183.4449">private (symmetric)</text><text fill="#000000" font-family="sans-serif" font-size="13" lengthAdjust="spacing" textLength="21" x="767.5" y="183.4449">key</text><line style="stroke:#181818;stroke-width:1.0;stroke-dasharray:2.0,2.0;" x1="477.5" x2="519.5" y1="233.9599" y2="233.9599"/><line style="stroke:#181818;stroke-width:1.0;stroke-dasharray:2.0,2.0;" x1="519.5" x2="519.5" y1="233.9599" y2="246.9599"/><line style="stroke:#181818;stroke-width:1.0;stroke-dasharray:2.0,2.0;" x1="478.5" x2="519.5" y1="246.9599" y2="246.9599"/><polygon fill="#181818" points="488.5,242.9599,478.5,246.9599,488.5,250.9599,484.5,246.9599" style="stroke:#181818;stroke-width:1.0;"/><text fill="#000000" font-family="sans-serif" font-size="13" lengthAdjust="spacing" textLength="46" x="484.5" y="228.1509">Encrypt</text><text fill="#000000" font-family="sans-serif" font-size="13" font-weight="bold" lengthAdjust="spacing" textLength="128" x="533.5" y="228.1509">private (symmetric)</text><text fill="#000000" font-family="sans-serif" font-size="13" lengthAdjust="spacing" textLength="50" x="664.5" y="228.1509">key with</text><text fill="#000000" font-family="sans-serif" font-size="13" font-weight="bold" lengthAdjust="spacing" textLength="129" x="717.5" y="228.1509">public (asymmetric)</text><text fill="#000000" font-family="sans-serif" font-size="13" lengthAdjust="spacing" textLength="21" x="849.5" y="228.1509">key</text><line style="stroke:#181818;stroke-width:1.0;stroke-dasharray:2.0,2.0;" x1="477.5" x2="519.5" y1="278.6659" y2="278.6659"/><line style="stroke:#181818;stroke-width:1.0;stroke-dasharray:2.0,2.0;" x1="519.5" x2="519.5" y1="278.6659" y2="291.6659"/><line style="stroke:#181818;stroke-width:1.0;stroke-dasharray:2.0,2.0;" x1="478.5" x2="519.5" y1="291.6659" y2="291.6659"/><polygon fill="#181818" points="488.5,287.6659,478.5,291.6659,488.5,295.6659,484.5,291.6659" style="stroke:#181818;stroke-width:1.0;"/><text fill="#000000" font-family="sans-serif" font-size="13" lengthAdjust="spacing" textLength="309" x="484.5" y="272.8569">Encode encrypted contacts list, private key and IV in</text><text fill="#000000" font-family="sans-serif" font-size="13" font-weight="bold" lengthAdjust="spacing" textLength="44" x="796.5" y="272.8569">base64</text><polygon fill="#181818" points="51.5,319.3719,41.5,323.3719,51.5,327.3719,47.5,323.3719" style="stroke:#181818;stroke-width:1.0;"/><line style="stroke:#181818;stroke-width:1.0;stroke-dasharray:2.0,2.0;" x1="45.5" x2="476.5" y1="323.3719" y2="323.3719"/><text fill="#000000" font-family="sans-serif" font-size="13" lengthAdjust="spacing" textLength="413" x="57.5" y="317.5629">JSON { encrypted contacts list, encrypted (symmetric) private key, IV }</text><!--SRC=[ZP31Ji9048Rl-nIJSYaRk14F73ner41G6qou3ziXJjpkbjs1fXhVtTPOQHCXdcV-xvlvXSKI97VEXBeKzWxkhQyIfKeCmePBT099Pb5sFXG9O8Hi1QD7ZbAlVQJ1tatmLQJGZftS1i92gMPxUjrDvh2c_O6Y09s4VWV6Eq4Z4Mp3LQhZJFl91t8KK0ZOiJ1QViVl-96C-03fOZF-E_Zpsr025SihQ5q6FhRGDDP5GHBOZBM6Dweliou4Vyc7hMK3AVwRx7FgUg5yUEu4EbzhG9V3OjCKqMYs6EbgflMmjMmrX-NBynDyd2UU1hqV-fv9A_bKNm00]--></g></svg>