<?xml version="1.0" encoding="us-ascii" standalone="no"?><svg xmlns="http://www.w3.org/2000/svg" xmlns:xlink="http://www.w3.org/1999/xlink" contentStyleType="text/css" height="480px" preserveAspectRatio="none" style="width:750px;height:480px;background:#FFFFFF;" version="1.1" viewBox="0 0 750 480" width="750px" zoomAndPan="magnify"><defs/><g><text fill="#000000" font-family="sans-serif" font-size="14" font-weight="bold" lengthAdjust="spacing" textLength="150" x="299.25" y="29.9659">Keys Generation Flow</text><line style="stroke:#181818;stroke-width:0.5;stroke-dasharray:5.0,5.0;" x1="40" x2="40" y1="79.1358" y2="442.196"/><line style="stroke:#181818;stroke-width:0.5;stroke-dasharray:5.0,5.0;" x1="294" x2="294" y1="79.1358" y2="442.196"/><line style="stroke:#181818;stroke-width:0.5;stroke-dasharray:5.0,5.0;" x1="698.5" x2="698.5" y1="79.1358" y2="442.196"/><rect fill="#FFE4E1" height="33.0679" rx="2.5" ry="2.5" style="stroke:#181818;stroke-width:0.5;" width="71" x="5" y="45.0679"/><text fill="#000000" font-family="sans-serif" font-size="14" lengthAdjust="spacing" textLength="57" x="12" y="67.0339">Platform</text><rect fill="#FFE4E1" height="33.0679" rx="2.5" ry="2.5" style="stroke:#181818;stroke-width:0.5;" width="71" x="5" y="441.196"/><text fill="#000000" font-family="sans-serif" font-size="14" lengthAdjust="spacing" textLength="57" x="12" y="463.1619">Platform</text><rect fill="#F5FFFA" height="33.0679" rx="2.5" ry="2.5" style="stroke:#181818;stroke-width:0.5;" width="69" x="260" y="45.0679"/><text fill="#000000" font-family="sans-serif" font-size="14" lengthAdjust="spacing" textLength="55" x="267" y="67.0339">Browser</text><rect fill="#F5FFFA" height="33.0679" rx="2.5" ry="2.5" style="stroke:#181818;stroke-width:0.5;" width="69" x="260" y="441.196"/><text fill="#000000" font-family="sans-serif" font-size="14" lengthAdjust="spacing" textLength="55" x="267" y="463.1619">Browser</text><rect fill="#FFA500" height="33.0679" rx="2.5" ry="2.5" style="stroke:#181818;stroke-width:0.5;" width="92" x="652.5" y="45.0679"/><text fill="#000000" font-family="sans-serif" font-size="14" lengthAdjust="spacing" textLength="78" x="659.5" y="67.0339">Web Crypto</text><rect fill="#FFA500" height="33.0679" rx="2.5" ry="2.5" style="stroke:#181818;stroke-width:0.5;" width="92" x="652.5" y="441.196"/><text fill="#000000" font-family="sans-serif" font-size="14" lengthAdjust="spacing" textLength="78" x="659.5" y="463.1619">Web Crypto</text><polygon fill="#181818" points="282.5,108.8419,292.5,112.8419,282.5,116.8419,286.5,112.8419" style="stroke:#181818;stroke-width:1.0;"/><line style="stroke:#181818;stroke-width:1.0;" x1="40.5" x2="288.5" y1="112.8419" y2="112.8419"/><text fill="#000000" font-family="sans-serif" font-size="13" lengthAdjust="spacing" textLength="223" x="47.5" y="107.0328">Request generation of symmetric key</text><line style="stroke:#181818;stroke-width:1.0;stroke-dasharray:2.0,2.0;" x1="294.5" x2="336.5" y1="144.5479" y2="144.5479"/><line style="stroke:#181818;stroke-width:1.0;stroke-dasharray:2.0,2.0;" x1="336.5" x2="336.5" y1="144.5479" y2="157.5479"/><line style="stroke:#181818;stroke-width:1.0;stroke-dasharray:2.0,2.0;" x1="295.5" x2="336.5" y1="157.5479" y2="157.5479"/><polygon fill="#181818" points="305.5,153.5479,295.5,157.5479,305.5,161.5479,301.5,157.5479" style="stroke:#181818;stroke-width:1.0;"/><text fill="#000000" font-family="sans-serif" font-size="13" lengthAdjust="spacing" textLength="106" x="301.5" y="138.7389">Generate random</text><text fill="#000000" font-family="sans-serif" font-size="13" font-weight="bold" lengthAdjust="spacing" textLength="80" x="410.5" y="138.7389">AES-GCM 256</text><text fill="#000000" font-family="sans-serif" font-size="13" lengthAdjust="spacing" textLength="57" x="493.5" y="138.7389">key using</text><text fill="#000000" font-family="sans-serif" font-size="13" font-weight="bold" lengthAdjust="spacing" textLength="75" x="553.5" y="138.7389">Web Crypto</text><text fill="#000000" font-family="sans-serif" font-size="13" lengthAdjust="spacing" textLength="20" x="631.5" y="138.7389">API</text><polygon fill="#181818" points="686.5,185.2539,696.5,189.2539,686.5,193.2539,690.5,189.2539" style="stroke:#181818;stroke-width:1.0;"/><line style="stroke:#181818;stroke-width:1.0;" x1="294.5" x2="692.5" y1="189.2539" y2="189.2539"/><text fill="#000000" font-family="sans-serif" font-size="13" font-style="italic" lengthAdjust="spacing" textLength="155" x="301.5" y="183.4449">generateKey(AES-GCM-256)</text><polygon fill="#181818" points="305.5,216.9599,295.5,220.9599,305.5,224.9599,301.5,220.9599" style="stroke:#181818;stroke-width:1.0;"/><line style="stroke:#181818;stroke-width:1.0;stroke-dasharray:2.0,2.0;" x1="299.5" x2="697.5" y1="220.9599" y2="220.9599"/><text fill="#000000" font-family="sans-serif" font-size="13" font-style="italic" lengthAdjust="spacing" textLength="57" x="311.5" y="215.1509">CryptoKey</text><polygon fill="#181818" points="51.5,248.6659,41.5,252.6659,51.5,256.6659,47.5,252.6659" style="stroke:#181818;stroke-width:1.0;"/><line style="stroke:#181818;stroke-width:1.0;stroke-dasharray:2.0,2.0;" x1="45.5" x2="293.5" y1="252.6659" y2="252.6659"/><text fill="#000000" font-family="sans-serif" font-size="13" lengthAdjust="spacing" textLength="87" x="57.5" y="246.8569">Generated key</text><polygon fill="#181818" points="282.5,280.3719,292.5,284.3719,282.5,288.3719,286.5,284.3719" style="stroke:#181818;stroke-width:1.0;"/><line style="stroke:#181818;stroke-width:1.0;" x1="40.5" x2="288.5" y1="284.3719" y2="284.3719"/><text fill="#000000" font-family="sans-serif" font-size="13" lengthAdjust="spacing" textLength="230" x="47.5" y="278.5629">Request generation of asymmetric key</text><line style="stroke:#181818;stroke-width:1.0;stroke-dasharray:2.0,2.0;" x1="294.5" x2="336.5" y1="316.0779" y2="316.0779"/><line style="stroke:#181818;stroke-width:1.0;stroke-dasharray:2.0,2.0;" x1="336.5" x2="336.5" y1="316.0779" y2="329.0779"/><line style="stroke:#181818;stroke-width:1.0;stroke-dasharray:2.0,2.0;" x1="295.5" x2="336.5" y1="329.0779" y2="329.0779"/><polygon fill="#181818" points="305.5,325.0779,295.5,329.0779,305.5,333.0779,301.5,329.0779" style="stroke:#181818;stroke-width:1.0;"/><text fill="#000000" font-family="sans-serif" font-size="13" lengthAdjust="spacing" textLength="106" x="301.5" y="310.2689">Generate random</text><text fill="#000000" font-family="sans-serif" font-size="13" font-weight="bold" lengthAdjust="spacing" textLength="94" x="410.5" y="310.2689">RSA-OAEP 2048</text><text fill="#000000" font-family="sans-serif" font-size="13" lengthAdjust="spacing" textLength="83" x="507.5" y="310.2689">key pair using</text><text fill="#000000" font-family="sans-serif" font-size="13" font-weight="bold" lengthAdjust="spacing" textLength="75" x="593.5" y="310.2689">Web Crypto</text><text fill="#000000" font-family="sans-serif" font-size="13" lengthAdjust="spacing" textLength="20" x="671.5" y="310.2689">API</text><polygon fill="#181818" points="686.5,356.784,696.5,360.784,686.5,364.784,690.5,360.784" style="stroke:#181818;stroke-width:1.0;"/><line style="stroke:#181818;stroke-width:1.0;" x1="294.5" x2="692.5" y1="360.784" y2="360.784"/><text fill="#000000" font-family="sans-serif" font-size="13" font-style="italic" lengthAdjust="spacing" textLength="164" x="301.5" y="354.975">generateKey(RSA-OAEP-2048)</text><polygon fill="#181818" points="305.5,388.49,295.5,392.49,305.5,396.49,301.5,392.49" style="stroke:#181818;stroke-width:1.0;"/><line style="stroke:#181818;stroke-width:1.0;stroke-dasharray:2.0,2.0;" x1="299.5" x2="697.5" y1="392.49" y2="392.49"/><text fill="#000000" font-family="sans-serif" font-size="13" font-style="italic" lengthAdjust="spacing" textLength="79" x="311.5" y="386.681">CryptoKeyPair</text><polygon fill="#181818" points="51.5,420.196,41.5,424.196,51.5,428.196,47.5,424.196" style="stroke:#181818;stroke-width:1.0;"/><line style="stroke:#181818;stroke-width:1.0;stroke-dasharray:2.0,2.0;" x1="45.5" x2="293.5" y1="424.196" y2="424.196"/><text fill="#000000" font-family="sans-serif" font-size="13" lengthAdjust="spacing" textLength="113" x="57.5" y="418.387">Generated key pair</text><!--SRC=[dP31Qi9048Rl-nH3lBI1fKNQKaG2QR1IghZ4W-UjZc5fTZVTNP6yVISn8Ssfudd- -URx9wXG8aIVM7jOea4dWx86tajxZXYhf0jghoff0aIYbE5edOv0UX0hcAoL3tLkFOvoRywUFRfcR4BcKEenPeTVaBcw2hO5xJAOR9mq1J9YygJVdq6EFoVq0Of1onx1rrfZS6eFtrWprb_ZVpUx8WZ4FLWDSPmkjdoPhM7w_1B7pIQSl385JGOT6gJYOo0cv3Q3kKew0QGdtNKWJg3x-ODA6FcFRbF-WgDq6nWfYjLWTxWqkAgrlArslatv9bq8c3u-lNR5AwdShUrx7czu__SNTEgA7xHAlm00]--></g></svg>