<?xml version="1.0" encoding="us-ascii" standalone="no"?><svg xmlns="http://www.w3.org/2000/svg" xmlns:xlink="http://www.w3.org/1999/xlink" contentStyleType="text/css" height="951px" preserveAspectRatio="none" style="width:1521px;height:951px;background:#FFFFFF;" version="1.1" viewBox="0 0 1521 951" width="1521px" zoomAndPan="magnify"><defs/><g><text fill="#000000" font-family="sans-serif" font-size="14" font-weight="bold" lengthAdjust="spacing" textLength="170" x="674.75" y="29.9659">001 - Create contacts list</text><line style="stroke:#181818;stroke-width:0.5;stroke-dasharray:5.0,5.0;" x1="23" x2="23" y1="124.1358" y2="867.6682"/><line style="stroke:#181818;stroke-width:0.5;stroke-dasharray:5.0,5.0;" x1="276" x2="276" y1="124.1358" y2="867.6682"/><line style="stroke:#181818;stroke-width:0.5;stroke-dasharray:5.0,5.0;" x1="695" x2="695" y1="124.1358" y2="867.6682"/><line style="stroke:#181818;stroke-width:0.5;stroke-dasharray:5.0,5.0;" x1="1085" x2="1085" y1="124.1358" y2="867.6682"/><line style="stroke:#181818;stroke-width:0.5;stroke-dasharray:5.0,5.0;" x1="1435.5" x2="1435.5" y1="124.1358" y2="867.6682"/><text fill="#000000" font-family="sans-serif" font-size="14" lengthAdjust="spacing" textLength="31" x="5" y="120.0339">User</text><ellipse cx="23.5" cy="53.5679" fill="#E2E2F0" rx="8" ry="8" style="stroke:#181818;stroke-width:0.5;"/><path d="M23.5,61.5679 L23.5,88.5679 M10.5,69.5679 L36.5,69.5679 M23.5,88.5679 L10.5,103.5679 M23.5,88.5679 L36.5,103.5679 " fill="none" style="stroke:#181818;stroke-width:0.5;"/><text fill="#000000" font-family="sans-serif" font-size="14" lengthAdjust="spacing" textLength="31" x="5" y="881.6341">User</text><ellipse cx="23.5" cy="894.2361" fill="#E2E2F0" rx="8" ry="8" style="stroke:#181818;stroke-width:0.5;"/><path d="M23.5,902.2361 L23.5,929.2361 M10.5,910.2361 L36.5,910.2361 M23.5,929.2361 L10.5,944.2361 M23.5,929.2361 L36.5,944.2361 " fill="none" style="stroke:#181818;stroke-width:0.5;"/><rect fill="#FFE4E1" height="33.0679" rx="2.5" ry="2.5" style="stroke:#181818;stroke-width:0.5;" width="71" x="241" y="90.0679"/><text fill="#000000" font-family="sans-serif" font-size="14" lengthAdjust="spacing" textLength="57" x="248" y="112.0339">Platform</text><rect fill="#FFE4E1" height="33.0679" rx="2.5" ry="2.5" style="stroke:#181818;stroke-width:0.5;" width="71" x="241" y="866.6682"/><text fill="#000000" font-family="sans-serif" font-size="14" lengthAdjust="spacing" textLength="57" x="248" y="888.6341">Platform</text><rect fill="#F5FFFA" height="33.0679" rx="2.5" ry="2.5" style="stroke:#181818;stroke-width:0.5;" width="69" x="661" y="90.0679"/><text fill="#000000" font-family="sans-serif" font-size="14" lengthAdjust="spacing" textLength="55" x="668" y="112.0339">Browser</text><rect fill="#F5FFFA" height="33.0679" rx="2.5" ry="2.5" style="stroke:#181818;stroke-width:0.5;" width="69" x="661" y="866.6682"/><text fill="#000000" font-family="sans-serif" font-size="14" lengthAdjust="spacing" textLength="55" x="668" y="888.6341">Browser</text><rect fill="#DDA0DD" height="33.0679" rx="2.5" ry="2.5" style="stroke:#181818;stroke-width:0.5;" width="163" x="1004" y="90.0679"/><text fill="#000000" font-family="sans-serif" font-size="14" lengthAdjust="spacing" textLength="149" x="1011" y="112.0339">Contacts Manager API</text><rect fill="#DDA0DD" height="33.0679" rx="2.5" ry="2.5" style="stroke:#181818;stroke-width:0.5;" width="163" x="1004" y="866.6682"/><text fill="#000000" font-family="sans-serif" font-size="14" lengthAdjust="spacing" textLength="149" x="1011" y="888.6341">Contacts Manager API</text><rect fill="#DDA0DD" height="33.0679" rx="2.5" ry="2.5" style="stroke:#181818;stroke-width:0.5;" width="160" x="1355.5" y="90.0679"/><text fill="#000000" font-family="sans-serif" font-size="14" lengthAdjust="spacing" textLength="146" x="1362.5" y="112.0339">Contacts Manager DB</text><rect fill="#DDA0DD" height="33.0679" rx="2.5" ry="2.5" style="stroke:#181818;stroke-width:0.5;" width="160" x="1355.5" y="866.6682"/><text fill="#000000" font-family="sans-serif" font-size="14" lengthAdjust="spacing" textLength="146" x="1362.5" y="888.6341">Contacts Manager DB</text><polygon fill="#181818" points="683.5,153.8419,693.5,157.8419,683.5,161.8419,687.5,157.8419" style="stroke:#181818;stroke-width:1.0;"/><line style="stroke:#181818;stroke-width:1.0;" x1="23.5" x2="689.5" y1="157.8419" y2="157.8419"/><text fill="#000000" font-family="sans-serif" font-size="13" lengthAdjust="spacing" textLength="146" x="30.5" y="152.0328">Open platform webpage</text><polygon fill="#181818" points="287.5,185.5479,277.5,189.5479,287.5,193.5479,283.5,189.5479" style="stroke:#181818;stroke-width:1.0;"/><line style="stroke:#181818;stroke-width:1.0;" x1="281.5" x2="694.5" y1="189.5479" y2="189.5479"/><text fill="#000000" font-family="sans-serif" font-size="13" lengthAdjust="spacing" textLength="95" x="293.5" y="183.7389">GET /index.html</text><polygon fill="#181818" points="264.5,217.2539,274.5,221.2539,264.5,225.2539,268.5,221.2539" style="stroke:#181818;stroke-width:1.0;"/><line style="stroke:#181818;stroke-width:1.0;" x1="23.5" x2="270.5" y1="221.2539" y2="221.2539"/><text fill="#000000" font-family="sans-serif" font-size="13" lengthAdjust="spacing" textLength="192" x="30.5" y="215.4449">Clicks create contacts list button</text><polygon fill="#181818" points="683.5,248.9599,693.5,252.9599,683.5,256.9599,687.5,252.9599" style="stroke:#181818;stroke-width:1.0;"/><line style="stroke:#181818;stroke-width:1.0;" x1="276.5" x2="689.5" y1="252.9599" y2="252.9599"/><text fill="#000000" font-family="sans-serif" font-size="13" lengthAdjust="spacing" textLength="198" x="283.5" y="247.1509">Generate private key (symmetric)</text><polygon fill="#181818" points="287.5,280.6659,277.5,284.6659,287.5,288.6659,283.5,284.6659" style="stroke:#181818;stroke-width:1.0;"/><line style="stroke:#181818;stroke-width:1.0;stroke-dasharray:2.0,2.0;" x1="281.5" x2="694.5" y1="284.6659" y2="284.6659"/><text fill="#000000" font-family="sans-serif" font-size="13" lengthAdjust="spacing" textLength="124" x="293.5" y="278.8569">Returns (private) key</text><polygon fill="#181818" points="683.5,312.3719,693.5,316.3719,683.5,320.3719,687.5,316.3719" style="stroke:#181818;stroke-width:1.0;"/><line style="stroke:#181818;stroke-width:1.0;" x1="276.5" x2="689.5" y1="316.3719" y2="316.3719"/><text fill="#000000" font-family="sans-serif" font-size="13" lengthAdjust="spacing" textLength="270" x="283.5" y="310.5629">Generate private and public key (asymmetric)</text><polygon fill="#181818" points="287.5,344.0779,277.5,348.0779,287.5,352.0779,283.5,348.0779" style="stroke:#181818;stroke-width:1.0;"/><line style="stroke:#181818;stroke-width:1.0;stroke-dasharray:2.0,2.0;" x1="281.5" x2="694.5" y1="348.0779" y2="348.0779"/><text fill="#000000" font-family="sans-serif" font-size="13" lengthAdjust="spacing" textLength="166" x="293.5" y="342.2689">Returns (public, private) key</text><polygon fill="#181818" points="34.5,375.784,24.5,379.784,34.5,383.784,30.5,379.784" style="stroke:#181818;stroke-width:1.0;"/><line style="stroke:#181818;stroke-width:1.0;stroke-dasharray:2.0,2.0;" x1="28.5" x2="275.5" y1="379.784" y2="379.784"/><text fill="#000000" font-family="sans-serif" font-size="13" lengthAdjust="spacing" textLength="150" x="40.5" y="373.975">Render contacts list page</text><polygon fill="#181818" points="264.5,407.49,274.5,411.49,264.5,415.49,268.5,411.49" style="stroke:#181818;stroke-width:1.0;"/><line style="stroke:#181818;stroke-width:1.0;" x1="23.5" x2="270.5" y1="411.49" y2="411.49"/><text fill="#000000" font-family="sans-serif" font-size="13" lengthAdjust="spacing" textLength="144" x="30.5" y="405.681">Fills contact information</text><polygon fill="#181818" points="683.5,439.196,693.5,443.196,683.5,447.196,687.5,443.196" style="stroke:#181818;stroke-width:1.0;"/><line style="stroke:#181818;stroke-width:1.0;" x1="276.5" x2="689.5" y1="443.196" y2="443.196"/><text fill="#000000" font-family="sans-serif" font-size="13" lengthAdjust="spacing" textLength="178" x="283.5" y="437.387">Save contact in local database</text><polygon fill="#181818" points="264.5,470.902,274.5,474.902,264.5,478.902,268.5,474.902" style="stroke:#181818;stroke-width:1.0;"/><line style="stroke:#181818;stroke-width:1.0;" x1="23.5" x2="270.5" y1="474.902" y2="474.902"/><text fill="#000000" font-family="sans-serif" font-size="13" lengthAdjust="spacing" textLength="162" x="30.5" y="469.093">Clicks save contacts button</text><polygon fill="#181818" points="683.5,502.608,693.5,506.608,683.5,510.608,687.5,506.608" style="stroke:#181818;stroke-width:1.0;"/><line style="stroke:#181818;stroke-width:1.0;" x1="276.5" x2="689.5" y1="506.608" y2="506.608"/><text fill="#000000" font-family="sans-serif" font-size="13" lengthAdjust="spacing" textLength="322" x="283.5" y="500.799">Encrypt local contacts list with private (symmetric) key</text><polygon fill="#181818" points="683.5,534.314,693.5,538.314,683.5,542.314,687.5,538.314" style="stroke:#181818;stroke-width:1.0;"/><line style="stroke:#181818;stroke-width:1.0;" x1="276.5" x2="689.5" y1="538.314" y2="538.314"/><text fill="#000000" font-family="sans-serif" font-size="13" lengthAdjust="spacing" textLength="362" x="283.5" y="532.505">Encrypt private (symmetric) key with public (asymmetric) key</text><polygon fill="#181818" points="287.5,566.0201,277.5,570.0201,287.5,574.0201,283.5,570.0201" style="stroke:#181818;stroke-width:1.0;"/><line style="stroke:#181818;stroke-width:1.0;stroke-dasharray:2.0,2.0;" x1="281.5" x2="694.5" y1="570.0201" y2="570.0201"/><text fill="#000000" font-family="sans-serif" font-size="13" lengthAdjust="spacing" textLength="395" x="293.5" y="564.2111">JSON { encrypted contacts list, encrypted (symmetric) private key }</text><polygon fill="#181818" points="1073.5,597.7261,1083.5,601.7261,1073.5,605.7261,1077.5,601.7261" style="stroke:#181818;stroke-width:1.0;"/><line style="stroke:#181818;stroke-width:1.0;" x1="276.5" x2="1079.5" y1="601.7261" y2="601.7261"/><text fill="#000000" font-family="sans-serif" font-size="13" lengthAdjust="spacing" textLength="489" x="283.5" y="595.9171">POST /contacts JSON { encrypted contacts list, encrypted (symmetric) private key }</text><line style="stroke:#181818;stroke-width:1.0;stroke-dasharray:2.0,2.0;" x1="1085.5" x2="1127.5" y1="633.4321" y2="633.4321"/><line style="stroke:#181818;stroke-width:1.0;stroke-dasharray:2.0,2.0;" x1="1127.5" x2="1127.5" y1="633.4321" y2="646.4321"/><line style="stroke:#181818;stroke-width:1.0;stroke-dasharray:2.0,2.0;" x1="1086.5" x2="1127.5" y1="646.4321" y2="646.4321"/><polygon fill="#181818" points="1096.5,642.4321,1086.5,646.4321,1096.5,650.4321,1092.5,646.4321" style="stroke:#181818;stroke-width:1.0;"/><text fill="#000000" font-family="sans-serif" font-size="13" lengthAdjust="spacing" textLength="179" x="1092.5" y="627.6231">Generate document reference</text><polygon fill="#181818" points="1423.5,674.1381,1433.5,678.1381,1423.5,682.1381,1427.5,678.1381" style="stroke:#181818;stroke-width:1.0;"/><line style="stroke:#181818;stroke-width:1.0;" x1="1085.5" x2="1429.5" y1="678.1381" y2="678.1381"/><text fill="#000000" font-family="sans-serif" font-size="13" lengthAdjust="spacing" textLength="326" x="1092.5" y="672.3291">Save encrypted contacts list using document reference</text><polygon fill="#181818" points="1096.5,705.8441,1086.5,709.8441,1096.5,713.8441,1092.5,709.8441" style="stroke:#181818;stroke-width:1.0;"/><line style="stroke:#181818;stroke-width:1.0;stroke-dasharray:2.0,2.0;" x1="1090.5" x2="1434.5" y1="709.8441" y2="709.8441"/><text fill="#000000" font-family="sans-serif" font-size="13" lengthAdjust="spacing" textLength="222" x="1102.5" y="704.0351">Saved document hash (commit hash)</text><polygon fill="#181818" points="287.5,737.5501,277.5,741.5501,287.5,745.5501,283.5,741.5501" style="stroke:#181818;stroke-width:1.0;"/><line style="stroke:#181818;stroke-width:1.0;stroke-dasharray:2.0,2.0;" x1="281.5" x2="1084.5" y1="741.5501" y2="741.5501"/><text fill="#000000" font-family="sans-serif" font-size="13" lengthAdjust="spacing" textLength="271" x="293.5" y="735.7411">JSON { document reference, document hash }</text><polygon fill="#181818" points="683.5,769.2562,693.5,773.2562,683.5,777.2562,687.5,773.2562" style="stroke:#181818;stroke-width:1.0;"/><line style="stroke:#181818;stroke-width:1.0;" x1="276.5" x2="689.5" y1="773.2562" y2="773.2562"/><text fill="#000000" font-family="sans-serif" font-size="13" lengthAdjust="spacing" textLength="195" x="283.5" y="767.4472">Save document in local database</text><line style="stroke:#181818;stroke-width:1.0;stroke-dasharray:2.0,2.0;" x1="695.5" x2="737.5" y1="804.9622" y2="804.9622"/><line style="stroke:#181818;stroke-width:1.0;stroke-dasharray:2.0,2.0;" x1="737.5" x2="737.5" y1="804.9622" y2="817.9622"/><line style="stroke:#181818;stroke-width:1.0;stroke-dasharray:2.0,2.0;" x1="696.5" x2="737.5" y1="817.9622" y2="817.9622"/><polygon fill="#181818" points="706.5,813.9622,696.5,817.9622,706.5,821.9622,702.5,817.9622" style="stroke:#181818;stroke-width:1.0;"/><text fill="#000000" font-family="sans-serif" font-size="13" lengthAdjust="spacing" textLength="376" x="702.5" y="799.1532">Save('ref/hash', '{asymmetric: ..., symmetric: ..., contactsList: ...}')</text><polygon fill="#181818" points="34.5,845.6682,24.5,849.6682,34.5,853.6682,30.5,849.6682" style="stroke:#181818;stroke-width:1.0;"/><line style="stroke:#181818;stroke-width:1.0;stroke-dasharray:2.0,2.0;" x1="28.5" x2="275.5" y1="849.6682" y2="849.6682"/><text fill="#000000" font-family="sans-serif" font-size="13" lengthAdjust="spacing" textLength="229" x="40.5" y="843.8592">Render saved contacts list information</text><!--SRC=[hPDFR-8m4CNl-HGZUW2aGBlN72eLsbtjYfO8slFAEDDYrN4YUr8MLNptjVC_WQXxs1CaVlDxuvSP4YGHHZStts06IusC47YYY74o88MXaUVP_uc65uFQIvacmKNA5C4eb8nU4nsFW1a8Lt3rQFN7JMAmerlev61htR4YPn5tCSlAxf4fzcQ5T-7F7BbyUeQhK6PVwUyNbVpt_QAiy5oxCBkjtGDOfwWWBNk60-vIM-rLvrPghn30ZuTdk1OgmZ_pFSMo0OMh09PIy7S3_49EiCk84kLvbjBOMXugr4wTQl7XVj_n21DpZ6CaBVYqQQ3qs21bMXcOb0LJL_4rbga8qcnd6omSs3zPv0K-d5jPvKjkj46RXUxTDK-kaynt8QMfL22KovYHi87q6j-o3spfG2QSIOWOiHqpU35kqoenGpa_AAwFAPMyRhi7GViwg5Rs-NK7E0FoabK4tGuvP_M3_hLTFy4dOC74gDkNtpfesxGdvLHTr4vt0E5wQwUpXlmFl5koMSMlfofAU1QZtJQDhwWj1mlXRRbbvNSSS8RC2FKs074xMXiwIjG8zypiOSAJE1R5mxJkhnNdETVl8KxUnR6hHMTp1vrFrwcQZAtDjSEEVHX_DfyyWFbyxaF_kKfYPOF8Nvt6quihPVAxTuDhByvV]--></g></svg>