<?xml version="1.0" encoding="us-ascii" standalone="no"?><svg xmlns="http://www.w3.org/2000/svg" xmlns:xlink="http://www.w3.org/1999/xlink" contentStyleType="text/css" height="990px" preserveAspectRatio="none" style="width:1224px;height:990px;background:#FFFFFF;" version="1.1" viewBox="0 0 1224 990" width="1224px" zoomAndPan="magnify"><defs/><g><text fill="#000000" font-family="sans-serif" font-size="14" font-weight="bold" lengthAdjust="spacing" textLength="170" x="526.25" y="29.9659">001 - Create contacts list</text><line style="stroke:#181818;stroke-width:0.5;stroke-dasharray:5.0,5.0;" x1="23" x2="23" y1="124.1358" y2="906.6682"/><line style="stroke:#181818;stroke-width:0.5;stroke-dasharray:5.0,5.0;" x1="239" x2="239" y1="124.1358" y2="906.6682"/><line style="stroke:#181818;stroke-width:0.5;stroke-dasharray:5.0,5.0;" x1="575" x2="575" y1="124.1358" y2="906.6682"/><line style="stroke:#181818;stroke-width:0.5;stroke-dasharray:5.0,5.0;" x1="788" x2="788" y1="124.1358" y2="906.6682"/><line style="stroke:#181818;stroke-width:0.5;stroke-dasharray:5.0,5.0;" x1="1138.5" x2="1138.5" y1="124.1358" y2="906.6682"/><text fill="#000000" font-family="sans-serif" font-size="14" lengthAdjust="spacing" textLength="31" x="5" y="120.0339">User</text><ellipse cx="23.5" cy="53.5679" fill="#E2E2F0" rx="8" ry="8" style="stroke:#181818;stroke-width:0.5;"/><path d="M23.5,61.5679 L23.5,88.5679 M10.5,69.5679 L36.5,69.5679 M23.5,88.5679 L10.5,103.5679 M23.5,88.5679 L36.5,103.5679 " fill="none" style="stroke:#181818;stroke-width:0.5;"/><text fill="#000000" font-family="sans-serif" font-size="14" lengthAdjust="spacing" textLength="31" x="5" y="920.6341">User</text><ellipse cx="23.5" cy="933.2361" fill="#E2E2F0" rx="8" ry="8" style="stroke:#181818;stroke-width:0.5;"/><path d="M23.5,941.2361 L23.5,968.2361 M10.5,949.2361 L36.5,949.2361 M23.5,968.2361 L10.5,983.2361 M23.5,968.2361 L36.5,983.2361 " fill="none" style="stroke:#181818;stroke-width:0.5;"/><rect fill="#FFE4E1" height="33.0679" rx="2.5" ry="2.5" style="stroke:#181818;stroke-width:0.5;" width="71" x="204" y="90.0679"/><text fill="#000000" font-family="sans-serif" font-size="14" lengthAdjust="spacing" textLength="57" x="211" y="112.0339">Platform</text><rect fill="#FFE4E1" height="33.0679" rx="2.5" ry="2.5" style="stroke:#181818;stroke-width:0.5;" width="71" x="204" y="905.6682"/><text fill="#000000" font-family="sans-serif" font-size="14" lengthAdjust="spacing" textLength="57" x="211" y="927.6341">Platform</text><rect fill="#F5FFFA" height="33.0679" rx="2.5" ry="2.5" style="stroke:#181818;stroke-width:0.5;" width="69" x="541" y="90.0679"/><text fill="#000000" font-family="sans-serif" font-size="14" lengthAdjust="spacing" textLength="55" x="548" y="112.0339">Browser</text><rect fill="#F5FFFA" height="33.0679" rx="2.5" ry="2.5" style="stroke:#181818;stroke-width:0.5;" width="69" x="541" y="905.6682"/><text fill="#000000" font-family="sans-serif" font-size="14" lengthAdjust="spacing" textLength="55" x="548" y="927.6341">Browser</text><rect fill="#DDA0DD" height="33.0679" rx="2.5" ry="2.5" style="stroke:#181818;stroke-width:0.5;" width="163" x="707" y="90.0679"/><text fill="#000000" font-family="sans-serif" font-size="14" lengthAdjust="spacing" textLength="149" x="714" y="112.0339">Contacts Manager API</text><rect fill="#DDA0DD" height="33.0679" rx="2.5" ry="2.5" style="stroke:#181818;stroke-width:0.5;" width="163" x="707" y="905.6682"/><text fill="#000000" font-family="sans-serif" font-size="14" lengthAdjust="spacing" textLength="149" x="714" y="927.6341">Contacts Manager API</text><rect fill="#DDA0DD" height="33.0679" rx="2.5" ry="2.5" style="stroke:#181818;stroke-width:0.5;" width="160" x="1058.5" y="90.0679"/><text fill="#000000" font-family="sans-serif" font-size="14" lengthAdjust="spacing" textLength="146" x="1065.5" y="112.0339">Contacts Manager DB</text><rect fill="#DDA0DD" height="33.0679" rx="2.5" ry="2.5" style="stroke:#181818;stroke-width:0.5;" width="160" x="1058.5" y="905.6682"/><text fill="#000000" font-family="sans-serif" font-size="14" lengthAdjust="spacing" textLength="146" x="1065.5" y="927.6341">Contacts Manager DB</text><polygon fill="#181818" points="563.5,153.8419,573.5,157.8419,563.5,161.8419,567.5,157.8419" style="stroke:#181818;stroke-width:1.0;"/><line style="stroke:#181818;stroke-width:1.0;" x1="23.5" x2="569.5" y1="157.8419" y2="157.8419"/><text fill="#000000" font-family="sans-serif" font-size="13" lengthAdjust="spacing" textLength="146" x="30.5" y="152.0328">Open platform webpage</text><polygon fill="#181818" points="250.5,185.5479,240.5,189.5479,250.5,193.5479,246.5,189.5479" style="stroke:#181818;stroke-width:1.0;"/><line style="stroke:#181818;stroke-width:1.0;" x1="244.5" x2="574.5" y1="189.5479" y2="189.5479"/><text fill="#000000" font-family="sans-serif" font-size="13" lengthAdjust="spacing" textLength="95" x="256.5" y="183.7389">GET /index.html</text><polygon fill="#181818" points="227.5,217.2539,237.5,221.2539,227.5,225.2539,231.5,221.2539" style="stroke:#181818;stroke-width:1.0;"/><line style="stroke:#181818;stroke-width:1.0;" x1="23.5" x2="233.5" y1="221.2539" y2="221.2539"/><text fill="#000000" font-family="sans-serif" font-size="13" lengthAdjust="spacing" textLength="192" x="30.5" y="215.4449">Clicks create contacts list button</text><polygon fill="#181818" points="563.5,248.9599,573.5,252.9599,563.5,256.9599,567.5,252.9599" style="stroke:#181818;stroke-width:1.0;"/><line style="stroke:#181818;stroke-width:1.0;" x1="239.5" x2="569.5" y1="252.9599" y2="252.9599"/><text fill="#000000" font-family="sans-serif" font-size="13" lengthAdjust="spacing" textLength="189" x="246.5" y="247.1509">Generate private and public key</text><line style="stroke:#181818;stroke-width:1.0;stroke-dasharray:2.0,2.0;" x1="575.5" x2="617.5" y1="284.6659" y2="284.6659"/><line style="stroke:#181818;stroke-width:1.0;stroke-dasharray:2.0,2.0;" x1="617.5" x2="617.5" y1="284.6659" y2="297.6659"/><line style="stroke:#181818;stroke-width:1.0;stroke-dasharray:2.0,2.0;" x1="576.5" x2="617.5" y1="297.6659" y2="297.6659"/><polygon fill="#181818" points="586.5,293.6659,576.5,297.6659,586.5,301.6659,582.5,297.6659" style="stroke:#181818;stroke-width:1.0;"/><text fill="#000000" font-family="sans-serif" font-size="13" lengthAdjust="spacing" textLength="193" x="582.5" y="278.8569">Save public key in local database</text><line style="stroke:#181818;stroke-width:1.0;stroke-dasharray:2.0,2.0;" x1="575.5" x2="617.5" y1="329.3719" y2="329.3719"/><line style="stroke:#181818;stroke-width:1.0;stroke-dasharray:2.0,2.0;" x1="617.5" x2="617.5" y1="329.3719" y2="342.3719"/><line style="stroke:#181818;stroke-width:1.0;stroke-dasharray:2.0,2.0;" x1="576.5" x2="617.5" y1="342.3719" y2="342.3719"/><polygon fill="#181818" points="586.5,338.3719,576.5,342.3719,586.5,346.3719,582.5,342.3719" style="stroke:#181818;stroke-width:1.0;"/><text fill="#000000" font-family="sans-serif" font-size="13" lengthAdjust="spacing" textLength="199" x="582.5" y="323.5629">Save private key in local database</text><line style="stroke:#181818;stroke-width:1.0;stroke-dasharray:2.0,2.0;" x1="575.5" x2="617.5" y1="374.0779" y2="374.0779"/><line style="stroke:#181818;stroke-width:1.0;stroke-dasharray:2.0,2.0;" x1="617.5" x2="617.5" y1="374.0779" y2="387.0779"/><line style="stroke:#181818;stroke-width:1.0;stroke-dasharray:2.0,2.0;" x1="576.5" x2="617.5" y1="387.0779" y2="387.0779"/><polygon fill="#181818" points="586.5,383.0779,576.5,387.0779,586.5,391.0779,582.5,387.0779" style="stroke:#181818;stroke-width:1.0;"/><text fill="#000000" font-family="sans-serif" font-size="13" lengthAdjust="spacing" textLength="130" x="582.5" y="368.2689">Download private key</text><polygon fill="#181818" points="250.5,414.784,240.5,418.784,250.5,422.784,246.5,418.784" style="stroke:#181818;stroke-width:1.0;"/><line style="stroke:#181818;stroke-width:1.0;stroke-dasharray:2.0,2.0;" x1="244.5" x2="574.5" y1="418.784" y2="418.784"/><text fill="#000000" font-family="sans-serif" font-size="13" lengthAdjust="spacing" textLength="110" x="256.5" y="412.975">Returns public key</text><polygon fill="#181818" points="34.5,446.49,24.5,450.49,34.5,454.49,30.5,450.49" style="stroke:#181818;stroke-width:1.0;"/><line style="stroke:#181818;stroke-width:1.0;stroke-dasharray:2.0,2.0;" x1="28.5" x2="238.5" y1="450.49" y2="450.49"/><text fill="#000000" font-family="sans-serif" font-size="13" lengthAdjust="spacing" textLength="150" x="40.5" y="444.681">Render contacts list page</text><polygon fill="#181818" points="227.5,478.196,237.5,482.196,227.5,486.196,231.5,482.196" style="stroke:#181818;stroke-width:1.0;"/><line style="stroke:#181818;stroke-width:1.0;" x1="23.5" x2="233.5" y1="482.196" y2="482.196"/><text fill="#000000" font-family="sans-serif" font-size="13" lengthAdjust="spacing" textLength="144" x="30.5" y="476.387">Fills contact information</text><polygon fill="#181818" points="563.5,509.902,573.5,513.902,563.5,517.902,567.5,513.902" style="stroke:#181818;stroke-width:1.0;"/><line style="stroke:#181818;stroke-width:1.0;" x1="239.5" x2="569.5" y1="513.902" y2="513.902"/><text fill="#000000" font-family="sans-serif" font-size="13" lengthAdjust="spacing" textLength="178" x="246.5" y="508.093">Save contact in local database</text><polygon fill="#181818" points="227.5,541.608,237.5,545.608,227.5,549.608,231.5,545.608" style="stroke:#181818;stroke-width:1.0;"/><line style="stroke:#181818;stroke-width:1.0;" x1="23.5" x2="233.5" y1="545.608" y2="545.608"/><text fill="#000000" font-family="sans-serif" font-size="13" lengthAdjust="spacing" textLength="162" x="30.5" y="539.799">Clicks save contacts button</text><polygon fill="#181818" points="563.5,573.314,573.5,577.314,563.5,581.314,567.5,577.314" style="stroke:#181818;stroke-width:1.0;"/><line style="stroke:#181818;stroke-width:1.0;" x1="239.5" x2="569.5" y1="577.314" y2="577.314"/><text fill="#000000" font-family="sans-serif" font-size="13" lengthAdjust="spacing" textLength="232" x="246.5" y="571.505">Encrypt local database with private key</text><polygon fill="#181818" points="250.5,605.0201,240.5,609.0201,250.5,613.0201,246.5,609.0201" style="stroke:#181818;stroke-width:1.0;"/><line style="stroke:#181818;stroke-width:1.0;stroke-dasharray:2.0,2.0;" x1="244.5" x2="574.5" y1="609.0201" y2="609.0201"/><text fill="#000000" font-family="sans-serif" font-size="13" lengthAdjust="spacing" textLength="185" x="256.5" y="603.2111">JSON { encrypted contacts list }</text><polygon fill="#181818" points="776.5,636.7261,786.5,640.7261,776.5,644.7261,780.5,640.7261" style="stroke:#181818;stroke-width:1.0;"/><line style="stroke:#181818;stroke-width:1.0;" x1="239.5" x2="782.5" y1="640.7261" y2="640.7261"/><text fill="#000000" font-family="sans-serif" font-size="13" lengthAdjust="spacing" textLength="279" x="246.5" y="634.9171">POST /contacts JSON { encrypted contacts list }</text><line style="stroke:#181818;stroke-width:1.0;stroke-dasharray:2.0,2.0;" x1="788.5" x2="830.5" y1="672.4321" y2="672.4321"/><line style="stroke:#181818;stroke-width:1.0;stroke-dasharray:2.0,2.0;" x1="830.5" x2="830.5" y1="672.4321" y2="685.4321"/><line style="stroke:#181818;stroke-width:1.0;stroke-dasharray:2.0,2.0;" x1="789.5" x2="830.5" y1="685.4321" y2="685.4321"/><polygon fill="#181818" points="799.5,681.4321,789.5,685.4321,799.5,689.4321,795.5,685.4321" style="stroke:#181818;stroke-width:1.0;"/><text fill="#000000" font-family="sans-serif" font-size="13" lengthAdjust="spacing" textLength="179" x="795.5" y="666.6231">Generate document reference</text><polygon fill="#181818" points="1126.5,713.1381,1136.5,717.1381,1126.5,721.1381,1130.5,717.1381" style="stroke:#181818;stroke-width:1.0;"/><line style="stroke:#181818;stroke-width:1.0;" x1="788.5" x2="1132.5" y1="717.1381" y2="717.1381"/><text fill="#000000" font-family="sans-serif" font-size="13" lengthAdjust="spacing" textLength="326" x="795.5" y="711.3291">Save encrypted contacts list using document reference</text><polygon fill="#181818" points="799.5,744.8441,789.5,748.8441,799.5,752.8441,795.5,748.8441" style="stroke:#181818;stroke-width:1.0;"/><line style="stroke:#181818;stroke-width:1.0;stroke-dasharray:2.0,2.0;" x1="793.5" x2="1137.5" y1="748.8441" y2="748.8441"/><text fill="#000000" font-family="sans-serif" font-size="13" lengthAdjust="spacing" textLength="222" x="805.5" y="743.0351">Saved document hash (commit hash)</text><polygon fill="#181818" points="250.5,776.5501,240.5,780.5501,250.5,784.5501,246.5,780.5501" style="stroke:#181818;stroke-width:1.0;"/><line style="stroke:#181818;stroke-width:1.0;stroke-dasharray:2.0,2.0;" x1="244.5" x2="787.5" y1="780.5501" y2="780.5501"/><text fill="#000000" font-family="sans-serif" font-size="13" lengthAdjust="spacing" textLength="271" x="256.5" y="774.7411">JSON { document reference, document hash }</text><polygon fill="#181818" points="563.5,808.2562,573.5,812.2562,563.5,816.2562,567.5,812.2562" style="stroke:#181818;stroke-width:1.0;"/><line style="stroke:#181818;stroke-width:1.0;" x1="239.5" x2="569.5" y1="812.2562" y2="812.2562"/><text fill="#000000" font-family="sans-serif" font-size="13" lengthAdjust="spacing" textLength="312" x="246.5" y="806.4472">Save document reference and hash in local database</text><line style="stroke:#181818;stroke-width:1.0;stroke-dasharray:2.0,2.0;" x1="239.5" x2="281.5" y1="843.9622" y2="843.9622"/><line style="stroke:#181818;stroke-width:1.0;stroke-dasharray:2.0,2.0;" x1="281.5" x2="281.5" y1="843.9622" y2="856.9622"/><line style="stroke:#181818;stroke-width:1.0;stroke-dasharray:2.0,2.0;" x1="240.5" x2="281.5" y1="856.9622" y2="856.9622"/><polygon fill="#181818" points="250.5,852.9622,240.5,856.9622,250.5,860.9622,246.5,856.9622" style="stroke:#181818;stroke-width:1.0;"/><text fill="#000000" font-family="sans-serif" font-size="13" lengthAdjust="spacing" textLength="197" x="246.5" y="838.1532">Generate shared contacts list link</text><polygon fill="#181818" points="34.5,884.6682,24.5,888.6682,34.5,892.6682,30.5,888.6682" style="stroke:#181818;stroke-width:1.0;"/><line style="stroke:#181818;stroke-width:1.0;stroke-dasharray:2.0,2.0;" x1="28.5" x2="238.5" y1="888.6682" y2="888.6682"/><text fill="#000000" font-family="sans-serif" font-size="13" lengthAdjust="spacing" textLength="179" x="40.5" y="882.8592">Render saved contacts list link</text><!--SRC=[bLFBRjim4BphAnREfGNgDBtw4A2saw954WjsSYxMr2OYJ942kOfh5Fdtah9UbkG4FKa2vx4pNB5aHJ2vkle6KrXOGYOGHZCATg2auqaK-NTZuScHZNAqB8NCKJDCOeNyR6ms0NGGty75lSSVriRH2MvkpTvpmx7cO96ToYngktlK-EA1t-EVfUJYuH4kObLyX5_EQ_ZlvRnYH65Sc5utxZDOvQGXhsQ6FMrppuxgSm_r4MRmu-OHlagTq9_Bb3FL2iLtCrWeANOEn4XFi2sOZOwyIElgvKYJ3U3SojVmH9r0Ncoz4EpeqDftIHjyfGu8f0Pb12f8a76BZjwZLJx_mLkQlLO6aoxt11cYhuaBgrrtzX3LdpwL8clodTbU9sN39mtUIgLSZV83Xhj0biFYoZ0jhXzax5fSX-BEtCUD5lQGSqyEzfBJT-F_sgmUu2_GaKv9B-XRvUDtS0RnQkDtg05yI0rxFgt9pS8aHXGP-OMtz4pMi-a8lAuMlQhed6pXf7uv8n9-ayOmg2GjC4MNmYTXiamUFputytLw6Ef-wKcyZLxea5V-42LZUCdLWWNVfXQNeXs4LLBlHjVHbU56mFy0]--></g></svg>