<?xml version="1.0" encoding="us-ascii" standalone="no"?><svg xmlns="http://www.w3.org/2000/svg" xmlns:xlink="http://www.w3.org/1999/xlink" contentStyleType="text/css" height="913px" preserveAspectRatio="none" style="width:1050px;height:913px;background:#FFFFFF;" version="1.1" viewBox="0 0 1050 913" width="1050px" zoomAndPan="magnify"><defs/><g><text fill="#000000" font-family="sans-serif" font-size="14" font-weight="bold" lengthAdjust="spacing" textLength="170" x="439.25" y="29.9659">001 - Create contacts list</text><line style="stroke:#181818;stroke-width:0.5;stroke-dasharray:5.0,5.0;" x1="23" x2="23" y1="124.1358" y2="830.2562"/><line style="stroke:#181818;stroke-width:0.5;stroke-dasharray:5.0,5.0;" x1="239" x2="239" y1="124.1358" y2="830.2562"/><line style="stroke:#181818;stroke-width:0.5;stroke-dasharray:5.0,5.0;" x1="495" x2="495" y1="124.1358" y2="830.2562"/><line style="stroke:#181818;stroke-width:0.5;stroke-dasharray:5.0,5.0;" x1="780" x2="780" y1="124.1358" y2="830.2562"/><line style="stroke:#181818;stroke-width:0.5;stroke-dasharray:5.0,5.0;" x1="964.5" x2="964.5" y1="124.1358" y2="830.2562"/><text fill="#000000" font-family="sans-serif" font-size="14" lengthAdjust="spacing" textLength="31" x="5" y="120.0339">User</text><ellipse cx="23.5" cy="53.5679" fill="#E2E2F0" rx="8" ry="8" style="stroke:#181818;stroke-width:0.5;"/><path d="M23.5,61.5679 L23.5,88.5679 M10.5,69.5679 L36.5,69.5679 M23.5,88.5679 L10.5,103.5679 M23.5,88.5679 L36.5,103.5679 " fill="none" style="stroke:#181818;stroke-width:0.5;"/><text fill="#000000" font-family="sans-serif" font-size="14" lengthAdjust="spacing" textLength="31" x="5" y="844.2221">User</text><ellipse cx="23.5" cy="856.8241" fill="#E2E2F0" rx="8" ry="8" style="stroke:#181818;stroke-width:0.5;"/><path d="M23.5,864.8241 L23.5,891.8241 M10.5,872.8241 L36.5,872.8241 M23.5,891.8241 L10.5,906.8241 M23.5,891.8241 L36.5,906.8241 " fill="none" style="stroke:#181818;stroke-width:0.5;"/><rect fill="#FFE4E1" height="33.0679" rx="2.5" ry="2.5" style="stroke:#181818;stroke-width:0.5;" width="71" x="204" y="90.0679"/><text fill="#000000" font-family="sans-serif" font-size="14" lengthAdjust="spacing" textLength="57" x="211" y="112.0339">Platform</text><rect fill="#FFE4E1" height="33.0679" rx="2.5" ry="2.5" style="stroke:#181818;stroke-width:0.5;" width="71" x="204" y="829.2562"/><text fill="#000000" font-family="sans-serif" font-size="14" lengthAdjust="spacing" textLength="57" x="211" y="851.2221">Platform</text><rect fill="#F5FFFA" height="33.0679" rx="2.5" ry="2.5" style="stroke:#181818;stroke-width:0.5;" width="69" x="461" y="90.0679"/><text fill="#000000" font-family="sans-serif" font-size="14" lengthAdjust="spacing" textLength="55" x="468" y="112.0339">Browser</text><rect fill="#F5FFFA" height="33.0679" rx="2.5" ry="2.5" style="stroke:#181818;stroke-width:0.5;" width="69" x="461" y="829.2562"/><text fill="#000000" font-family="sans-serif" font-size="14" lengthAdjust="spacing" textLength="55" x="468" y="851.2221">Browser</text><rect fill="#DDA0DD" height="33.0679" rx="2.5" ry="2.5" style="stroke:#181818;stroke-width:0.5;" width="163" x="699" y="90.0679"/><text fill="#000000" font-family="sans-serif" font-size="14" lengthAdjust="spacing" textLength="149" x="706" y="112.0339">Contacts Manager API</text><rect fill="#DDA0DD" height="33.0679" rx="2.5" ry="2.5" style="stroke:#181818;stroke-width:0.5;" width="163" x="699" y="829.2562"/><text fill="#000000" font-family="sans-serif" font-size="14" lengthAdjust="spacing" textLength="149" x="706" y="851.2221">Contacts Manager API</text><rect fill="#DDA0DD" height="33.0679" rx="2.5" ry="2.5" style="stroke:#181818;stroke-width:0.5;" width="160" x="884.5" y="90.0679"/><text fill="#000000" font-family="sans-serif" font-size="14" lengthAdjust="spacing" textLength="146" x="891.5" y="112.0339">Contacts Manager DB</text><rect fill="#DDA0DD" height="33.0679" rx="2.5" ry="2.5" style="stroke:#181818;stroke-width:0.5;" width="160" x="884.5" y="829.2562"/><text fill="#000000" font-family="sans-serif" font-size="14" lengthAdjust="spacing" textLength="146" x="891.5" y="851.2221">Contacts Manager DB</text><polygon fill="#181818" points="483.5,153.8419,493.5,157.8419,483.5,161.8419,487.5,157.8419" style="stroke:#181818;stroke-width:1.0;"/><line style="stroke:#181818;stroke-width:1.0;" x1="23.5" x2="489.5" y1="157.8419" y2="157.8419"/><text fill="#000000" font-family="sans-serif" font-size="13" lengthAdjust="spacing" textLength="146" x="30.5" y="152.0328">Open platform webpage</text><polygon fill="#181818" points="250.5,185.5479,240.5,189.5479,250.5,193.5479,246.5,189.5479" style="stroke:#181818;stroke-width:1.0;"/><line style="stroke:#181818;stroke-width:1.0;" x1="244.5" x2="494.5" y1="189.5479" y2="189.5479"/><text fill="#000000" font-family="sans-serif" font-size="13" lengthAdjust="spacing" textLength="95" x="256.5" y="183.7389">GET /index.html</text><polygon fill="#181818" points="227.5,217.2539,237.5,221.2539,227.5,225.2539,231.5,221.2539" style="stroke:#181818;stroke-width:1.0;"/><line style="stroke:#181818;stroke-width:1.0;" x1="23.5" x2="233.5" y1="221.2539" y2="221.2539"/><text fill="#000000" font-family="sans-serif" font-size="13" lengthAdjust="spacing" textLength="192" x="30.5" y="215.4449">Clicks create contacts list button</text><polygon fill="#181818" points="483.5,248.9599,493.5,252.9599,483.5,256.9599,487.5,252.9599" style="stroke:#181818;stroke-width:1.0;"/><line style="stroke:#181818;stroke-width:1.0;" x1="239.5" x2="489.5" y1="252.9599" y2="252.9599"/><text fill="#000000" font-family="sans-serif" font-size="13" lengthAdjust="spacing" textLength="189" x="246.5" y="247.1509">Generate private and public key</text><line style="stroke:#181818;stroke-width:1.0;stroke-dasharray:2.0,2.0;" x1="495.5" x2="537.5" y1="284.6659" y2="284.6659"/><line style="stroke:#181818;stroke-width:1.0;stroke-dasharray:2.0,2.0;" x1="537.5" x2="537.5" y1="284.6659" y2="297.6659"/><line style="stroke:#181818;stroke-width:1.0;stroke-dasharray:2.0,2.0;" x1="496.5" x2="537.5" y1="297.6659" y2="297.6659"/><polygon fill="#181818" points="506.5,293.6659,496.5,297.6659,506.5,301.6659,502.5,297.6659" style="stroke:#181818;stroke-width:1.0;"/><text fill="#000000" font-family="sans-serif" font-size="13" lengthAdjust="spacing" textLength="193" x="502.5" y="278.8569">Save public key in local database</text><line style="stroke:#181818;stroke-width:1.0;stroke-dasharray:2.0,2.0;" x1="495.5" x2="537.5" y1="329.3719" y2="329.3719"/><line style="stroke:#181818;stroke-width:1.0;stroke-dasharray:2.0,2.0;" x1="537.5" x2="537.5" y1="329.3719" y2="342.3719"/><line style="stroke:#181818;stroke-width:1.0;stroke-dasharray:2.0,2.0;" x1="496.5" x2="537.5" y1="342.3719" y2="342.3719"/><polygon fill="#181818" points="506.5,338.3719,496.5,342.3719,506.5,346.3719,502.5,342.3719" style="stroke:#181818;stroke-width:1.0;"/><text fill="#000000" font-family="sans-serif" font-size="13" lengthAdjust="spacing" textLength="199" x="502.5" y="323.5629">Save private key in local database</text><line style="stroke:#181818;stroke-width:1.0;stroke-dasharray:2.0,2.0;" x1="495.5" x2="537.5" y1="374.0779" y2="374.0779"/><line style="stroke:#181818;stroke-width:1.0;stroke-dasharray:2.0,2.0;" x1="537.5" x2="537.5" y1="374.0779" y2="387.0779"/><line style="stroke:#181818;stroke-width:1.0;stroke-dasharray:2.0,2.0;" x1="496.5" x2="537.5" y1="387.0779" y2="387.0779"/><polygon fill="#181818" points="506.5,383.0779,496.5,387.0779,506.5,391.0779,502.5,387.0779" style="stroke:#181818;stroke-width:1.0;"/><text fill="#000000" font-family="sans-serif" font-size="13" lengthAdjust="spacing" textLength="130" x="502.5" y="368.2689">Download private key</text><polygon fill="#181818" points="250.5,414.784,240.5,418.784,250.5,422.784,246.5,418.784" style="stroke:#181818;stroke-width:1.0;"/><line style="stroke:#181818;stroke-width:1.0;stroke-dasharray:2.0,2.0;" x1="244.5" x2="494.5" y1="418.784" y2="418.784"/><text fill="#000000" font-family="sans-serif" font-size="13" lengthAdjust="spacing" textLength="110" x="256.5" y="412.975">Returns public key</text><polygon fill="#181818" points="34.5,446.49,24.5,450.49,34.5,454.49,30.5,450.49" style="stroke:#181818;stroke-width:1.0;"/><line style="stroke:#181818;stroke-width:1.0;stroke-dasharray:2.0,2.0;" x1="28.5" x2="238.5" y1="450.49" y2="450.49"/><text fill="#000000" font-family="sans-serif" font-size="13" lengthAdjust="spacing" textLength="150" x="40.5" y="444.681">Render contacts list page</text><polygon fill="#181818" points="227.5,478.196,237.5,482.196,227.5,486.196,231.5,482.196" style="stroke:#181818;stroke-width:1.0;"/><line style="stroke:#181818;stroke-width:1.0;" x1="23.5" x2="233.5" y1="482.196" y2="482.196"/><text fill="#000000" font-family="sans-serif" font-size="13" lengthAdjust="spacing" textLength="144" x="30.5" y="476.387">Fills contact information</text><polygon fill="#181818" points="483.5,509.902,493.5,513.902,483.5,517.902,487.5,513.902" style="stroke:#181818;stroke-width:1.0;"/><line style="stroke:#181818;stroke-width:1.0;" x1="239.5" x2="489.5" y1="513.902" y2="513.902"/><text fill="#000000" font-family="sans-serif" font-size="13" lengthAdjust="spacing" textLength="178" x="246.5" y="508.093">Save contact in local database</text><polygon fill="#181818" points="227.5,541.608,237.5,545.608,227.5,549.608,231.5,545.608" style="stroke:#181818;stroke-width:1.0;"/><line style="stroke:#181818;stroke-width:1.0;" x1="23.5" x2="233.5" y1="545.608" y2="545.608"/><text fill="#000000" font-family="sans-serif" font-size="13" lengthAdjust="spacing" textLength="162" x="30.5" y="539.799">Clicks save contacts button</text><polygon fill="#181818" points="483.5,573.314,493.5,577.314,483.5,581.314,487.5,577.314" style="stroke:#181818;stroke-width:1.0;"/><line style="stroke:#181818;stroke-width:1.0;" x1="239.5" x2="489.5" y1="577.314" y2="577.314"/><text fill="#000000" font-family="sans-serif" font-size="13" lengthAdjust="spacing" textLength="232" x="246.5" y="571.505">Encrypt local database with private key</text><line style="stroke:#181818;stroke-width:1.0;stroke-dasharray:2.0,2.0;" x1="495.5" x2="537.5" y1="609.0201" y2="609.0201"/><line style="stroke:#181818;stroke-width:1.0;stroke-dasharray:2.0,2.0;" x1="537.5" x2="537.5" y1="609.0201" y2="622.0201"/><line style="stroke:#181818;stroke-width:1.0;stroke-dasharray:2.0,2.0;" x1="496.5" x2="537.5" y1="622.0201" y2="622.0201"/><polygon fill="#181818" points="506.5,618.0201,496.5,622.0201,506.5,626.0201,502.5,622.0201" style="stroke:#181818;stroke-width:1.0;"/><text fill="#000000" font-family="sans-serif" font-size="13" lengthAdjust="spacing" textLength="271" x="502.5" y="603.2111">Generate document reference with public key</text><polygon fill="#181818" points="250.5,649.7261,240.5,653.7261,250.5,657.7261,246.5,653.7261" style="stroke:#181818;stroke-width:1.0;"/><line style="stroke:#181818;stroke-width:1.0;stroke-dasharray:2.0,2.0;" x1="244.5" x2="494.5" y1="653.7261" y2="653.7261"/><text fill="#000000" font-family="sans-serif" font-size="13" lengthAdjust="spacing" textLength="185" x="256.5" y="647.9171">JSON { encrypted contacts list }</text><polygon fill="#181818" points="768.5,681.4321,778.5,685.4321,768.5,689.4321,772.5,685.4321" style="stroke:#181818;stroke-width:1.0;"/><line style="stroke:#181818;stroke-width:1.0;" x1="239.5" x2="774.5" y1="685.4321" y2="685.4321"/><text fill="#000000" font-family="sans-serif" font-size="13" lengthAdjust="spacing" textLength="279" x="246.5" y="679.6231">POST /contacts JSON { encrypted contacts list }</text><polygon fill="#181818" points="952.5,713.1381,962.5,717.1381,952.5,721.1381,956.5,717.1381" style="stroke:#181818;stroke-width:1.0;"/><line style="stroke:#181818;stroke-width:1.0;" x1="780.5" x2="958.5" y1="717.1381" y2="717.1381"/><text fill="#000000" font-family="sans-serif" font-size="13" lengthAdjust="spacing" textLength="62" x="787.5" y="711.3291">Save JSON</text><polygon fill="#181818" points="791.5,744.8441,781.5,748.8441,791.5,752.8441,787.5,748.8441" style="stroke:#181818;stroke-width:1.0;"/><line style="stroke:#181818;stroke-width:1.0;stroke-dasharray:2.0,2.0;" x1="785.5" x2="963.5" y1="748.8441" y2="748.8441"/><text fill="#000000" font-family="sans-serif" font-size="13" lengthAdjust="spacing" textLength="160" x="797.5" y="743.0351">Saved document reference</text><polygon fill="#181818" points="250.5,776.5501,240.5,780.5501,250.5,784.5501,246.5,780.5501" style="stroke:#181818;stroke-width:1.0;"/><line style="stroke:#181818;stroke-width:1.0;stroke-dasharray:2.0,2.0;" x1="244.5" x2="779.5" y1="780.5501" y2="780.5501"/><text fill="#000000" font-family="sans-serif" font-size="13" lengthAdjust="spacing" textLength="171" x="256.5" y="774.7411">JSON { document reference }</text><polygon fill="#181818" points="34.5,808.2562,24.5,812.2562,34.5,816.2562,30.5,812.2562" style="stroke:#181818;stroke-width:1.0;"/><line style="stroke:#181818;stroke-width:1.0;stroke-dasharray:2.0,2.0;" x1="28.5" x2="238.5" y1="812.2562" y2="812.2562"/><text fill="#000000" font-family="sans-serif" font-size="13" lengthAdjust="spacing" textLength="179" x="40.5" y="806.4472">Render saved contacts list link</text><!--SRC=[bLDDJy904BttLqpWZEALWubyQ3Ge3UZPRBU3R5XsczsfI8p_tTdIGWjLuwbDvhqtRzxCaYADqEdthw078uU24AGr92HvqCfJ9uhutpfuyUYYJ3XIKcN247HYBMXftQO3maCyXUuZutTpwx616pgxPMue6mejDasPKTNkKHZnni2R-BwG73qzGpVM-L_uyR22luw79ICATg5tVUW-W5c61hBICsmnoPWTLNM6yWW3k9iymwKoANvSh6YZZqBnT00ZhUJQWsp92PASo9g8HOvTMGuDkW3Ed7eFNs5IoFA4XM2DksFxEcaXth460cL0Moaqf8948Zp-HYlx_8CtjbkZhKZht0OoZ3v7oftnTUzXLAw-529pvCpSIIP5meq4RvNMlaAnmR0BGUeyk6AO8-vqaBQr-1h5_x2FYP5kbz6976mLhNuS_toPgPNv1laO7IxHeP6LGljYWyU7nUm9FW7t_J4zIUghDCf7F81ujk0ZF03-f8Q7ikVo0oYZ2wIeV1AzIZXKqXRtUuMcqvOPlrfNxWlHfYUjp3hw1W00]--></g></svg>