<?xml version="1.0" encoding="UTF-8" standalone="no"?><svg xmlns="http://www.w3.org/2000/svg" xmlns:xlink="http://www.w3.org/1999/xlink" contentStyleType="text/css" height="900px" preserveAspectRatio="none" style="width:1261px;height:900px;background:#FFFFFF;" version="1.1" viewBox="0 0 1261 900" width="1261px" zoomAndPan="magnify"><defs/><g><rect fill="none" height="29.0679" id="_title" style="stroke:none;stroke-width:1.0;" width="180" x="539.75" y="10"/><text fill="#000000" font-family="sans-serif" font-size="14" font-weight="bold" lengthAdjust="spacing" textLength="170" x="544.75" y="29.9659">001 - Create contacts list</text><line style="stroke:#181818;stroke-width:0.5;stroke-dasharray:5.0,5.0;" x1="23" x2="23" y1="124.1358" y2="817.2562"/><line style="stroke:#181818;stroke-width:0.5;stroke-dasharray:5.0,5.0;" x1="276" x2="276" y1="124.1358" y2="817.2562"/><line style="stroke:#181818;stroke-width:0.5;stroke-dasharray:5.0,5.0;" x1="612" x2="612" y1="124.1358" y2="817.2562"/><line style="stroke:#181818;stroke-width:0.5;stroke-dasharray:5.0,5.0;" x1="825" x2="825" y1="124.1358" y2="817.2562"/><line style="stroke:#181818;stroke-width:0.5;stroke-dasharray:5.0,5.0;" x1="1175.5" x2="1175.5" y1="124.1358" y2="817.2562"/><text fill="#000000" font-family="sans-serif" font-size="14" lengthAdjust="spacing" textLength="31" x="5" y="120.0339">User</text><ellipse cx="23.5" cy="53.5679" fill="#E2E2F0" rx="8" ry="8" style="stroke:#181818;stroke-width:0.5;"/><path d="M23.5,61.5679 L23.5,88.5679 M10.5,69.5679 L36.5,69.5679 M23.5,88.5679 L10.5,103.5679 M23.5,88.5679 L36.5,103.5679 " fill="none" style="stroke:#181818;stroke-width:0.5;"/><text fill="#000000" font-family="sans-serif" font-size="14" lengthAdjust="spacing" textLength="31" x="5" y="831.2221">User</text><ellipse cx="23.5" cy="843.8241" fill="#E2E2F0" rx="8" ry="8" style="stroke:#181818;stroke-width:0.5;"/><path d="M23.5,851.8241 L23.5,878.8241 M10.5,859.8241 L36.5,859.8241 M23.5,878.8241 L10.5,893.8241 M23.5,878.8241 L36.5,893.8241 " fill="none" style="stroke:#181818;stroke-width:0.5;"/><rect fill="#FFE4E1" height="33.0679" rx="2.5" ry="2.5" style="stroke:#181818;stroke-width:0.5;" width="71" x="241" y="90.0679"/><text fill="#000000" font-family="sans-serif" font-size="14" lengthAdjust="spacing" textLength="57" x="248" y="112.0339">Platform</text><rect fill="#FFE4E1" height="33.0679" rx="2.5" ry="2.5" style="stroke:#181818;stroke-width:0.5;" width="71" x="241" y="816.2562"/><text fill="#000000" font-family="sans-serif" font-size="14" lengthAdjust="spacing" textLength="57" x="248" y="838.2221">Platform</text><rect fill="#F5FFFA" height="33.0679" rx="2.5" ry="2.5" style="stroke:#181818;stroke-width:0.5;" width="69" x="578" y="90.0679"/><text fill="#000000" font-family="sans-serif" font-size="14" lengthAdjust="spacing" textLength="55" x="585" y="112.0339">Browser</text><rect fill="#F5FFFA" height="33.0679" rx="2.5" ry="2.5" style="stroke:#181818;stroke-width:0.5;" width="69" x="578" y="816.2562"/><text fill="#000000" font-family="sans-serif" font-size="14" lengthAdjust="spacing" textLength="55" x="585" y="838.2221">Browser</text><rect fill="#DDA0DD" height="33.0679" rx="2.5" ry="2.5" style="stroke:#181818;stroke-width:0.5;" width="163" x="744" y="90.0679"/><text fill="#000000" font-family="sans-serif" font-size="14" lengthAdjust="spacing" textLength="149" x="751" y="112.0339">Contacts Manager API</text><rect fill="#DDA0DD" height="33.0679" rx="2.5" ry="2.5" style="stroke:#181818;stroke-width:0.5;" width="163" x="744" y="816.2562"/><text fill="#000000" font-family="sans-serif" font-size="14" lengthAdjust="spacing" textLength="149" x="751" y="838.2221">Contacts Manager API</text><rect fill="#DDA0DD" height="33.0679" rx="2.5" ry="2.5" style="stroke:#181818;stroke-width:0.5;" width="160" x="1095.5" y="90.0679"/><text fill="#000000" font-family="sans-serif" font-size="14" lengthAdjust="spacing" textLength="146" x="1102.5" y="112.0339">Contacts Manager DB</text><rect fill="#DDA0DD" height="33.0679" rx="2.5" ry="2.5" style="stroke:#181818;stroke-width:0.5;" width="160" x="1095.5" y="816.2562"/><text fill="#000000" font-family="sans-serif" font-size="14" lengthAdjust="spacing" textLength="146" x="1102.5" y="838.2221">Contacts Manager DB</text><polygon fill="#181818" points="600.5,153.8419,610.5,157.8419,600.5,161.8419,604.5,157.8419" style="stroke:#181818;stroke-width:1.0;"/><line style="stroke:#181818;stroke-width:1.0;" x1="23.5" x2="606.5" y1="157.8419" y2="157.8419"/><text fill="#000000" font-family="sans-serif" font-size="13" lengthAdjust="spacing" textLength="146" x="30.5" y="152.0328">Open platform webpage</text><polygon fill="#181818" points="287.5,185.5479,277.5,189.5479,287.5,193.5479,283.5,189.5479" style="stroke:#181818;stroke-width:1.0;"/><line style="stroke:#181818;stroke-width:1.0;" x1="281.5" x2="611.5" y1="189.5479" y2="189.5479"/><text fill="#000000" font-family="sans-serif" font-size="13" lengthAdjust="spacing" textLength="95" x="293.5" y="183.7389">GET /index.html</text><polygon fill="#181818" points="264.5,217.2539,274.5,221.2539,264.5,225.2539,268.5,221.2539" style="stroke:#181818;stroke-width:1.0;"/><line style="stroke:#181818;stroke-width:1.0;" x1="23.5" x2="270.5" y1="221.2539" y2="221.2539"/><text fill="#000000" font-family="sans-serif" font-size="13" lengthAdjust="spacing" textLength="192" x="30.5" y="215.4449">Clicks create contacts list button</text><polygon fill="#181818" points="600.5,248.9599,610.5,252.9599,600.5,256.9599,604.5,252.9599" style="stroke:#181818;stroke-width:1.0;"/><line style="stroke:#181818;stroke-width:1.0;" x1="276.5" x2="606.5" y1="252.9599" y2="252.9599"/><text fill="#000000" font-family="sans-serif" font-size="13" lengthAdjust="spacing" textLength="189" x="283.5" y="247.1509">Generate private and public key</text><line style="stroke:#181818;stroke-width:1.0;stroke-dasharray:2.0,2.0;" x1="612.5" x2="654.5" y1="284.6659" y2="284.6659"/><line style="stroke:#181818;stroke-width:1.0;stroke-dasharray:2.0,2.0;" x1="654.5" x2="654.5" y1="284.6659" y2="297.6659"/><line style="stroke:#181818;stroke-width:1.0;stroke-dasharray:2.0,2.0;" x1="613.5" x2="654.5" y1="297.6659" y2="297.6659"/><polygon fill="#181818" points="623.5,293.6659,613.5,297.6659,623.5,301.6659,619.5,297.6659" style="stroke:#181818;stroke-width:1.0;"/><text fill="#000000" font-family="sans-serif" font-size="13" lengthAdjust="spacing" textLength="193" x="619.5" y="278.8569">Save public key in local database</text><line style="stroke:#181818;stroke-width:1.0;stroke-dasharray:2.0,2.0;" x1="612.5" x2="654.5" y1="329.3719" y2="329.3719"/><line style="stroke:#181818;stroke-width:1.0;stroke-dasharray:2.0,2.0;" x1="654.5" x2="654.5" y1="329.3719" y2="342.3719"/><line style="stroke:#181818;stroke-width:1.0;stroke-dasharray:2.0,2.0;" x1="613.5" x2="654.5" y1="342.3719" y2="342.3719"/><polygon fill="#181818" points="623.5,338.3719,613.5,342.3719,623.5,346.3719,619.5,342.3719" style="stroke:#181818;stroke-width:1.0;"/><text fill="#000000" font-family="sans-serif" font-size="13" lengthAdjust="spacing" textLength="199" x="619.5" y="323.5629">Save private key in local database</text><polygon fill="#181818" points="287.5,370.0779,277.5,374.0779,287.5,378.0779,283.5,374.0779" style="stroke:#181818;stroke-width:1.0;"/><line style="stroke:#181818;stroke-width:1.0;stroke-dasharray:2.0,2.0;" x1="281.5" x2="611.5" y1="374.0779" y2="374.0779"/><text fill="#000000" font-family="sans-serif" font-size="13" lengthAdjust="spacing" textLength="166" x="293.5" y="368.2689">Returns (public, private) key</text><polygon fill="#181818" points="34.5,401.784,24.5,405.784,34.5,409.784,30.5,405.784" style="stroke:#181818;stroke-width:1.0;"/><line style="stroke:#181818;stroke-width:1.0;stroke-dasharray:2.0,2.0;" x1="28.5" x2="275.5" y1="405.784" y2="405.784"/><text fill="#000000" font-family="sans-serif" font-size="13" lengthAdjust="spacing" textLength="150" x="40.5" y="399.975">Render contacts list page</text><polygon fill="#181818" points="264.5,433.49,274.5,437.49,264.5,441.49,268.5,437.49" style="stroke:#181818;stroke-width:1.0;"/><line style="stroke:#181818;stroke-width:1.0;" x1="23.5" x2="270.5" y1="437.49" y2="437.49"/><text fill="#000000" font-family="sans-serif" font-size="13" lengthAdjust="spacing" textLength="144" x="30.5" y="431.681">Fills contact information</text><polygon fill="#181818" points="600.5,465.196,610.5,469.196,600.5,473.196,604.5,469.196" style="stroke:#181818;stroke-width:1.0;"/><line style="stroke:#181818;stroke-width:1.0;" x1="276.5" x2="606.5" y1="469.196" y2="469.196"/><text fill="#000000" font-family="sans-serif" font-size="13" lengthAdjust="spacing" textLength="178" x="283.5" y="463.387">Save contact in local database</text><polygon fill="#181818" points="264.5,496.902,274.5,500.902,264.5,504.902,268.5,500.902" style="stroke:#181818;stroke-width:1.0;"/><line style="stroke:#181818;stroke-width:1.0;" x1="23.5" x2="270.5" y1="500.902" y2="500.902"/><text fill="#000000" font-family="sans-serif" font-size="13" lengthAdjust="spacing" textLength="162" x="30.5" y="495.093">Clicks save contacts button</text><polygon fill="#181818" points="600.5,528.608,610.5,532.608,600.5,536.608,604.5,532.608" style="stroke:#181818;stroke-width:1.0;"/><line style="stroke:#181818;stroke-width:1.0;" x1="276.5" x2="606.5" y1="532.608" y2="532.608"/><text fill="#000000" font-family="sans-serif" font-size="13" lengthAdjust="spacing" textLength="226" x="283.5" y="526.799">Encrypt local database with public key</text><polygon fill="#181818" points="287.5,560.314,277.5,564.314,287.5,568.314,283.5,564.314" style="stroke:#181818;stroke-width:1.0;"/><line style="stroke:#181818;stroke-width:1.0;stroke-dasharray:2.0,2.0;" x1="281.5" x2="611.5" y1="564.314" y2="564.314"/><text fill="#000000" font-family="sans-serif" font-size="13" lengthAdjust="spacing" textLength="185" x="293.5" y="558.505">JSON { encrypted contacts list }</text><polygon fill="#181818" points="813.5,592.0201,823.5,596.0201,813.5,600.0201,817.5,596.0201" style="stroke:#181818;stroke-width:1.0;"/><line style="stroke:#181818;stroke-width:1.0;" x1="276.5" x2="819.5" y1="596.0201" y2="596.0201"/><text fill="#000000" font-family="sans-serif" font-size="13" lengthAdjust="spacing" textLength="279" x="283.5" y="590.2111">POST /contacts JSON { encrypted contacts list }</text><line style="stroke:#181818;stroke-width:1.0;stroke-dasharray:2.0,2.0;" x1="825.5" x2="867.5" y1="627.7261" y2="627.7261"/><line style="stroke:#181818;stroke-width:1.0;stroke-dasharray:2.0,2.0;" x1="867.5" x2="867.5" y1="627.7261" y2="640.7261"/><line style="stroke:#181818;stroke-width:1.0;stroke-dasharray:2.0,2.0;" x1="826.5" x2="867.5" y1="640.7261" y2="640.7261"/><polygon fill="#181818" points="836.5,636.7261,826.5,640.7261,836.5,644.7261,832.5,640.7261" style="stroke:#181818;stroke-width:1.0;"/><text fill="#000000" font-family="sans-serif" font-size="13" lengthAdjust="spacing" textLength="179" x="832.5" y="621.9171">Generate document reference</text><polygon fill="#181818" points="1163.5,668.4321,1173.5,672.4321,1163.5,676.4321,1167.5,672.4321" style="stroke:#181818;stroke-width:1.0;"/><line style="stroke:#181818;stroke-width:1.0;" x1="825.5" x2="1169.5" y1="672.4321" y2="672.4321"/><text fill="#000000" font-family="sans-serif" font-size="13" lengthAdjust="spacing" textLength="326" x="832.5" y="666.6231">Save encrypted contacts list using document reference</text><polygon fill="#181818" points="836.5,700.1381,826.5,704.1381,836.5,708.1381,832.5,704.1381" style="stroke:#181818;stroke-width:1.0;"/><line style="stroke:#181818;stroke-width:1.0;stroke-dasharray:2.0,2.0;" x1="830.5" x2="1174.5" y1="704.1381" y2="704.1381"/><text fill="#000000" font-family="sans-serif" font-size="13" lengthAdjust="spacing" textLength="222" x="842.5" y="698.3291">Saved document hash (commit hash)</text><polygon fill="#181818" points="287.5,731.8441,277.5,735.8441,287.5,739.8441,283.5,735.8441" style="stroke:#181818;stroke-width:1.0;"/><line style="stroke:#181818;stroke-width:1.0;stroke-dasharray:2.0,2.0;" x1="281.5" x2="824.5" y1="735.8441" y2="735.8441"/><text fill="#000000" font-family="sans-serif" font-size="13" lengthAdjust="spacing" textLength="271" x="293.5" y="730.0351">JSON { document reference, document hash }</text><polygon fill="#181818" points="600.5,763.5501,610.5,767.5501,600.5,771.5501,604.5,767.5501" style="stroke:#181818;stroke-width:1.0;"/><line style="stroke:#181818;stroke-width:1.0;" x1="276.5" x2="606.5" y1="767.5501" y2="767.5501"/><text fill="#000000" font-family="sans-serif" font-size="13" lengthAdjust="spacing" textLength="312" x="283.5" y="761.7411">Save document reference and hash in local database</text><polygon fill="#181818" points="34.5,795.2562,24.5,799.2562,34.5,803.2562,30.5,799.2562" style="stroke:#181818;stroke-width:1.0;"/><line style="stroke:#181818;stroke-width:1.0;stroke-dasharray:2.0,2.0;" x1="28.5" x2="275.5" y1="799.2562" y2="799.2562"/><text fill="#000000" font-family="sans-serif" font-size="13" lengthAdjust="spacing" textLength="229" x="40.5" y="793.4472">Render saved contacts list information</text><!--MD5=[a162a6ff43b4581298d8c96ddf2f64b5]
@startuml 001-create-contacts-list

title "001 - Create contacts list"

actor User
participant "Platform" as PL #MistyRose
participant Browser #MintCream
participant "Contacts Manager API" as CNT #Plum
participant "Contacts Manager DB" as CNT_DB #Plum

User -> Browser : Open platform webpage
Browser -> PL : GET /index.html

User -> PL: Clicks create contacts list button
PL -> Browser: Generate private and public key
Browser - -> Browser: Save public key in local database
Browser - -> Browser: Save private key in local database
Browser - -> PL: Returns (public, private) key
PL - -> User: Render contacts list page

User -> PL: Fills contact information
PL -> Browser: Save contact in local database

User -> PL: Clicks save contacts button
PL -> Browser: Encrypt local database with public key
Browser - -> PL: JSON { encrypted contacts list }
PL -> CNT: POST /contacts JSON { encrypted contacts list }
CNT - -> CNT: Generate document reference
CNT -> CNT_DB: Save encrypted contacts list using document reference
CNT_DB - -> CNT: Saved document hash (commit hash)
CNT - -> PL: JSON { document reference, document hash }
PL -> Browser: Save document reference and hash in local database
PL - -> User: Render saved contacts list information

@enduml

PlantUML version 1.2022.7(Mon Aug 22 18:01:30 WEST 2022)
(GPL source distribution)
Java Runtime: OpenJDK Runtime Environment
JVM: OpenJDK 64-Bit Server VM
Default Encoding: ANSI_X3.4-1968
Language: en
Country: US
--></g></svg>