<?xml version="1.0" encoding="UTF-8" standalone="no"?><svg xmlns="http://www.w3.org/2000/svg" xmlns:xlink="http://www.w3.org/1999/xlink" contentStyleType="text/css" height="1040px" preserveAspectRatio="none" style="width:1344px;height:1040px;background:#FFFFFF;" version="1.1" viewBox="0 0 1344 1040" width="1344px" zoomAndPan="magnify"><defs/><g><rect fill="none" height="29.0679" id="_title" style="stroke:none;stroke-width:1.0;" width="180" x="581.25" y="10"/><text fill="#000000" font-family="sans-serif" font-size="14" font-weight="bold" lengthAdjust="spacing" textLength="170" x="586.25" y="29.9659">001 - Create contacts list</text><line style="stroke:#181818;stroke-width:0.5;stroke-dasharray:5.0,5.0;" x1="23" x2="23" y1="124.1358" y2="957.0802"/><line style="stroke:#181818;stroke-width:0.5;stroke-dasharray:5.0,5.0;" x1="276" x2="276" y1="124.1358" y2="957.0802"/><line style="stroke:#181818;stroke-width:0.5;stroke-dasharray:5.0,5.0;" x1="695" x2="695" y1="124.1358" y2="957.0802"/><line style="stroke:#181818;stroke-width:0.5;stroke-dasharray:5.0,5.0;" x1="908" x2="908" y1="124.1358" y2="957.0802"/><line style="stroke:#181818;stroke-width:0.5;stroke-dasharray:5.0,5.0;" x1="1258.5" x2="1258.5" y1="124.1358" y2="957.0802"/><text fill="#000000" font-family="sans-serif" font-size="14" lengthAdjust="spacing" textLength="31" x="5" y="120.0339">User</text><ellipse cx="23.5" cy="53.5679" fill="#E2E2F0" rx="8" ry="8" style="stroke:#181818;stroke-width:0.5;"/><path d="M23.5,61.5679 L23.5,88.5679 M10.5,69.5679 L36.5,69.5679 M23.5,88.5679 L10.5,103.5679 M23.5,88.5679 L36.5,103.5679 " fill="none" style="stroke:#181818;stroke-width:0.5;"/><text fill="#000000" font-family="sans-serif" font-size="14" lengthAdjust="spacing" textLength="31" x="5" y="971.0462">User</text><ellipse cx="23.5" cy="983.6481" fill="#E2E2F0" rx="8" ry="8" style="stroke:#181818;stroke-width:0.5;"/><path d="M23.5,991.6481 L23.5,1018.6481 M10.5,999.6481 L36.5,999.6481 M23.5,1018.6481 L10.5,1033.6481 M23.5,1018.6481 L36.5,1033.6481 " fill="none" style="stroke:#181818;stroke-width:0.5;"/><rect fill="#FFE4E1" height="33.0679" rx="2.5" ry="2.5" style="stroke:#181818;stroke-width:0.5;" width="71" x="241" y="90.0679"/><text fill="#000000" font-family="sans-serif" font-size="14" lengthAdjust="spacing" textLength="57" x="248" y="112.0339">Platform</text><rect fill="#FFE4E1" height="33.0679" rx="2.5" ry="2.5" style="stroke:#181818;stroke-width:0.5;" width="71" x="241" y="956.0802"/><text fill="#000000" font-family="sans-serif" font-size="14" lengthAdjust="spacing" textLength="57" x="248" y="978.0462">Platform</text><rect fill="#F5FFFA" height="33.0679" rx="2.5" ry="2.5" style="stroke:#181818;stroke-width:0.5;" width="69" x="661" y="90.0679"/><text fill="#000000" font-family="sans-serif" font-size="14" lengthAdjust="spacing" textLength="55" x="668" y="112.0339">Browser</text><rect fill="#F5FFFA" height="33.0679" rx="2.5" ry="2.5" style="stroke:#181818;stroke-width:0.5;" width="69" x="661" y="956.0802"/><text fill="#000000" font-family="sans-serif" font-size="14" lengthAdjust="spacing" textLength="55" x="668" y="978.0462">Browser</text><rect fill="#DDA0DD" height="33.0679" rx="2.5" ry="2.5" style="stroke:#181818;stroke-width:0.5;" width="163" x="827" y="90.0679"/><text fill="#000000" font-family="sans-serif" font-size="14" lengthAdjust="spacing" textLength="149" x="834" y="112.0339">Contacts Manager API</text><rect fill="#DDA0DD" height="33.0679" rx="2.5" ry="2.5" style="stroke:#181818;stroke-width:0.5;" width="163" x="827" y="956.0802"/><text fill="#000000" font-family="sans-serif" font-size="14" lengthAdjust="spacing" textLength="149" x="834" y="978.0462">Contacts Manager API</text><rect fill="#DDA0DD" height="33.0679" rx="2.5" ry="2.5" style="stroke:#181818;stroke-width:0.5;" width="160" x="1178.5" y="90.0679"/><text fill="#000000" font-family="sans-serif" font-size="14" lengthAdjust="spacing" textLength="146" x="1185.5" y="112.0339">Contacts Manager DB</text><rect fill="#DDA0DD" height="33.0679" rx="2.5" ry="2.5" style="stroke:#181818;stroke-width:0.5;" width="160" x="1178.5" y="956.0802"/><text fill="#000000" font-family="sans-serif" font-size="14" lengthAdjust="spacing" textLength="146" x="1185.5" y="978.0462">Contacts Manager DB</text><polygon fill="#181818" points="683.5,153.8419,693.5,157.8419,683.5,161.8419,687.5,157.8419" style="stroke:#181818;stroke-width:1.0;"/><line style="stroke:#181818;stroke-width:1.0;" x1="23.5" x2="689.5" y1="157.8419" y2="157.8419"/><text fill="#000000" font-family="sans-serif" font-size="13" lengthAdjust="spacing" textLength="146" x="30.5" y="152.0328">Open platform webpage</text><polygon fill="#181818" points="287.5,185.5479,277.5,189.5479,287.5,193.5479,283.5,189.5479" style="stroke:#181818;stroke-width:1.0;"/><line style="stroke:#181818;stroke-width:1.0;" x1="281.5" x2="694.5" y1="189.5479" y2="189.5479"/><text fill="#000000" font-family="sans-serif" font-size="13" lengthAdjust="spacing" textLength="95" x="293.5" y="183.7389">GET /index.html</text><polygon fill="#181818" points="264.5,217.2539,274.5,221.2539,264.5,225.2539,268.5,221.2539" style="stroke:#181818;stroke-width:1.0;"/><line style="stroke:#181818;stroke-width:1.0;" x1="23.5" x2="270.5" y1="221.2539" y2="221.2539"/><text fill="#000000" font-family="sans-serif" font-size="13" lengthAdjust="spacing" textLength="192" x="30.5" y="215.4449">Clicks create contacts list button</text><polygon fill="#181818" points="683.5,248.9599,693.5,252.9599,683.5,256.9599,687.5,252.9599" style="stroke:#181818;stroke-width:1.0;"/><line style="stroke:#181818;stroke-width:1.0;" x1="276.5" x2="689.5" y1="252.9599" y2="252.9599"/><text fill="#000000" font-family="sans-serif" font-size="13" lengthAdjust="spacing" textLength="198" x="283.5" y="247.1509">Generate private key (symmetric)</text><line style="stroke:#181818;stroke-width:1.0;stroke-dasharray:2.0,2.0;" x1="695.5" x2="737.5" y1="284.6659" y2="284.6659"/><line style="stroke:#181818;stroke-width:1.0;stroke-dasharray:2.0,2.0;" x1="737.5" x2="737.5" y1="284.6659" y2="297.6659"/><line style="stroke:#181818;stroke-width:1.0;stroke-dasharray:2.0,2.0;" x1="696.5" x2="737.5" y1="297.6659" y2="297.6659"/><polygon fill="#181818" points="706.5,293.6659,696.5,297.6659,706.5,301.6659,702.5,297.6659" style="stroke:#181818;stroke-width:1.0;"/><text fill="#000000" font-family="sans-serif" font-size="13" lengthAdjust="spacing" textLength="199" x="702.5" y="278.8569">Save private key in local database</text><polygon fill="#181818" points="287.5,325.3719,277.5,329.3719,287.5,333.3719,283.5,329.3719" style="stroke:#181818;stroke-width:1.0;"/><line style="stroke:#181818;stroke-width:1.0;stroke-dasharray:2.0,2.0;" x1="281.5" x2="694.5" y1="329.3719" y2="329.3719"/><text fill="#000000" font-family="sans-serif" font-size="13" lengthAdjust="spacing" textLength="124" x="293.5" y="323.5629">Returns (private) key</text><polygon fill="#181818" points="683.5,357.0779,693.5,361.0779,683.5,365.0779,687.5,361.0779" style="stroke:#181818;stroke-width:1.0;"/><line style="stroke:#181818;stroke-width:1.0;" x1="276.5" x2="689.5" y1="361.0779" y2="361.0779"/><text fill="#000000" font-family="sans-serif" font-size="13" lengthAdjust="spacing" textLength="270" x="283.5" y="355.2689">Generate private and public key (asymmetric)</text><line style="stroke:#181818;stroke-width:1.0;stroke-dasharray:2.0,2.0;" x1="695.5" x2="737.5" y1="392.784" y2="392.784"/><line style="stroke:#181818;stroke-width:1.0;stroke-dasharray:2.0,2.0;" x1="737.5" x2="737.5" y1="392.784" y2="405.784"/><line style="stroke:#181818;stroke-width:1.0;stroke-dasharray:2.0,2.0;" x1="696.5" x2="737.5" y1="405.784" y2="405.784"/><polygon fill="#181818" points="706.5,401.784,696.5,405.784,706.5,409.784,702.5,405.784" style="stroke:#181818;stroke-width:1.0;"/><text fill="#000000" font-family="sans-serif" font-size="13" lengthAdjust="spacing" textLength="193" x="702.5" y="386.975">Save public key in local database</text><line style="stroke:#181818;stroke-width:1.0;stroke-dasharray:2.0,2.0;" x1="695.5" x2="737.5" y1="437.49" y2="437.49"/><line style="stroke:#181818;stroke-width:1.0;stroke-dasharray:2.0,2.0;" x1="737.5" x2="737.5" y1="437.49" y2="450.49"/><line style="stroke:#181818;stroke-width:1.0;stroke-dasharray:2.0,2.0;" x1="696.5" x2="737.5" y1="450.49" y2="450.49"/><polygon fill="#181818" points="706.5,446.49,696.5,450.49,706.5,454.49,702.5,450.49" style="stroke:#181818;stroke-width:1.0;"/><text fill="#000000" font-family="sans-serif" font-size="13" lengthAdjust="spacing" textLength="199" x="702.5" y="431.681">Save private key in local database</text><polygon fill="#181818" points="287.5,478.196,277.5,482.196,287.5,486.196,283.5,482.196" style="stroke:#181818;stroke-width:1.0;"/><line style="stroke:#181818;stroke-width:1.0;stroke-dasharray:2.0,2.0;" x1="281.5" x2="694.5" y1="482.196" y2="482.196"/><text fill="#000000" font-family="sans-serif" font-size="13" lengthAdjust="spacing" textLength="166" x="293.5" y="476.387">Returns (public, private) key</text><polygon fill="#181818" points="34.5,509.902,24.5,513.902,34.5,517.902,30.5,513.902" style="stroke:#181818;stroke-width:1.0;"/><line style="stroke:#181818;stroke-width:1.0;stroke-dasharray:2.0,2.0;" x1="28.5" x2="275.5" y1="513.902" y2="513.902"/><text fill="#000000" font-family="sans-serif" font-size="13" lengthAdjust="spacing" textLength="150" x="40.5" y="508.093">Render contacts list page</text><polygon fill="#181818" points="264.5,541.608,274.5,545.608,264.5,549.608,268.5,545.608" style="stroke:#181818;stroke-width:1.0;"/><line style="stroke:#181818;stroke-width:1.0;" x1="23.5" x2="270.5" y1="545.608" y2="545.608"/><text fill="#000000" font-family="sans-serif" font-size="13" lengthAdjust="spacing" textLength="144" x="30.5" y="539.799">Fills contact information</text><polygon fill="#181818" points="683.5,573.314,693.5,577.314,683.5,581.314,687.5,577.314" style="stroke:#181818;stroke-width:1.0;"/><line style="stroke:#181818;stroke-width:1.0;" x1="276.5" x2="689.5" y1="577.314" y2="577.314"/><text fill="#000000" font-family="sans-serif" font-size="13" lengthAdjust="spacing" textLength="178" x="283.5" y="571.505">Save contact in local database</text><polygon fill="#181818" points="264.5,605.0201,274.5,609.0201,264.5,613.0201,268.5,609.0201" style="stroke:#181818;stroke-width:1.0;"/><line style="stroke:#181818;stroke-width:1.0;" x1="23.5" x2="270.5" y1="609.0201" y2="609.0201"/><text fill="#000000" font-family="sans-serif" font-size="13" lengthAdjust="spacing" textLength="162" x="30.5" y="603.2111">Clicks save contacts button</text><polygon fill="#181818" points="683.5,636.7261,693.5,640.7261,683.5,644.7261,687.5,640.7261" style="stroke:#181818;stroke-width:1.0;"/><line style="stroke:#181818;stroke-width:1.0;" x1="276.5" x2="689.5" y1="640.7261" y2="640.7261"/><text fill="#000000" font-family="sans-serif" font-size="13" lengthAdjust="spacing" textLength="322" x="283.5" y="634.9171">Encrypt local contacts list with private (symmetric) key</text><polygon fill="#181818" points="683.5,668.4321,693.5,672.4321,683.5,676.4321,687.5,672.4321" style="stroke:#181818;stroke-width:1.0;"/><line style="stroke:#181818;stroke-width:1.0;" x1="276.5" x2="689.5" y1="672.4321" y2="672.4321"/><text fill="#000000" font-family="sans-serif" font-size="13" lengthAdjust="spacing" textLength="362" x="283.5" y="666.6231">Encrypt private (symmetric) key with public (asymmetric) key</text><polygon fill="#181818" points="287.5,700.1381,277.5,704.1381,287.5,708.1381,283.5,704.1381" style="stroke:#181818;stroke-width:1.0;"/><line style="stroke:#181818;stroke-width:1.0;stroke-dasharray:2.0,2.0;" x1="281.5" x2="694.5" y1="704.1381" y2="704.1381"/><text fill="#000000" font-family="sans-serif" font-size="13" lengthAdjust="spacing" textLength="395" x="293.5" y="698.3291">JSON { encrypted contacts list, encrypted (symmetric) private key }</text><polygon fill="#181818" points="896.5,731.8441,906.5,735.8441,896.5,739.8441,900.5,735.8441" style="stroke:#181818;stroke-width:1.0;"/><line style="stroke:#181818;stroke-width:1.0;" x1="276.5" x2="902.5" y1="735.8441" y2="735.8441"/><text fill="#000000" font-family="sans-serif" font-size="13" lengthAdjust="spacing" textLength="489" x="283.5" y="730.0351">POST /contacts JSON { encrypted contacts list, encrypted (symmetric) private key }</text><line style="stroke:#181818;stroke-width:1.0;stroke-dasharray:2.0,2.0;" x1="908.5" x2="950.5" y1="767.5501" y2="767.5501"/><line style="stroke:#181818;stroke-width:1.0;stroke-dasharray:2.0,2.0;" x1="950.5" x2="950.5" y1="767.5501" y2="780.5501"/><line style="stroke:#181818;stroke-width:1.0;stroke-dasharray:2.0,2.0;" x1="909.5" x2="950.5" y1="780.5501" y2="780.5501"/><polygon fill="#181818" points="919.5,776.5501,909.5,780.5501,919.5,784.5501,915.5,780.5501" style="stroke:#181818;stroke-width:1.0;"/><text fill="#000000" font-family="sans-serif" font-size="13" lengthAdjust="spacing" textLength="179" x="915.5" y="761.7411">Generate document reference</text><polygon fill="#181818" points="1246.5,808.2562,1256.5,812.2562,1246.5,816.2562,1250.5,812.2562" style="stroke:#181818;stroke-width:1.0;"/><line style="stroke:#181818;stroke-width:1.0;" x1="908.5" x2="1252.5" y1="812.2562" y2="812.2562"/><text fill="#000000" font-family="sans-serif" font-size="13" lengthAdjust="spacing" textLength="326" x="915.5" y="806.4472">Save encrypted contacts list using document reference</text><polygon fill="#181818" points="919.5,839.9622,909.5,843.9622,919.5,847.9622,915.5,843.9622" style="stroke:#181818;stroke-width:1.0;"/><line style="stroke:#181818;stroke-width:1.0;stroke-dasharray:2.0,2.0;" x1="913.5" x2="1257.5" y1="843.9622" y2="843.9622"/><text fill="#000000" font-family="sans-serif" font-size="13" lengthAdjust="spacing" textLength="222" x="925.5" y="838.1532">Saved document hash (commit hash)</text><polygon fill="#181818" points="287.5,871.6682,277.5,875.6682,287.5,879.6682,283.5,875.6682" style="stroke:#181818;stroke-width:1.0;"/><line style="stroke:#181818;stroke-width:1.0;stroke-dasharray:2.0,2.0;" x1="281.5" x2="907.5" y1="875.6682" y2="875.6682"/><text fill="#000000" font-family="sans-serif" font-size="13" lengthAdjust="spacing" textLength="271" x="293.5" y="869.8592">JSON { document reference, document hash }</text><polygon fill="#181818" points="683.5,903.3742,693.5,907.3742,683.5,911.3742,687.5,907.3742" style="stroke:#181818;stroke-width:1.0;"/><line style="stroke:#181818;stroke-width:1.0;" x1="276.5" x2="689.5" y1="907.3742" y2="907.3742"/><text fill="#000000" font-family="sans-serif" font-size="13" lengthAdjust="spacing" textLength="312" x="283.5" y="901.5652">Save document reference and hash in local database</text><polygon fill="#181818" points="34.5,935.0802,24.5,939.0802,34.5,943.0802,30.5,939.0802" style="stroke:#181818;stroke-width:1.0;"/><line style="stroke:#181818;stroke-width:1.0;stroke-dasharray:2.0,2.0;" x1="28.5" x2="275.5" y1="939.0802" y2="939.0802"/><text fill="#000000" font-family="sans-serif" font-size="13" lengthAdjust="spacing" textLength="229" x="40.5" y="933.2712">Render saved contacts list information</text><!--MD5=[fda896087fdab6108d70d57e42c7cca3]
@startuml 001-create-contacts-list

title "001 - Create contacts list"

actor User
participant "Platform" as PL #MistyRose
participant Browser #MintCream
participant "Contacts Manager API" as CNT #Plum
participant "Contacts Manager DB" as CNT_DB #Plum

User -> Browser : Open platform webpage
Browser -> PL : GET /index.html

User -> PL: Clicks create contacts list button

PL -> Browser: Generate private key (symmetric)
Browser - -> Browser: Save private key in local database
Browser - -> PL: Returns (private) key

PL -> Browser: Generate private and public key (asymmetric)
Browser - -> Browser: Save public key in local database
Browser - -> Browser: Save private key in local database
Browser - -> PL: Returns (public, private) key

PL - -> User: Render contacts list page

User -> PL: Fills contact information
PL -> Browser: Save contact in local database

User -> PL: Clicks save contacts button

PL -> Browser: Encrypt local contacts list with private (symmetric) key
PL -> Browser: Encrypt private (symmetric) key with public (asymmetric) key
Browser - -> PL: JSON { encrypted contacts list, encrypted (symmetric) private key }

PL -> CNT: POST /contacts JSON { encrypted contacts list, encrypted (symmetric) private key }
CNT - -> CNT: Generate document reference
CNT -> CNT_DB: Save encrypted contacts list using document reference
CNT_DB - -> CNT: Saved document hash (commit hash)
CNT - -> PL: JSON { document reference, document hash }

PL -> Browser: Save document reference and hash in local database
PL - -> User: Render saved contacts list information

@enduml

PlantUML version 1.2022.7(Mon Aug 22 18:01:30 WEST 2022)
(GPL source distribution)
Java Runtime: OpenJDK Runtime Environment
JVM: OpenJDK 64-Bit Server VM
Default Encoding: ANSI_X3.4-1968
Language: en
Country: US
--></g></svg>