<?xml version="1.0" encoding="us-ascii" standalone="no"?><svg xmlns="http://www.w3.org/2000/svg" xmlns:xlink="http://www.w3.org/1999/xlink" contentStyleType="text/css" height="494px" preserveAspectRatio="none" style="width:508px;height:494px;background:#FFFFFF;" version="1.1" viewBox="0 0 508 494" width="508px" zoomAndPan="magnify"><defs/><g><text fill="#000000" font-family="sans-serif" font-size="14" font-weight="bold" lengthAdjust="spacing" textLength="164" x="171" y="29.9659">001 - Share contacts list</text><line style="stroke:#181818;stroke-width:0.5;stroke-dasharray:5.0,5.0;" x1="23" x2="23" y1="124.1358" y2="410.784"/><line style="stroke:#181818;stroke-width:0.5;stroke-dasharray:5.0,5.0;" x1="281" x2="281" y1="124.1358" y2="410.784"/><line style="stroke:#181818;stroke-width:0.5;stroke-dasharray:5.0,5.0;" x1="467" x2="467" y1="124.1358" y2="410.784"/><text fill="#000000" font-family="sans-serif" font-size="14" lengthAdjust="spacing" textLength="31" x="5" y="120.0339">User</text><ellipse cx="23.5" cy="53.5679" fill="#E2E2F0" rx="8" ry="8" style="stroke:#181818;stroke-width:0.5;"/><path d="M23.5,61.5679 L23.5,88.5679 M10.5,69.5679 L36.5,69.5679 M23.5,88.5679 L10.5,103.5679 M23.5,88.5679 L36.5,103.5679 " fill="none" style="stroke:#181818;stroke-width:0.5;"/><text fill="#000000" font-family="sans-serif" font-size="14" lengthAdjust="spacing" textLength="31" x="5" y="424.7499">User</text><ellipse cx="23.5" cy="437.3519" fill="#E2E2F0" rx="8" ry="8" style="stroke:#181818;stroke-width:0.5;"/><path d="M23.5,445.3519 L23.5,472.3519 M10.5,453.3519 L36.5,453.3519 M23.5,472.3519 L10.5,487.3519 M23.5,472.3519 L36.5,487.3519 " fill="none" style="stroke:#181818;stroke-width:0.5;"/><rect fill="#FFE4E1" height="33.0679" rx="2.5" ry="2.5" style="stroke:#181818;stroke-width:0.5;" width="71" x="246" y="90.0679"/><text fill="#000000" font-family="sans-serif" font-size="14" lengthAdjust="spacing" textLength="57" x="253" y="112.0339">Platform</text><rect fill="#FFE4E1" height="33.0679" rx="2.5" ry="2.5" style="stroke:#181818;stroke-width:0.5;" width="71" x="246" y="409.784"/><text fill="#000000" font-family="sans-serif" font-size="14" lengthAdjust="spacing" textLength="57" x="253" y="431.7499">Platform</text><rect fill="#F5FFFA" height="33.0679" rx="2.5" ry="2.5" style="stroke:#181818;stroke-width:0.5;" width="69" x="433" y="90.0679"/><text fill="#000000" font-family="sans-serif" font-size="14" lengthAdjust="spacing" textLength="55" x="440" y="112.0339">Browser</text><rect fill="#F5FFFA" height="33.0679" rx="2.5" ry="2.5" style="stroke:#181818;stroke-width:0.5;" width="69" x="433" y="409.784"/><text fill="#000000" font-family="sans-serif" font-size="14" lengthAdjust="spacing" textLength="55" x="440" y="431.7499">Browser</text><polygon fill="#181818" points="455.5,153.8419,465.5,157.8419,455.5,161.8419,459.5,157.8419" style="stroke:#181818;stroke-width:1.0;"/><line style="stroke:#181818;stroke-width:1.0;" x1="23.5" x2="461.5" y1="157.8419" y2="157.8419"/><text fill="#000000" font-family="sans-serif" font-size="13" lengthAdjust="spacing" textLength="146" x="30.5" y="152.0328">Open platform webpage</text><polygon fill="#181818" points="292.5,185.5479,282.5,189.5479,292.5,193.5479,288.5,189.5479" style="stroke:#181818;stroke-width:1.0;"/><line style="stroke:#181818;stroke-width:1.0;" x1="286.5" x2="466.5" y1="189.5479" y2="189.5479"/><text fill="#000000" font-family="sans-serif" font-size="13" lengthAdjust="spacing" textLength="95" x="298.5" y="183.7389">GET /index.html</text><polygon fill="#181818" points="34.5,217.2539,24.5,221.2539,34.5,225.2539,30.5,221.2539" style="stroke:#181818;stroke-width:1.0;"/><line style="stroke:#181818;stroke-width:1.0;stroke-dasharray:2.0,2.0;" x1="28.5" x2="280.5" y1="221.2539" y2="221.2539"/><text fill="#000000" font-family="sans-serif" font-size="13" lengthAdjust="spacing" textLength="171" x="40.5" y="215.4449">Render created contacts lists</text><polygon fill="#181818" points="269.5,248.9599,279.5,252.9599,269.5,256.9599,273.5,252.9599" style="stroke:#181818;stroke-width:1.0;"/><line style="stroke:#181818;stroke-width:1.0;" x1="23.5" x2="275.5" y1="252.9599" y2="252.9599"/><text fill="#000000" font-family="sans-serif" font-size="13" lengthAdjust="spacing" textLength="161" x="30.5" y="247.1509">Select contacts list to share</text><polygon fill="#181818" points="34.5,280.6659,24.5,284.6659,34.5,288.6659,30.5,284.6659" style="stroke:#181818;stroke-width:1.0;"/><line style="stroke:#181818;stroke-width:1.0;stroke-dasharray:2.0,2.0;" x1="28.5" x2="280.5" y1="284.6659" y2="284.6659"/><text fill="#000000" font-family="sans-serif" font-size="13" lengthAdjust="spacing" textLength="117" x="40.5" y="278.8569">Render contacts list</text><polygon fill="#181818" points="269.5,312.3719,279.5,316.3719,269.5,320.3719,273.5,316.3719" style="stroke:#181818;stroke-width:1.0;"/><line style="stroke:#181818;stroke-width:1.0;" x1="23.5" x2="275.5" y1="316.3719" y2="316.3719"/><text fill="#000000" font-family="sans-serif" font-size="13" lengthAdjust="spacing" textLength="190" x="30.5" y="310.5629">Select share contacts list button</text><line style="stroke:#181818;stroke-width:1.0;stroke-dasharray:2.0,2.0;" x1="281.5" x2="323.5" y1="348.0779" y2="348.0779"/><line style="stroke:#181818;stroke-width:1.0;stroke-dasharray:2.0,2.0;" x1="323.5" x2="323.5" y1="348.0779" y2="361.0779"/><line style="stroke:#181818;stroke-width:1.0;stroke-dasharray:2.0,2.0;" x1="282.5" x2="323.5" y1="361.0779" y2="361.0779"/><polygon fill="#181818" points="292.5,357.0779,282.5,361.0779,292.5,365.0779,288.5,361.0779" style="stroke:#181818;stroke-width:1.0;"/><text fill="#000000" font-family="sans-serif" font-size="13" lengthAdjust="spacing" textLength="172" x="288.5" y="342.2689">Build shared contacts list link</text><polygon fill="#181818" points="34.5,388.784,24.5,392.784,34.5,396.784,30.5,392.784" style="stroke:#181818;stroke-width:1.0;"/><line style="stroke:#181818;stroke-width:1.0;stroke-dasharray:2.0,2.0;" x1="28.5" x2="280.5" y1="392.784" y2="392.784"/><text fill="#000000" font-family="sans-serif" font-size="13" lengthAdjust="spacing" textLength="234" x="40.5" y="386.975">Render contacts list URL and public key</text><!--SRC=[XP11JiCm44NtFiLNM0VADWiMHOXDAgAK7i1n1chLiIrxejBRCnOK25HYOrd-p-_RmvOTeLgjRb5ZkzU9O89dRJZ3sSoLKh8F2RjCIKMTs1eRjMTKdTFy4j9KGMTqBQusmf_wa6d1hLCuojqIUxvFf2UbYWprtLVMu2cIH_mquaX3rA-aphcWKj3WyU4PDzQFz7QzvyafEQmbAxe6FKcGOAI2QLn-8tztTcs3BJaol4J00RaCuBBr9tfHblyE3yFC7FnPME3rRDtumVvweYp-y7ytTdqBxKV4UN3Mu40dzGu0]--></g></svg>