<?xml version="1.0" encoding="UTF-8" standalone="no"?><svg xmlns="http://www.w3.org/2000/svg" xmlns:xlink="http://www.w3.org/1999/xlink" contentStyleType="text/css" height="665px" preserveAspectRatio="none" style="width:1178px;height:665px;background:#FFFFFF;" version="1.1" viewBox="0 0 1178 665" width="1178px" zoomAndPan="magnify"><defs/><g><rect fill="none" height="29.0679" id="_title" style="stroke:none;stroke-width:1.0;" width="219" x="478.75" y="10"/><text fill="#000000" font-family="sans-serif" font-size="14" font-weight="bold" lengthAdjust="spacing" textLength="209" x="483.75" y="29.9659">003 - View shared contacts list</text><line style="stroke:#181818;stroke-width:0.5;stroke-dasharray:5.0,5.0;" x1="23" x2="23" y1="124.1358" y2="582.314"/><line style="stroke:#181818;stroke-width:0.5;stroke-dasharray:5.0,5.0;" x1="222" x2="222" y1="124.1358" y2="582.314"/><line style="stroke:#181818;stroke-width:0.5;stroke-dasharray:5.0,5.0;" x1="468" x2="468" y1="124.1358" y2="582.314"/><line style="stroke:#181818;stroke-width:0.5;stroke-dasharray:5.0,5.0;" x1="770" x2="770" y1="124.1358" y2="582.314"/><line style="stroke:#181818;stroke-width:0.5;stroke-dasharray:5.0,5.0;" x1="1092.5" x2="1092.5" y1="124.1358" y2="582.314"/><text fill="#000000" font-family="sans-serif" font-size="14" lengthAdjust="spacing" textLength="31" x="5" y="120.0339">User</text><ellipse cx="23.5" cy="53.5679" fill="#E2E2F0" rx="8" ry="8" style="stroke:#181818;stroke-width:0.5;"/><path d="M23.5,61.5679 L23.5,88.5679 M10.5,69.5679 L36.5,69.5679 M23.5,88.5679 L10.5,103.5679 M23.5,88.5679 L36.5,103.5679 " fill="none" style="stroke:#181818;stroke-width:0.5;"/><text fill="#000000" font-family="sans-serif" font-size="14" lengthAdjust="spacing" textLength="31" x="5" y="596.28">User</text><ellipse cx="23.5" cy="608.882" fill="#E2E2F0" rx="8" ry="8" style="stroke:#181818;stroke-width:0.5;"/><path d="M23.5,616.882 L23.5,643.882 M10.5,624.882 L36.5,624.882 M23.5,643.882 L10.5,658.882 M23.5,643.882 L36.5,658.882 " fill="none" style="stroke:#181818;stroke-width:0.5;"/><rect fill="#F5FFFA" height="33.0679" rx="2.5" ry="2.5" style="stroke:#181818;stroke-width:0.5;" width="69" x="188" y="90.0679"/><text fill="#000000" font-family="sans-serif" font-size="14" lengthAdjust="spacing" textLength="55" x="195" y="112.0339">Browser</text><rect fill="#F5FFFA" height="33.0679" rx="2.5" ry="2.5" style="stroke:#181818;stroke-width:0.5;" width="69" x="188" y="581.314"/><text fill="#000000" font-family="sans-serif" font-size="14" lengthAdjust="spacing" textLength="55" x="195" y="603.28">Browser</text><rect fill="#FFE4E1" height="33.0679" rx="2.5" ry="2.5" style="stroke:#181818;stroke-width:0.5;" width="71" x="433" y="90.0679"/><text fill="#000000" font-family="sans-serif" font-size="14" lengthAdjust="spacing" textLength="57" x="440" y="112.0339">Platform</text><rect fill="#FFE4E1" height="33.0679" rx="2.5" ry="2.5" style="stroke:#181818;stroke-width:0.5;" width="71" x="433" y="581.314"/><text fill="#000000" font-family="sans-serif" font-size="14" lengthAdjust="spacing" textLength="57" x="440" y="603.28">Platform</text><rect fill="#DDA0DD" height="33.0679" rx="2.5" ry="2.5" style="stroke:#181818;stroke-width:0.5;" width="163" x="689" y="90.0679"/><text fill="#000000" font-family="sans-serif" font-size="14" lengthAdjust="spacing" textLength="149" x="696" y="112.0339">Contacts Manager API</text><rect fill="#DDA0DD" height="33.0679" rx="2.5" ry="2.5" style="stroke:#181818;stroke-width:0.5;" width="163" x="689" y="581.314"/><text fill="#000000" font-family="sans-serif" font-size="14" lengthAdjust="spacing" textLength="149" x="696" y="603.28">Contacts Manager API</text><rect fill="#DDA0DD" height="33.0679" rx="2.5" ry="2.5" style="stroke:#181818;stroke-width:0.5;" width="160" x="1012.5" y="90.0679"/><text fill="#000000" font-family="sans-serif" font-size="14" lengthAdjust="spacing" textLength="146" x="1019.5" y="112.0339">Contacts Manager DB</text><rect fill="#DDA0DD" height="33.0679" rx="2.5" ry="2.5" style="stroke:#181818;stroke-width:0.5;" width="160" x="1012.5" y="581.314"/><text fill="#000000" font-family="sans-serif" font-size="14" lengthAdjust="spacing" textLength="146" x="1019.5" y="603.28">Contacts Manager DB</text><polygon fill="#181818" points="210.5,153.8419,220.5,157.8419,210.5,161.8419,214.5,157.8419" style="stroke:#181818;stroke-width:1.0;"/><line style="stroke:#181818;stroke-width:1.0;" x1="23.5" x2="216.5" y1="157.8419" y2="157.8419"/><text fill="#000000" font-family="sans-serif" font-size="13" lengthAdjust="spacing" textLength="175" x="30.5" y="152.0328">Open shared contacts list link</text><polygon fill="#181818" points="456.5,185.5479,466.5,189.5479,456.5,193.5479,460.5,189.5479" style="stroke:#181818;stroke-width:1.0;"/><line style="stroke:#181818;stroke-width:1.0;" x1="222.5" x2="462.5" y1="189.5479" y2="189.5479"/><text fill="#000000" font-family="sans-serif" font-size="13" lengthAdjust="spacing" textLength="222" x="229.5" y="183.7389">GET /&lt;contacts-document-reference&gt;</text><polygon fill="#181818" points="758.5,217.2539,768.5,221.2539,758.5,225.2539,762.5,221.2539" style="stroke:#181818;stroke-width:1.0;"/><line style="stroke:#181818;stroke-width:1.0;" x1="468.5" x2="764.5" y1="221.2539" y2="221.2539"/><text fill="#000000" font-family="sans-serif" font-size="13" lengthAdjust="spacing" textLength="278" x="475.5" y="215.4449">GET /contacts/&lt;contacts-document-reference&gt;</text><polygon fill="#181818" points="1080.5,248.9599,1090.5,252.9599,1080.5,256.9599,1084.5,252.9599" style="stroke:#181818;stroke-width:1.0;"/><line style="stroke:#181818;stroke-width:1.0;" x1="770.5" x2="1086.5" y1="252.9599" y2="252.9599"/><text fill="#000000" font-family="sans-serif" font-size="13" lengthAdjust="spacing" textLength="298" x="777.5" y="247.1509">Find encrypted contacts list with specific reference</text><polygon fill="#181818" points="781.5,280.6659,771.5,284.6659,781.5,288.6659,777.5,284.6659" style="stroke:#181818;stroke-width:1.0;"/><line style="stroke:#181818;stroke-width:1.0;stroke-dasharray:2.0,2.0;" x1="775.5" x2="1091.5" y1="284.6659" y2="284.6659"/><text fill="#000000" font-family="sans-serif" font-size="13" lengthAdjust="spacing" textLength="185" x="787.5" y="278.8569">JSON { encrypted contacts list }</text><polygon fill="#181818" points="479.5,312.3719,469.5,316.3719,479.5,320.3719,475.5,316.3719" style="stroke:#181818;stroke-width:1.0;"/><line style="stroke:#181818;stroke-width:1.0;stroke-dasharray:2.0,2.0;" x1="473.5" x2="769.5" y1="316.3719" y2="316.3719"/><text fill="#000000" font-family="sans-serif" font-size="13" lengthAdjust="spacing" textLength="185" x="485.5" y="310.5629">JSON { encrypted contacts list }</text><polygon fill="#181818" points="34.5,344.0779,24.5,348.0779,34.5,352.0779,30.5,348.0779" style="stroke:#181818;stroke-width:1.0;"/><line style="stroke:#181818;stroke-width:1.0;stroke-dasharray:2.0,2.0;" x1="28.5" x2="467.5" y1="348.0779" y2="348.0779"/><text fill="#000000" font-family="sans-serif" font-size="13" lengthAdjust="spacing" textLength="167" x="40.5" y="342.2689">Renders private key prompt</text><polygon fill="#181818" points="456.5,375.784,466.5,379.784,456.5,383.784,460.5,379.784" style="stroke:#181818;stroke-width:1.0;"/><line style="stroke:#181818;stroke-width:1.0;" x1="23.5" x2="462.5" y1="379.784" y2="379.784"/><text fill="#000000" font-family="sans-serif" font-size="13" lengthAdjust="spacing" textLength="203" x="30.5" y="373.975">Chooses generate new key option</text><polygon fill="#181818" points="233.5,407.49,223.5,411.49,233.5,415.49,229.5,411.49" style="stroke:#181818;stroke-width:1.0;"/><line style="stroke:#181818;stroke-width:1.0;" x1="227.5" x2="467.5" y1="411.49" y2="411.49"/><text fill="#000000" font-family="sans-serif" font-size="13" lengthAdjust="spacing" textLength="189" x="239.5" y="405.681">Generate private and public key</text><line style="stroke:#181818;stroke-width:1.0;stroke-dasharray:2.0,2.0;" x1="222.5" x2="264.5" y1="443.196" y2="443.196"/><line style="stroke:#181818;stroke-width:1.0;stroke-dasharray:2.0,2.0;" x1="264.5" x2="264.5" y1="443.196" y2="456.196"/><line style="stroke:#181818;stroke-width:1.0;stroke-dasharray:2.0,2.0;" x1="223.5" x2="264.5" y1="456.196" y2="456.196"/><polygon fill="#181818" points="233.5,452.196,223.5,456.196,233.5,460.196,229.5,456.196" style="stroke:#181818;stroke-width:1.0;"/><text fill="#000000" font-family="sans-serif" font-size="13" lengthAdjust="spacing" textLength="193" x="229.5" y="437.387">Save public key in local database</text><line style="stroke:#181818;stroke-width:1.0;stroke-dasharray:2.0,2.0;" x1="222.5" x2="264.5" y1="487.902" y2="487.902"/><line style="stroke:#181818;stroke-width:1.0;stroke-dasharray:2.0,2.0;" x1="264.5" x2="264.5" y1="487.902" y2="500.902"/><line style="stroke:#181818;stroke-width:1.0;stroke-dasharray:2.0,2.0;" x1="223.5" x2="264.5" y1="500.902" y2="500.902"/><polygon fill="#181818" points="233.5,496.902,223.5,500.902,233.5,504.902,229.5,500.902" style="stroke:#181818;stroke-width:1.0;"/><text fill="#000000" font-family="sans-serif" font-size="13" lengthAdjust="spacing" textLength="199" x="229.5" y="482.093">Save private key in local database</text><polygon fill="#181818" points="456.5,528.608,466.5,532.608,456.5,536.608,460.5,532.608" style="stroke:#181818;stroke-width:1.0;"/><line style="stroke:#181818;stroke-width:1.0;stroke-dasharray:2.0,2.0;" x1="222.5" x2="462.5" y1="532.608" y2="532.608"/><text fill="#000000" font-family="sans-serif" font-size="13" lengthAdjust="spacing" textLength="166" x="229.5" y="526.799">Returns (public, private) key</text><polygon fill="#181818" points="34.5,560.314,24.5,564.314,34.5,568.314,30.5,564.314" style="stroke:#181818;stroke-width:1.0;"/><line style="stroke:#181818;stroke-width:1.0;stroke-dasharray:2.0,2.0;" x1="28.5" x2="467.5" y1="564.314" y2="564.314"/><text fill="#000000" font-family="sans-serif" font-size="13" lengthAdjust="spacing" textLength="345" x="40.5" y="558.505">Render prompt to share public key with contact list owner</text><!--MD5=[ffd50da393ac1552fa79af11a96b8dc3]
@startuml 003-view-shared-contacts-list

title "003 - View shared contacts list"

actor User
participant Browser #MintCream
participant "Platform" as PL #MistyRose
participant "Contacts Manager API" as CNT #Plum
participant "Contacts Manager DB" as CNT_DB #Plum

User -> Browser: Open shared contacts list link
Browser -> PL: GET /<contacts-document-reference>
PL -> CNT: GET /contacts/<contacts-document-reference>
CNT -> CNT_DB: Find encrypted contacts list with specific reference
CNT_DB - -> CNT: JSON { encrypted contacts list }
CNT - -> PL: JSON { encrypted contacts list }
PL - -> User: Renders private key prompt

User -> PL: Chooses generate new key option
PL -> Browser: Generate private and public key
Browser - -> Browser: Save public key in local database
Browser - -> Browser: Save private key in local database
Browser - -> PL: Returns (public, private) key
PL - -> User: Render prompt to share public key with contact list owner

@enduml

PlantUML version 1.2022.7(Mon Aug 22 18:01:30 WEST 2022)
(GPL source distribution)
Java Runtime: OpenJDK Runtime Environment
JVM: OpenJDK 64-Bit Server VM
Default Encoding: ANSI_X3.4-1968
Language: en
Country: US
--></g></svg>