<?xml version="1.0" encoding="UTF-8" standalone="no"?><svg xmlns="http://www.w3.org/2000/svg" xmlns:xlink="http://www.w3.org/1999/xlink" contentStyleType="text/css" height="335px" preserveAspectRatio="none" style="width:450px;height:335px;background:#FFFFFF;" version="1.1" viewBox="0 0 450 335" width="450px" zoomAndPan="magnify"><defs/><g><rect fill="none" height="29.0679" id="_title" style="stroke:none;stroke-width:1.0;" width="167" x="140.5" y="10"/><text fill="#000000" font-family="sans-serif" font-size="14" font-weight="bold" lengthAdjust="spacing" textLength="157" x="145.5" y="29.9659">004 - Save contacts list</text><line style="stroke:#181818;stroke-width:0.5;stroke-dasharray:5.0,5.0;" x1="23" x2="23" y1="124.1358" y2="252.2539"/><line style="stroke:#181818;stroke-width:0.5;stroke-dasharray:5.0,5.0;" x1="86" x2="86" y1="124.1358" y2="252.2539"/><line style="stroke:#181818;stroke-width:0.5;stroke-dasharray:5.0,5.0;" x1="408" x2="408" y1="124.1358" y2="252.2539"/><text fill="#000000" font-family="sans-serif" font-size="14" lengthAdjust="spacing" textLength="31" x="5" y="120.0339">User</text><ellipse cx="23.5" cy="53.5679" fill="#E2E2F0" rx="8" ry="8" style="stroke:#181818;stroke-width:0.5;"/><path d="M23.5,61.5679 L23.5,88.5679 M10.5,69.5679 L36.5,69.5679 M23.5,88.5679 L10.5,103.5679 M23.5,88.5679 L36.5,103.5679 " fill="none" style="stroke:#181818;stroke-width:0.5;"/><text fill="#000000" font-family="sans-serif" font-size="14" lengthAdjust="spacing" textLength="31" x="5" y="266.2198">User</text><ellipse cx="23.5" cy="278.8218" fill="#E2E2F0" rx="8" ry="8" style="stroke:#181818;stroke-width:0.5;"/><path d="M23.5,286.8218 L23.5,313.8218 M10.5,294.8218 L36.5,294.8218 M23.5,313.8218 L10.5,328.8218 M23.5,313.8218 L36.5,328.8218 " fill="none" style="stroke:#181818;stroke-width:0.5;"/><rect fill="#F5FFFA" height="33.0679" rx="2.5" ry="2.5" style="stroke:#181818;stroke-width:0.5;" width="69" x="52" y="90.0679"/><text fill="#000000" font-family="sans-serif" font-size="14" lengthAdjust="spacing" textLength="55" x="59" y="112.0339">Browser</text><rect fill="#F5FFFA" height="33.0679" rx="2.5" ry="2.5" style="stroke:#181818;stroke-width:0.5;" width="69" x="52" y="251.2539"/><text fill="#000000" font-family="sans-serif" font-size="14" lengthAdjust="spacing" textLength="55" x="59" y="273.2198">Browser</text><rect fill="#FFE4E1" height="33.0679" rx="2.5" ry="2.5" style="stroke:#181818;stroke-width:0.5;" width="71" x="373" y="90.0679"/><text fill="#000000" font-family="sans-serif" font-size="14" lengthAdjust="spacing" textLength="57" x="380" y="112.0339">Platform</text><rect fill="#FFE4E1" height="33.0679" rx="2.5" ry="2.5" style="stroke:#181818;stroke-width:0.5;" width="71" x="373" y="251.2539"/><text fill="#000000" font-family="sans-serif" font-size="14" lengthAdjust="spacing" textLength="57" x="380" y="273.2198">Platform</text><polygon fill="#181818" points="396.5,153.8419,406.5,157.8419,396.5,161.8419,400.5,157.8419" style="stroke:#181818;stroke-width:1.0;"/><line style="stroke:#181818;stroke-width:1.0;" x1="23.5" x2="402.5" y1="157.8419" y2="157.8419"/><text fill="#000000" font-family="sans-serif" font-size="13" lengthAdjust="spacing" textLength="184" x="30.5" y="152.0328">Select save contacts list button</text><polygon fill="#181818" points="97.5,185.5479,87.5,189.5479,97.5,193.5479,93.5,189.5479" style="stroke:#181818;stroke-width:1.0;"/><line style="stroke:#181818;stroke-width:1.0;" x1="91.5" x2="407.5" y1="189.5479" y2="189.5479"/><text fill="#000000" font-family="sans-serif" font-size="13" lengthAdjust="spacing" textLength="195" x="103.5" y="183.7389">Save contacts list in local storage</text><line style="stroke:#181818;stroke-width:1.0;stroke-dasharray:2.0,2.0;" x1="86.5" x2="128.5" y1="221.2539" y2="221.2539"/><line style="stroke:#181818;stroke-width:1.0;stroke-dasharray:2.0,2.0;" x1="128.5" x2="128.5" y1="221.2539" y2="234.2539"/><line style="stroke:#181818;stroke-width:1.0;stroke-dasharray:2.0,2.0;" x1="87.5" x2="128.5" y1="234.2539" y2="234.2539"/><polygon fill="#181818" points="97.5,230.2539,87.5,234.2539,97.5,238.2539,93.5,234.2539" style="stroke:#181818;stroke-width:1.0;"/><text fill="#000000" font-family="sans-serif" font-size="13" lengthAdjust="spacing" textLength="308" x="93.5" y="215.4449">Save contacts list in local database using shared link</text><!--MD5=[7768b4f7971a747c12e51e086fa9b6b4]
@startuml 004-save-contacts-list

title "004 - Save contacts list"

actor User
participant Browser #MintCream
participant "Platform" as PL #MistyRose

User -> PL: Select save contacts list button
PL -> Browser: Save contacts list in local storage
Browser - -> Browser: Save contacts list in local database using shared link

@enduml

PlantUML version 1.2022.7(Mon Aug 22 18:01:30 WEST 2022)
(GPL source distribution)
Java Runtime: OpenJDK Runtime Environment
JVM: OpenJDK 64-Bit Server VM
Default Encoding: ANSI_X3.4-1968
Language: en
Country: US
--></g></svg>