<?xml version="1.0" encoding="us-ascii" standalone="no"?><svg xmlns="http://www.w3.org/2000/svg" xmlns:xlink="http://www.w3.org/1999/xlink" contentStyleType="text/css" height="639px" preserveAspectRatio="none" style="width:1178px;height:639px;background:#FFFFFF;" version="1.1" viewBox="0 0 1178 639" width="1178px" zoomAndPan="magnify"><defs/><g><text fill="#000000" font-family="sans-serif" font-size="14" font-weight="bold" lengthAdjust="spacing" textLength="157" x="509.75" y="29.9659">004 - Save contacts list</text><line style="stroke:#181818;stroke-width:0.5;stroke-dasharray:5.0,5.0;" x1="23" x2="23" y1="124.1358" y2="556.314"/><line style="stroke:#181818;stroke-width:0.5;stroke-dasharray:5.0,5.0;" x1="222" x2="222" y1="124.1358" y2="556.314"/><line style="stroke:#181818;stroke-width:0.5;stroke-dasharray:5.0,5.0;" x1="468" x2="468" y1="124.1358" y2="556.314"/><line style="stroke:#181818;stroke-width:0.5;stroke-dasharray:5.0,5.0;" x1="770" x2="770" y1="124.1358" y2="556.314"/><line style="stroke:#181818;stroke-width:0.5;stroke-dasharray:5.0,5.0;" x1="1092.5" x2="1092.5" y1="124.1358" y2="556.314"/><text fill="#000000" font-family="sans-serif" font-size="14" lengthAdjust="spacing" textLength="31" x="5" y="120.0339">User</text><ellipse cx="23.5" cy="53.5679" fill="#E2E2F0" rx="8" ry="8" style="stroke:#181818;stroke-width:0.5;"/><path d="M23.5,61.5679 L23.5,88.5679 M10.5,69.5679 L36.5,69.5679 M23.5,88.5679 L10.5,103.5679 M23.5,88.5679 L36.5,103.5679 " fill="none" style="stroke:#181818;stroke-width:0.5;"/><text fill="#000000" font-family="sans-serif" font-size="14" lengthAdjust="spacing" textLength="31" x="5" y="570.28">User</text><ellipse cx="23.5" cy="582.882" fill="#E2E2F0" rx="8" ry="8" style="stroke:#181818;stroke-width:0.5;"/><path d="M23.5,590.882 L23.5,617.882 M10.5,598.882 L36.5,598.882 M23.5,617.882 L10.5,632.882 M23.5,617.882 L36.5,632.882 " fill="none" style="stroke:#181818;stroke-width:0.5;"/><rect fill="#F5FFFA" height="33.0679" rx="2.5" ry="2.5" style="stroke:#181818;stroke-width:0.5;" width="69" x="188" y="90.0679"/><text fill="#000000" font-family="sans-serif" font-size="14" lengthAdjust="spacing" textLength="55" x="195" y="112.0339">Browser</text><rect fill="#F5FFFA" height="33.0679" rx="2.5" ry="2.5" style="stroke:#181818;stroke-width:0.5;" width="69" x="188" y="555.314"/><text fill="#000000" font-family="sans-serif" font-size="14" lengthAdjust="spacing" textLength="55" x="195" y="577.28">Browser</text><rect fill="#FFE4E1" height="33.0679" rx="2.5" ry="2.5" style="stroke:#181818;stroke-width:0.5;" width="71" x="433" y="90.0679"/><text fill="#000000" font-family="sans-serif" font-size="14" lengthAdjust="spacing" textLength="57" x="440" y="112.0339">Platform</text><rect fill="#FFE4E1" height="33.0679" rx="2.5" ry="2.5" style="stroke:#181818;stroke-width:0.5;" width="71" x="433" y="555.314"/><text fill="#000000" font-family="sans-serif" font-size="14" lengthAdjust="spacing" textLength="57" x="440" y="577.28">Platform</text><rect fill="#DDA0DD" height="33.0679" rx="2.5" ry="2.5" style="stroke:#181818;stroke-width:0.5;" width="163" x="689" y="90.0679"/><text fill="#000000" font-family="sans-serif" font-size="14" lengthAdjust="spacing" textLength="149" x="696" y="112.0339">Contacts Manager API</text><rect fill="#DDA0DD" height="33.0679" rx="2.5" ry="2.5" style="stroke:#181818;stroke-width:0.5;" width="163" x="689" y="555.314"/><text fill="#000000" font-family="sans-serif" font-size="14" lengthAdjust="spacing" textLength="149" x="696" y="577.28">Contacts Manager API</text><rect fill="#DDA0DD" height="33.0679" rx="2.5" ry="2.5" style="stroke:#181818;stroke-width:0.5;" width="160" x="1012.5" y="90.0679"/><text fill="#000000" font-family="sans-serif" font-size="14" lengthAdjust="spacing" textLength="146" x="1019.5" y="112.0339">Contacts Manager DB</text><rect fill="#DDA0DD" height="33.0679" rx="2.5" ry="2.5" style="stroke:#181818;stroke-width:0.5;" width="160" x="1012.5" y="555.314"/><text fill="#000000" font-family="sans-serif" font-size="14" lengthAdjust="spacing" textLength="146" x="1019.5" y="577.28">Contacts Manager DB</text><polygon fill="#181818" points="210.5,153.8419,220.5,157.8419,210.5,161.8419,214.5,157.8419" style="stroke:#181818;stroke-width:1.0;"/><line style="stroke:#181818;stroke-width:1.0;" x1="23.5" x2="216.5" y1="157.8419" y2="157.8419"/><text fill="#000000" font-family="sans-serif" font-size="13" lengthAdjust="spacing" textLength="175" x="30.5" y="152.0328">Open shared contacts list link</text><polygon fill="#181818" points="456.5,185.5479,466.5,189.5479,456.5,193.5479,460.5,189.5479" style="stroke:#181818;stroke-width:1.0;"/><line style="stroke:#181818;stroke-width:1.0;" x1="222.5" x2="462.5" y1="189.5479" y2="189.5479"/><text fill="#000000" font-family="sans-serif" font-size="13" lengthAdjust="spacing" textLength="222" x="229.5" y="183.7389">GET /&lt;contacts-document-reference&gt;</text><polygon fill="#181818" points="758.5,217.2539,768.5,221.2539,758.5,225.2539,762.5,221.2539" style="stroke:#181818;stroke-width:1.0;"/><line style="stroke:#181818;stroke-width:1.0;" x1="468.5" x2="764.5" y1="221.2539" y2="221.2539"/><text fill="#000000" font-family="sans-serif" font-size="13" lengthAdjust="spacing" textLength="278" x="475.5" y="215.4449">GET /contacts/&lt;contacts-document-reference&gt;</text><polygon fill="#181818" points="1080.5,248.9599,1090.5,252.9599,1080.5,256.9599,1084.5,252.9599" style="stroke:#181818;stroke-width:1.0;"/><line style="stroke:#181818;stroke-width:1.0;" x1="770.5" x2="1086.5" y1="252.9599" y2="252.9599"/><text fill="#000000" font-family="sans-serif" font-size="13" lengthAdjust="spacing" textLength="298" x="777.5" y="247.1509">Find encrypted contacts list with specific reference</text><polygon fill="#181818" points="781.5,280.6659,771.5,284.6659,781.5,288.6659,777.5,284.6659" style="stroke:#181818;stroke-width:1.0;"/><line style="stroke:#181818;stroke-width:1.0;stroke-dasharray:2.0,2.0;" x1="775.5" x2="1091.5" y1="284.6659" y2="284.6659"/><text fill="#000000" font-family="sans-serif" font-size="13" lengthAdjust="spacing" textLength="185" x="787.5" y="278.8569">JSON { encrypted contacts list }</text><polygon fill="#181818" points="479.5,312.3719,469.5,316.3719,479.5,320.3719,475.5,316.3719" style="stroke:#181818;stroke-width:1.0;"/><line style="stroke:#181818;stroke-width:1.0;stroke-dasharray:2.0,2.0;" x1="473.5" x2="769.5" y1="316.3719" y2="316.3719"/><text fill="#000000" font-family="sans-serif" font-size="13" lengthAdjust="spacing" textLength="185" x="485.5" y="310.5629">JSON { encrypted contacts list }</text><polygon fill="#181818" points="34.5,344.0779,24.5,348.0779,34.5,352.0779,30.5,348.0779" style="stroke:#181818;stroke-width:1.0;"/><line style="stroke:#181818;stroke-width:1.0;stroke-dasharray:2.0,2.0;" x1="28.5" x2="467.5" y1="348.0779" y2="348.0779"/><text fill="#000000" font-family="sans-serif" font-size="13" lengthAdjust="spacing" textLength="161" x="40.5" y="342.2689">Renders public key prompt</text><polygon fill="#181818" points="456.5,375.784,466.5,379.784,456.5,383.784,460.5,379.784" style="stroke:#181818;stroke-width:1.0;"/><line style="stroke:#181818;stroke-width:1.0;" x1="23.5" x2="462.5" y1="379.784" y2="379.784"/><text fill="#000000" font-family="sans-serif" font-size="13" lengthAdjust="spacing" textLength="104" x="30.5" y="373.975">Inserts public key</text><polygon fill="#181818" points="233.5,407.49,223.5,411.49,233.5,415.49,229.5,411.49" style="stroke:#181818;stroke-width:1.0;"/><line style="stroke:#181818;stroke-width:1.0;" x1="227.5" x2="467.5" y1="411.49" y2="411.49"/><text fill="#000000" font-family="sans-serif" font-size="13" lengthAdjust="spacing" textLength="121" x="239.5" y="405.681">Decrypt contacts list</text><polygon fill="#181818" points="456.5,439.196,466.5,443.196,456.5,447.196,460.5,443.196" style="stroke:#181818;stroke-width:1.0;"/><line style="stroke:#181818;stroke-width:1.0;stroke-dasharray:2.0,2.0;" x1="222.5" x2="462.5" y1="443.196" y2="443.196"/><text fill="#000000" font-family="sans-serif" font-size="13" lengthAdjust="spacing" textLength="121" x="229.5" y="437.387">JSON { contacts list }</text><polygon fill="#181818" points="34.5,470.902,24.5,474.902,34.5,478.902,30.5,474.902" style="stroke:#181818;stroke-width:1.0;"/><line style="stroke:#181818;stroke-width:1.0;stroke-dasharray:2.0,2.0;" x1="28.5" x2="467.5" y1="474.902" y2="474.902"/><text fill="#000000" font-family="sans-serif" font-size="13" lengthAdjust="spacing" textLength="150" x="40.5" y="469.093">Render contacts list page</text><polygon fill="#181818" points="456.5,502.608,466.5,506.608,456.5,510.608,460.5,506.608" style="stroke:#181818;stroke-width:1.0;"/><line style="stroke:#181818;stroke-width:1.0;" x1="23.5" x2="462.5" y1="506.608" y2="506.608"/><text fill="#000000" font-family="sans-serif" font-size="13" lengthAdjust="spacing" textLength="184" x="30.5" y="500.799">Select save contacts list button</text><polygon fill="#181818" points="233.5,534.314,223.5,538.314,233.5,542.314,229.5,538.314" style="stroke:#181818;stroke-width:1.0;"/><line style="stroke:#181818;stroke-width:1.0;" x1="227.5" x2="467.5" y1="538.314" y2="538.314"/><text fill="#000000" font-family="sans-serif" font-size="13" lengthAdjust="spacing" textLength="195" x="239.5" y="532.505">Save contacts list in local storage</text><!--SRC=[ZPFBRi8m44Nt-OfHM4TbqHMga0gq5HMFYCUwCivGB1pRiYT5gEg_Tm894515Dr5YdvbxxsX2YZH2t6u_GW9pyOKWhI4XAO1MWU8eudVhOHdGHqvuKb8vOGXwtkxu35fZPQZlKUIDwpZLWjRMvp680Ecev0BjPpPWa-lNScDXn2StV4w7Xvh-P06jL1Vv7NxGg_6FGQ-gY4gxa7HhbnsOEZGGDi9Zrap83xEDwZHSaeuwyFQoW8UdcaioAuiS3IKUr-ZHIEn678bXLgte6hvJLgOwrh7R3hmgam7V-BsZ6sSxHHi83gLQAmcd9b4LDQdrt-VJ2Np_sURdA5f5kmkNmPXT7iOsGvEX3-2AbMOFMzo3ypPtT1vnsNHe-8CkiMe-f_aFyA3NL3kFlMdk7vQk6CUhqBGqHusI8DoiDAmA8ckk3TxkFYW3sagX8V0VK0hy0W00]--></g></svg>