<?xml version="1.0" encoding="us-ascii" standalone="no"?><svg xmlns="http://www.w3.org/2000/svg" xmlns:xlink="http://www.w3.org/1999/xlink" contentStyleType="text/css" height="1040px" preserveAspectRatio="none" style="width:1192px;height:1040px;background:#FFFFFF;" version="1.1" viewBox="0 0 1192 1040" width="1192px" zoomAndPan="magnify"><defs/><g><text fill="#000000" font-family="sans-serif" font-size="14" font-weight="bold" lengthAdjust="spacing" textLength="174" x="508.25" y="29.9659">005 - Import contacts list</text><line style="stroke:#181818;stroke-width:0.5;stroke-dasharray:5.0,5.0;" x1="23" x2="23" y1="124.1358" y2="957.0802"/><line style="stroke:#181818;stroke-width:0.5;stroke-dasharray:5.0,5.0;" x1="243" x2="243" y1="124.1358" y2="957.0802"/><line style="stroke:#181818;stroke-width:0.5;stroke-dasharray:5.0,5.0;" x1="499" x2="499" y1="124.1358" y2="957.0802"/><line style="stroke:#181818;stroke-width:0.5;stroke-dasharray:5.0,5.0;" x1="784" x2="784" y1="124.1358" y2="957.0802"/><line style="stroke:#181818;stroke-width:0.5;stroke-dasharray:5.0,5.0;" x1="1106.5" x2="1106.5" y1="124.1358" y2="957.0802"/><text fill="#000000" font-family="sans-serif" font-size="14" lengthAdjust="spacing" textLength="31" x="5" y="120.0339">User</text><ellipse cx="23.5" cy="53.5679" fill="#E2E2F0" rx="8" ry="8" style="stroke:#181818;stroke-width:0.5;"/><path d="M23.5,61.5679 L23.5,88.5679 M10.5,69.5679 L36.5,69.5679 M23.5,88.5679 L10.5,103.5679 M23.5,88.5679 L36.5,103.5679 " fill="none" style="stroke:#181818;stroke-width:0.5;"/><text fill="#000000" font-family="sans-serif" font-size="14" lengthAdjust="spacing" textLength="31" x="5" y="971.0462">User</text><ellipse cx="23.5" cy="983.6481" fill="#E2E2F0" rx="8" ry="8" style="stroke:#181818;stroke-width:0.5;"/><path d="M23.5,991.6481 L23.5,1018.6481 M10.5,999.6481 L36.5,999.6481 M23.5,1018.6481 L10.5,1033.6481 M23.5,1018.6481 L36.5,1033.6481 " fill="none" style="stroke:#181818;stroke-width:0.5;"/><rect fill="#FFE4E1" height="33.0679" rx="2.5" ry="2.5" style="stroke:#181818;stroke-width:0.5;" width="71" x="208" y="90.0679"/><text fill="#000000" font-family="sans-serif" font-size="14" lengthAdjust="spacing" textLength="57" x="215" y="112.0339">Platform</text><rect fill="#FFE4E1" height="33.0679" rx="2.5" ry="2.5" style="stroke:#181818;stroke-width:0.5;" width="71" x="208" y="956.0802"/><text fill="#000000" font-family="sans-serif" font-size="14" lengthAdjust="spacing" textLength="57" x="215" y="978.0462">Platform</text><rect fill="#F5FFFA" height="33.0679" rx="2.5" ry="2.5" style="stroke:#181818;stroke-width:0.5;" width="69" x="465" y="90.0679"/><text fill="#000000" font-family="sans-serif" font-size="14" lengthAdjust="spacing" textLength="55" x="472" y="112.0339">Browser</text><rect fill="#F5FFFA" height="33.0679" rx="2.5" ry="2.5" style="stroke:#181818;stroke-width:0.5;" width="69" x="465" y="956.0802"/><text fill="#000000" font-family="sans-serif" font-size="14" lengthAdjust="spacing" textLength="55" x="472" y="978.0462">Browser</text><rect fill="#DDA0DD" height="33.0679" rx="2.5" ry="2.5" style="stroke:#181818;stroke-width:0.5;" width="163" x="703" y="90.0679"/><text fill="#000000" font-family="sans-serif" font-size="14" lengthAdjust="spacing" textLength="149" x="710" y="112.0339">Contacts Manager API</text><rect fill="#DDA0DD" height="33.0679" rx="2.5" ry="2.5" style="stroke:#181818;stroke-width:0.5;" width="163" x="703" y="956.0802"/><text fill="#000000" font-family="sans-serif" font-size="14" lengthAdjust="spacing" textLength="149" x="710" y="978.0462">Contacts Manager API</text><rect fill="#DDA0DD" height="33.0679" rx="2.5" ry="2.5" style="stroke:#181818;stroke-width:0.5;" width="160" x="1026.5" y="90.0679"/><text fill="#000000" font-family="sans-serif" font-size="14" lengthAdjust="spacing" textLength="146" x="1033.5" y="112.0339">Contacts Manager DB</text><rect fill="#DDA0DD" height="33.0679" rx="2.5" ry="2.5" style="stroke:#181818;stroke-width:0.5;" width="160" x="1026.5" y="956.0802"/><text fill="#000000" font-family="sans-serif" font-size="14" lengthAdjust="spacing" textLength="146" x="1033.5" y="978.0462">Contacts Manager DB</text><polygon fill="#181818" points="231.5,153.8419,241.5,157.8419,231.5,161.8419,235.5,157.8419" style="stroke:#181818;stroke-width:1.0;"/><line style="stroke:#181818;stroke-width:1.0;" x1="23.5" x2="237.5" y1="157.8419" y2="157.8419"/><text fill="#000000" font-family="sans-serif" font-size="13" lengthAdjust="spacing" textLength="196" x="30.5" y="152.0328">Clicks import contacts list button</text><polygon fill="#181818" points="34.5,185.5479,24.5,189.5479,34.5,193.5479,30.5,189.5479" style="stroke:#181818;stroke-width:1.0;"/><line style="stroke:#181818;stroke-width:1.0;stroke-dasharray:2.0,2.0;" x1="28.5" x2="242.5" y1="189.5479" y2="189.5479"/><text fill="#000000" font-family="sans-serif" font-size="13" lengthAdjust="spacing" textLength="126" x="40.5" y="183.7389">Renders URL prompt</text><polygon fill="#181818" points="231.5,217.2539,241.5,221.2539,231.5,225.2539,235.5,221.2539" style="stroke:#181818;stroke-width:1.0;"/><line style="stroke:#181818;stroke-width:1.0;" x1="23.5" x2="237.5" y1="221.2539" y2="221.2539"/><text fill="#000000" font-family="sans-serif" font-size="13" lengthAdjust="spacing" textLength="69" x="30.5" y="215.4449">Inserts URL</text><polygon fill="#181818" points="772.5,248.9599,782.5,252.9599,772.5,256.9599,776.5,252.9599" style="stroke:#181818;stroke-width:1.0;"/><line style="stroke:#181818;stroke-width:1.0;" x1="243.5" x2="778.5" y1="252.9599" y2="252.9599"/><text fill="#000000" font-family="sans-serif" font-size="13" lengthAdjust="spacing" textLength="278" x="250.5" y="247.1509">GET /contacts/&lt;contacts-document-reference&gt;</text><polygon fill="#181818" points="1094.5,280.6659,1104.5,284.6659,1094.5,288.6659,1098.5,284.6659" style="stroke:#181818;stroke-width:1.0;"/><line style="stroke:#181818;stroke-width:1.0;" x1="784.5" x2="1100.5" y1="284.6659" y2="284.6659"/><text fill="#000000" font-family="sans-serif" font-size="13" lengthAdjust="spacing" textLength="298" x="791.5" y="278.8569">Find encrypted contacts list with specific reference</text><polygon fill="#181818" points="795.5,312.3719,785.5,316.3719,795.5,320.3719,791.5,316.3719" style="stroke:#181818;stroke-width:1.0;"/><line style="stroke:#181818;stroke-width:1.0;stroke-dasharray:2.0,2.0;" x1="789.5" x2="1105.5" y1="316.3719" y2="316.3719"/><text fill="#000000" font-family="sans-serif" font-size="13" lengthAdjust="spacing" textLength="185" x="801.5" y="310.5629">JSON { encrypted contacts list }</text><polygon fill="#181818" points="254.5,344.0779,244.5,348.0779,254.5,352.0779,250.5,348.0779" style="stroke:#181818;stroke-width:1.0;"/><line style="stroke:#181818;stroke-width:1.0;stroke-dasharray:2.0,2.0;" x1="248.5" x2="783.5" y1="348.0779" y2="348.0779"/><text fill="#000000" font-family="sans-serif" font-size="13" lengthAdjust="spacing" textLength="185" x="260.5" y="342.2689">JSON { encrypted contacts list }</text><polygon fill="#181818" points="34.5,375.784,24.5,379.784,34.5,383.784,30.5,379.784" style="stroke:#181818;stroke-width:1.0;"/><line style="stroke:#181818;stroke-width:1.0;stroke-dasharray:2.0,2.0;" x1="28.5" x2="242.5" y1="379.784" y2="379.784"/><text fill="#000000" font-family="sans-serif" font-size="13" lengthAdjust="spacing" textLength="161" x="40.5" y="373.975">Renders public key prompt</text><polygon fill="#181818" points="231.5,407.49,241.5,411.49,231.5,415.49,235.5,411.49" style="stroke:#181818;stroke-width:1.0;"/><line style="stroke:#181818;stroke-width:1.0;" x1="23.5" x2="237.5" y1="411.49" y2="411.49"/><text fill="#000000" font-family="sans-serif" font-size="13" lengthAdjust="spacing" textLength="104" x="30.5" y="405.681">Inserts public key</text><polygon fill="#181818" points="487.5,439.196,497.5,443.196,487.5,447.196,491.5,443.196" style="stroke:#181818;stroke-width:1.0;"/><line style="stroke:#181818;stroke-width:1.0;" x1="243.5" x2="493.5" y1="443.196" y2="443.196"/><text fill="#000000" font-family="sans-serif" font-size="13" lengthAdjust="spacing" textLength="121" x="250.5" y="437.387">Decrypt contacts list</text><polygon fill="#181818" points="254.5,470.902,244.5,474.902,254.5,478.902,250.5,474.902" style="stroke:#181818;stroke-width:1.0;"/><line style="stroke:#181818;stroke-width:1.0;stroke-dasharray:2.0,2.0;" x1="248.5" x2="498.5" y1="474.902" y2="474.902"/><text fill="#000000" font-family="sans-serif" font-size="13" lengthAdjust="spacing" textLength="121" x="260.5" y="469.093">JSON { contacts list }</text><polygon fill="#181818" points="487.5,502.608,497.5,506.608,487.5,510.608,491.5,506.608" style="stroke:#181818;stroke-width:1.0;"/><line style="stroke:#181818;stroke-width:1.0;" x1="243.5" x2="493.5" y1="506.608" y2="506.608"/><text fill="#000000" font-family="sans-serif" font-size="13" lengthAdjust="spacing" textLength="189" x="250.5" y="500.799">Generate private and public key</text><line style="stroke:#181818;stroke-width:1.0;stroke-dasharray:2.0,2.0;" x1="499.5" x2="541.5" y1="538.314" y2="538.314"/><line style="stroke:#181818;stroke-width:1.0;stroke-dasharray:2.0,2.0;" x1="541.5" x2="541.5" y1="538.314" y2="551.314"/><line style="stroke:#181818;stroke-width:1.0;stroke-dasharray:2.0,2.0;" x1="500.5" x2="541.5" y1="551.314" y2="551.314"/><polygon fill="#181818" points="510.5,547.314,500.5,551.314,510.5,555.314,506.5,551.314" style="stroke:#181818;stroke-width:1.0;"/><text fill="#000000" font-family="sans-serif" font-size="13" lengthAdjust="spacing" textLength="193" x="506.5" y="532.505">Save public key in local database</text><line style="stroke:#181818;stroke-width:1.0;stroke-dasharray:2.0,2.0;" x1="499.5" x2="541.5" y1="583.0201" y2="583.0201"/><line style="stroke:#181818;stroke-width:1.0;stroke-dasharray:2.0,2.0;" x1="541.5" x2="541.5" y1="583.0201" y2="596.0201"/><line style="stroke:#181818;stroke-width:1.0;stroke-dasharray:2.0,2.0;" x1="500.5" x2="541.5" y1="596.0201" y2="596.0201"/><polygon fill="#181818" points="510.5,592.0201,500.5,596.0201,510.5,600.0201,506.5,596.0201" style="stroke:#181818;stroke-width:1.0;"/><text fill="#000000" font-family="sans-serif" font-size="13" lengthAdjust="spacing" textLength="199" x="506.5" y="577.2111">Save private key in local database</text><line style="stroke:#181818;stroke-width:1.0;stroke-dasharray:2.0,2.0;" x1="499.5" x2="541.5" y1="627.7261" y2="627.7261"/><line style="stroke:#181818;stroke-width:1.0;stroke-dasharray:2.0,2.0;" x1="541.5" x2="541.5" y1="627.7261" y2="640.7261"/><line style="stroke:#181818;stroke-width:1.0;stroke-dasharray:2.0,2.0;" x1="500.5" x2="541.5" y1="640.7261" y2="640.7261"/><polygon fill="#181818" points="510.5,636.7261,500.5,640.7261,510.5,644.7261,506.5,640.7261" style="stroke:#181818;stroke-width:1.0;"/><text fill="#000000" font-family="sans-serif" font-size="13" lengthAdjust="spacing" textLength="130" x="506.5" y="621.9171">Download private key</text><polygon fill="#181818" points="254.5,668.4321,244.5,672.4321,254.5,676.4321,250.5,672.4321" style="stroke:#181818;stroke-width:1.0;"/><line style="stroke:#181818;stroke-width:1.0;stroke-dasharray:2.0,2.0;" x1="248.5" x2="498.5" y1="672.4321" y2="672.4321"/><text fill="#000000" font-family="sans-serif" font-size="13" lengthAdjust="spacing" textLength="110" x="260.5" y="666.6231">Returns public key</text><polygon fill="#181818" points="487.5,700.1381,497.5,704.1381,487.5,708.1381,491.5,704.1381" style="stroke:#181818;stroke-width:1.0;"/><line style="stroke:#181818;stroke-width:1.0;" x1="243.5" x2="493.5" y1="704.1381" y2="704.1381"/><text fill="#000000" font-family="sans-serif" font-size="13" lengthAdjust="spacing" textLength="232" x="250.5" y="698.3291">Encrypt local database with private key</text><line style="stroke:#181818;stroke-width:1.0;stroke-dasharray:2.0,2.0;" x1="499.5" x2="541.5" y1="735.8441" y2="735.8441"/><line style="stroke:#181818;stroke-width:1.0;stroke-dasharray:2.0,2.0;" x1="541.5" x2="541.5" y1="735.8441" y2="748.8441"/><line style="stroke:#181818;stroke-width:1.0;stroke-dasharray:2.0,2.0;" x1="500.5" x2="541.5" y1="748.8441" y2="748.8441"/><polygon fill="#181818" points="510.5,744.8441,500.5,748.8441,510.5,752.8441,506.5,748.8441" style="stroke:#181818;stroke-width:1.0;"/><text fill="#000000" font-family="sans-serif" font-size="13" lengthAdjust="spacing" textLength="271" x="506.5" y="730.0351">Generate document reference with public key</text><polygon fill="#181818" points="254.5,776.5501,244.5,780.5501,254.5,784.5501,250.5,780.5501" style="stroke:#181818;stroke-width:1.0;"/><line style="stroke:#181818;stroke-width:1.0;stroke-dasharray:2.0,2.0;" x1="248.5" x2="498.5" y1="780.5501" y2="780.5501"/><text fill="#000000" font-family="sans-serif" font-size="13" lengthAdjust="spacing" textLength="185" x="260.5" y="774.7411">JSON { encrypted contacts list }</text><polygon fill="#181818" points="772.5,808.2562,782.5,812.2562,772.5,816.2562,776.5,812.2562" style="stroke:#181818;stroke-width:1.0;"/><line style="stroke:#181818;stroke-width:1.0;" x1="243.5" x2="778.5" y1="812.2562" y2="812.2562"/><text fill="#000000" font-family="sans-serif" font-size="13" lengthAdjust="spacing" textLength="279" x="250.5" y="806.4472">POST /contacts JSON { encrypted contacts list }</text><polygon fill="#181818" points="1094.5,839.9622,1104.5,843.9622,1094.5,847.9622,1098.5,843.9622" style="stroke:#181818;stroke-width:1.0;"/><line style="stroke:#181818;stroke-width:1.0;" x1="784.5" x2="1100.5" y1="843.9622" y2="843.9622"/><text fill="#000000" font-family="sans-serif" font-size="13" lengthAdjust="spacing" textLength="62" x="791.5" y="838.1532">Save JSON</text><polygon fill="#181818" points="795.5,871.6682,785.5,875.6682,795.5,879.6682,791.5,875.6682" style="stroke:#181818;stroke-width:1.0;"/><line style="stroke:#181818;stroke-width:1.0;stroke-dasharray:2.0,2.0;" x1="789.5" x2="1105.5" y1="875.6682" y2="875.6682"/><text fill="#000000" font-family="sans-serif" font-size="13" lengthAdjust="spacing" textLength="160" x="801.5" y="869.8592">Saved document reference</text><polygon fill="#181818" points="254.5,903.3742,244.5,907.3742,254.5,911.3742,250.5,907.3742" style="stroke:#181818;stroke-width:1.0;"/><line style="stroke:#181818;stroke-width:1.0;stroke-dasharray:2.0,2.0;" x1="248.5" x2="783.5" y1="907.3742" y2="907.3742"/><text fill="#000000" font-family="sans-serif" font-size="13" lengthAdjust="spacing" textLength="171" x="260.5" y="901.5652">JSON { document reference }</text><polygon fill="#181818" points="34.5,935.0802,24.5,939.0802,34.5,943.0802,30.5,939.0802" style="stroke:#181818;stroke-width:1.0;"/><line style="stroke:#181818;stroke-width:1.0;stroke-dasharray:2.0,2.0;" x1="28.5" x2="242.5" y1="939.0802" y2="939.0802"/><text fill="#000000" font-family="sans-serif" font-size="13" lengthAdjust="spacing" textLength="179" x="40.5" y="933.2712">Render saved contacts list link</text><!--SRC=[bLF9Ri8m4BtxAqRq7C6bbwX2AaihgYuHoxaopj1QE7PaJufGnR_N2Gaa46XxIYBFM-RbcIGfX4wlTmi1J9BKM09XD7513fHqr67ClniB2uUMfToI53Bbcg0JAKuhOvCES0VHCzoy-Fdjr3Xip0sisNXiVgnfQ94dJPfX9VV2DV_mW_VHfA0SlixX9bBPR_EZGJN-FXgK29RRXQ3lVOKmL5Ai7SYMzM2P4HdDlFt0J-Ue4AQeOxGE5jDdIAr9KchGJRJ_eEAO5S1-hXt2utWEtOgzUrUz1R4HMOAQ0eihjAW5zbc-snxdFOVm87KC_iHkKyBunE96qYUu58LSIG474bOk75JwJxEtL_Y-IBFRYvPB_3hS7acQBNsOiCRjjMIEKrL0PGb2664Xs9HZLKTEtBLwgf4zeaRB2RqN-PK_kO-n9bwdFO1c_0lhUqWDoWYk8ER4bzotzmgirFa7RcGsMXaUrx5d-qwHCgkl1ZVU_waJpNqvBb6V1rLryLYZag4zj3yrfNO5ehTPxGxyiP77Qr1ad8FEkfsVn2tksphTikEkhStW2jAc9oNrclq0]--></g></svg>