<?xml version="1.0" encoding="us-ascii" standalone="no"?><svg xmlns="http://www.w3.org/2000/svg" xmlns:xlink="http://www.w3.org/1999/xlink" contentStyleType="text/css" height="1117px" preserveAspectRatio="none" style="width:1228px;height:1117px;background:#FFFFFF;" version="1.1" viewBox="0 0 1228 1117" width="1228px" zoomAndPan="magnify"><defs/><g><text fill="#000000" font-family="sans-serif" font-size="14" font-weight="bold" lengthAdjust="spacing" textLength="174" x="526.25" y="29.9659">005 - Import contacts list</text><line style="stroke:#181818;stroke-width:0.5;stroke-dasharray:5.0,5.0;" x1="23" x2="23" y1="124.1358" y2="1033.4923"/><line style="stroke:#181818;stroke-width:0.5;stroke-dasharray:5.0,5.0;" x1="243" x2="243" y1="124.1358" y2="1033.4923"/><line style="stroke:#181818;stroke-width:0.5;stroke-dasharray:5.0,5.0;" x1="579" x2="579" y1="124.1358" y2="1033.4923"/><line style="stroke:#181818;stroke-width:0.5;stroke-dasharray:5.0,5.0;" x1="792" x2="792" y1="124.1358" y2="1033.4923"/><line style="stroke:#181818;stroke-width:0.5;stroke-dasharray:5.0,5.0;" x1="1142.5" x2="1142.5" y1="124.1358" y2="1033.4923"/><text fill="#000000" font-family="sans-serif" font-size="14" lengthAdjust="spacing" textLength="31" x="5" y="120.0339">User</text><ellipse cx="23.5" cy="53.5679" fill="#E2E2F0" rx="8" ry="8" style="stroke:#181818;stroke-width:0.5;"/><path d="M23.5,61.5679 L23.5,88.5679 M10.5,69.5679 L36.5,69.5679 M23.5,88.5679 L10.5,103.5679 M23.5,88.5679 L36.5,103.5679 " fill="none" style="stroke:#181818;stroke-width:0.5;"/><text fill="#000000" font-family="sans-serif" font-size="14" lengthAdjust="spacing" textLength="31" x="5" y="1047.4582">User</text><ellipse cx="23.5" cy="1060.0602" fill="#E2E2F0" rx="8" ry="8" style="stroke:#181818;stroke-width:0.5;"/><path d="M23.5,1068.0602 L23.5,1095.0602 M10.5,1076.0602 L36.5,1076.0602 M23.5,1095.0602 L10.5,1110.0602 M23.5,1095.0602 L36.5,1110.0602 " fill="none" style="stroke:#181818;stroke-width:0.5;"/><rect fill="#FFE4E1" height="33.0679" rx="2.5" ry="2.5" style="stroke:#181818;stroke-width:0.5;" width="71" x="208" y="90.0679"/><text fill="#000000" font-family="sans-serif" font-size="14" lengthAdjust="spacing" textLength="57" x="215" y="112.0339">Platform</text><rect fill="#FFE4E1" height="33.0679" rx="2.5" ry="2.5" style="stroke:#181818;stroke-width:0.5;" width="71" x="208" y="1032.4923"/><text fill="#000000" font-family="sans-serif" font-size="14" lengthAdjust="spacing" textLength="57" x="215" y="1054.4582">Platform</text><rect fill="#F5FFFA" height="33.0679" rx="2.5" ry="2.5" style="stroke:#181818;stroke-width:0.5;" width="69" x="545" y="90.0679"/><text fill="#000000" font-family="sans-serif" font-size="14" lengthAdjust="spacing" textLength="55" x="552" y="112.0339">Browser</text><rect fill="#F5FFFA" height="33.0679" rx="2.5" ry="2.5" style="stroke:#181818;stroke-width:0.5;" width="69" x="545" y="1032.4923"/><text fill="#000000" font-family="sans-serif" font-size="14" lengthAdjust="spacing" textLength="55" x="552" y="1054.4582">Browser</text><rect fill="#DDA0DD" height="33.0679" rx="2.5" ry="2.5" style="stroke:#181818;stroke-width:0.5;" width="163" x="711" y="90.0679"/><text fill="#000000" font-family="sans-serif" font-size="14" lengthAdjust="spacing" textLength="149" x="718" y="112.0339">Contacts Manager API</text><rect fill="#DDA0DD" height="33.0679" rx="2.5" ry="2.5" style="stroke:#181818;stroke-width:0.5;" width="163" x="711" y="1032.4923"/><text fill="#000000" font-family="sans-serif" font-size="14" lengthAdjust="spacing" textLength="149" x="718" y="1054.4582">Contacts Manager API</text><rect fill="#DDA0DD" height="33.0679" rx="2.5" ry="2.5" style="stroke:#181818;stroke-width:0.5;" width="160" x="1062.5" y="90.0679"/><text fill="#000000" font-family="sans-serif" font-size="14" lengthAdjust="spacing" textLength="146" x="1069.5" y="112.0339">Contacts Manager DB</text><rect fill="#DDA0DD" height="33.0679" rx="2.5" ry="2.5" style="stroke:#181818;stroke-width:0.5;" width="160" x="1062.5" y="1032.4923"/><text fill="#000000" font-family="sans-serif" font-size="14" lengthAdjust="spacing" textLength="146" x="1069.5" y="1054.4582">Contacts Manager DB</text><polygon fill="#181818" points="231.5,153.8419,241.5,157.8419,231.5,161.8419,235.5,157.8419" style="stroke:#181818;stroke-width:1.0;"/><line style="stroke:#181818;stroke-width:1.0;" x1="23.5" x2="237.5" y1="157.8419" y2="157.8419"/><text fill="#000000" font-family="sans-serif" font-size="13" lengthAdjust="spacing" textLength="196" x="30.5" y="152.0328">Clicks import contacts list button</text><polygon fill="#181818" points="34.5,185.5479,24.5,189.5479,34.5,193.5479,30.5,189.5479" style="stroke:#181818;stroke-width:1.0;"/><line style="stroke:#181818;stroke-width:1.0;stroke-dasharray:2.0,2.0;" x1="28.5" x2="242.5" y1="189.5479" y2="189.5479"/><text fill="#000000" font-family="sans-serif" font-size="13" lengthAdjust="spacing" textLength="126" x="40.5" y="183.7389">Renders URL prompt</text><polygon fill="#181818" points="231.5,217.2539,241.5,221.2539,231.5,225.2539,235.5,221.2539" style="stroke:#181818;stroke-width:1.0;"/><line style="stroke:#181818;stroke-width:1.0;" x1="23.5" x2="237.5" y1="221.2539" y2="221.2539"/><text fill="#000000" font-family="sans-serif" font-size="13" lengthAdjust="spacing" textLength="69" x="30.5" y="215.4449">Inserts URL</text><polygon fill="#181818" points="780.5,248.9599,790.5,252.9599,780.5,256.9599,784.5,252.9599" style="stroke:#181818;stroke-width:1.0;"/><line style="stroke:#181818;stroke-width:1.0;" x1="243.5" x2="786.5" y1="252.9599" y2="252.9599"/><text fill="#000000" font-family="sans-serif" font-size="13" lengthAdjust="spacing" textLength="278" x="250.5" y="247.1509">GET /contacts/&lt;contacts-document-reference&gt;</text><polygon fill="#181818" points="1130.5,280.6659,1140.5,284.6659,1130.5,288.6659,1134.5,284.6659" style="stroke:#181818;stroke-width:1.0;"/><line style="stroke:#181818;stroke-width:1.0;" x1="792.5" x2="1136.5" y1="284.6659" y2="284.6659"/><text fill="#000000" font-family="sans-serif" font-size="13" lengthAdjust="spacing" textLength="298" x="799.5" y="278.8569">Find encrypted contacts list with specific reference</text><polygon fill="#181818" points="803.5,312.3719,793.5,316.3719,803.5,320.3719,799.5,316.3719" style="stroke:#181818;stroke-width:1.0;"/><line style="stroke:#181818;stroke-width:1.0;stroke-dasharray:2.0,2.0;" x1="797.5" x2="1141.5" y1="316.3719" y2="316.3719"/><text fill="#000000" font-family="sans-serif" font-size="13" lengthAdjust="spacing" textLength="185" x="809.5" y="310.5629">JSON { encrypted contacts list }</text><polygon fill="#181818" points="254.5,344.0779,244.5,348.0779,254.5,352.0779,250.5,348.0779" style="stroke:#181818;stroke-width:1.0;"/><line style="stroke:#181818;stroke-width:1.0;stroke-dasharray:2.0,2.0;" x1="248.5" x2="791.5" y1="348.0779" y2="348.0779"/><text fill="#000000" font-family="sans-serif" font-size="13" lengthAdjust="spacing" textLength="185" x="260.5" y="342.2689">JSON { encrypted contacts list }</text><polygon fill="#181818" points="34.5,375.784,24.5,379.784,34.5,383.784,30.5,379.784" style="stroke:#181818;stroke-width:1.0;"/><line style="stroke:#181818;stroke-width:1.0;stroke-dasharray:2.0,2.0;" x1="28.5" x2="242.5" y1="379.784" y2="379.784"/><text fill="#000000" font-family="sans-serif" font-size="13" lengthAdjust="spacing" textLength="161" x="40.5" y="373.975">Renders public key prompt</text><polygon fill="#181818" points="231.5,407.49,241.5,411.49,231.5,415.49,235.5,411.49" style="stroke:#181818;stroke-width:1.0;"/><line style="stroke:#181818;stroke-width:1.0;" x1="23.5" x2="237.5" y1="411.49" y2="411.49"/><text fill="#000000" font-family="sans-serif" font-size="13" lengthAdjust="spacing" textLength="104" x="30.5" y="405.681">Inserts public key</text><polygon fill="#181818" points="567.5,439.196,577.5,443.196,567.5,447.196,571.5,443.196" style="stroke:#181818;stroke-width:1.0;"/><line style="stroke:#181818;stroke-width:1.0;" x1="243.5" x2="573.5" y1="443.196" y2="443.196"/><text fill="#000000" font-family="sans-serif" font-size="13" lengthAdjust="spacing" textLength="121" x="250.5" y="437.387">Decrypt contacts list</text><polygon fill="#181818" points="254.5,470.902,244.5,474.902,254.5,478.902,250.5,474.902" style="stroke:#181818;stroke-width:1.0;"/><line style="stroke:#181818;stroke-width:1.0;stroke-dasharray:2.0,2.0;" x1="248.5" x2="578.5" y1="474.902" y2="474.902"/><text fill="#000000" font-family="sans-serif" font-size="13" lengthAdjust="spacing" textLength="121" x="260.5" y="469.093">JSON { contacts list }</text><polygon fill="#181818" points="567.5,502.608,577.5,506.608,567.5,510.608,571.5,506.608" style="stroke:#181818;stroke-width:1.0;"/><line style="stroke:#181818;stroke-width:1.0;" x1="243.5" x2="573.5" y1="506.608" y2="506.608"/><text fill="#000000" font-family="sans-serif" font-size="13" lengthAdjust="spacing" textLength="189" x="250.5" y="500.799">Generate private and public key</text><line style="stroke:#181818;stroke-width:1.0;stroke-dasharray:2.0,2.0;" x1="579.5" x2="621.5" y1="538.314" y2="538.314"/><line style="stroke:#181818;stroke-width:1.0;stroke-dasharray:2.0,2.0;" x1="621.5" x2="621.5" y1="538.314" y2="551.314"/><line style="stroke:#181818;stroke-width:1.0;stroke-dasharray:2.0,2.0;" x1="580.5" x2="621.5" y1="551.314" y2="551.314"/><polygon fill="#181818" points="590.5,547.314,580.5,551.314,590.5,555.314,586.5,551.314" style="stroke:#181818;stroke-width:1.0;"/><text fill="#000000" font-family="sans-serif" font-size="13" lengthAdjust="spacing" textLength="193" x="586.5" y="532.505">Save public key in local database</text><line style="stroke:#181818;stroke-width:1.0;stroke-dasharray:2.0,2.0;" x1="579.5" x2="621.5" y1="583.0201" y2="583.0201"/><line style="stroke:#181818;stroke-width:1.0;stroke-dasharray:2.0,2.0;" x1="621.5" x2="621.5" y1="583.0201" y2="596.0201"/><line style="stroke:#181818;stroke-width:1.0;stroke-dasharray:2.0,2.0;" x1="580.5" x2="621.5" y1="596.0201" y2="596.0201"/><polygon fill="#181818" points="590.5,592.0201,580.5,596.0201,590.5,600.0201,586.5,596.0201" style="stroke:#181818;stroke-width:1.0;"/><text fill="#000000" font-family="sans-serif" font-size="13" lengthAdjust="spacing" textLength="199" x="586.5" y="577.2111">Save private key in local database</text><line style="stroke:#181818;stroke-width:1.0;stroke-dasharray:2.0,2.0;" x1="579.5" x2="621.5" y1="627.7261" y2="627.7261"/><line style="stroke:#181818;stroke-width:1.0;stroke-dasharray:2.0,2.0;" x1="621.5" x2="621.5" y1="627.7261" y2="640.7261"/><line style="stroke:#181818;stroke-width:1.0;stroke-dasharray:2.0,2.0;" x1="580.5" x2="621.5" y1="640.7261" y2="640.7261"/><polygon fill="#181818" points="590.5,636.7261,580.5,640.7261,590.5,644.7261,586.5,640.7261" style="stroke:#181818;stroke-width:1.0;"/><text fill="#000000" font-family="sans-serif" font-size="13" lengthAdjust="spacing" textLength="130" x="586.5" y="621.9171">Download private key</text><polygon fill="#181818" points="254.5,668.4321,244.5,672.4321,254.5,676.4321,250.5,672.4321" style="stroke:#181818;stroke-width:1.0;"/><line style="stroke:#181818;stroke-width:1.0;stroke-dasharray:2.0,2.0;" x1="248.5" x2="578.5" y1="672.4321" y2="672.4321"/><text fill="#000000" font-family="sans-serif" font-size="13" lengthAdjust="spacing" textLength="110" x="260.5" y="666.6231">Returns public key</text><polygon fill="#181818" points="567.5,700.1381,577.5,704.1381,567.5,708.1381,571.5,704.1381" style="stroke:#181818;stroke-width:1.0;"/><line style="stroke:#181818;stroke-width:1.0;" x1="243.5" x2="573.5" y1="704.1381" y2="704.1381"/><text fill="#000000" font-family="sans-serif" font-size="13" lengthAdjust="spacing" textLength="232" x="250.5" y="698.3291">Encrypt local database with private key</text><polygon fill="#181818" points="254.5,731.8441,244.5,735.8441,254.5,739.8441,250.5,735.8441" style="stroke:#181818;stroke-width:1.0;"/><line style="stroke:#181818;stroke-width:1.0;stroke-dasharray:2.0,2.0;" x1="248.5" x2="578.5" y1="735.8441" y2="735.8441"/><text fill="#000000" font-family="sans-serif" font-size="13" lengthAdjust="spacing" textLength="185" x="260.5" y="730.0351">JSON { encrypted contacts list }</text><polygon fill="#181818" points="780.5,763.5501,790.5,767.5501,780.5,771.5501,784.5,767.5501" style="stroke:#181818;stroke-width:1.0;"/><line style="stroke:#181818;stroke-width:1.0;" x1="243.5" x2="786.5" y1="767.5501" y2="767.5501"/><text fill="#000000" font-family="sans-serif" font-size="13" lengthAdjust="spacing" textLength="279" x="250.5" y="761.7411">POST /contacts JSON { encrypted contacts list }</text><line style="stroke:#181818;stroke-width:1.0;stroke-dasharray:2.0,2.0;" x1="792.5" x2="834.5" y1="799.2562" y2="799.2562"/><line style="stroke:#181818;stroke-width:1.0;stroke-dasharray:2.0,2.0;" x1="834.5" x2="834.5" y1="799.2562" y2="812.2562"/><line style="stroke:#181818;stroke-width:1.0;stroke-dasharray:2.0,2.0;" x1="793.5" x2="834.5" y1="812.2562" y2="812.2562"/><polygon fill="#181818" points="803.5,808.2562,793.5,812.2562,803.5,816.2562,799.5,812.2562" style="stroke:#181818;stroke-width:1.0;"/><text fill="#000000" font-family="sans-serif" font-size="13" lengthAdjust="spacing" textLength="179" x="799.5" y="793.4472">Generate document reference</text><polygon fill="#181818" points="1130.5,839.9622,1140.5,843.9622,1130.5,847.9622,1134.5,843.9622" style="stroke:#181818;stroke-width:1.0;"/><line style="stroke:#181818;stroke-width:1.0;" x1="792.5" x2="1136.5" y1="843.9622" y2="843.9622"/><text fill="#000000" font-family="sans-serif" font-size="13" lengthAdjust="spacing" textLength="326" x="799.5" y="838.1532">Save encrypted contacts list using document reference</text><polygon fill="#181818" points="803.5,871.6682,793.5,875.6682,803.5,879.6682,799.5,875.6682" style="stroke:#181818;stroke-width:1.0;"/><line style="stroke:#181818;stroke-width:1.0;stroke-dasharray:2.0,2.0;" x1="797.5" x2="1141.5" y1="875.6682" y2="875.6682"/><text fill="#000000" font-family="sans-serif" font-size="13" lengthAdjust="spacing" textLength="222" x="809.5" y="869.8592">Saved document hash (commit hash)</text><polygon fill="#181818" points="254.5,903.3742,244.5,907.3742,254.5,911.3742,250.5,907.3742" style="stroke:#181818;stroke-width:1.0;"/><line style="stroke:#181818;stroke-width:1.0;stroke-dasharray:2.0,2.0;" x1="248.5" x2="791.5" y1="907.3742" y2="907.3742"/><text fill="#000000" font-family="sans-serif" font-size="13" lengthAdjust="spacing" textLength="271" x="260.5" y="901.5652">JSON { document reference, document hash }</text><polygon fill="#181818" points="567.5,935.0802,577.5,939.0802,567.5,943.0802,571.5,939.0802" style="stroke:#181818;stroke-width:1.0;"/><line style="stroke:#181818;stroke-width:1.0;" x1="243.5" x2="573.5" y1="939.0802" y2="939.0802"/><text fill="#000000" font-family="sans-serif" font-size="13" lengthAdjust="spacing" textLength="312" x="250.5" y="933.2712">Save document reference and hash in local database</text><line style="stroke:#181818;stroke-width:1.0;stroke-dasharray:2.0,2.0;" x1="243.5" x2="285.5" y1="970.7862" y2="970.7862"/><line style="stroke:#181818;stroke-width:1.0;stroke-dasharray:2.0,2.0;" x1="285.5" x2="285.5" y1="970.7862" y2="983.7862"/><line style="stroke:#181818;stroke-width:1.0;stroke-dasharray:2.0,2.0;" x1="244.5" x2="285.5" y1="983.7862" y2="983.7862"/><polygon fill="#181818" points="254.5,979.7862,244.5,983.7862,254.5,987.7862,250.5,983.7862" style="stroke:#181818;stroke-width:1.0;"/><text fill="#000000" font-family="sans-serif" font-size="13" lengthAdjust="spacing" textLength="197" x="250.5" y="964.9772">Generate shared contacts list link</text><polygon fill="#181818" points="34.5,1011.4923,24.5,1015.4923,34.5,1019.4923,30.5,1015.4923" style="stroke:#181818;stroke-width:1.0;"/><line style="stroke:#181818;stroke-width:1.0;stroke-dasharray:2.0,2.0;" x1="28.5" x2="242.5" y1="1015.4923" y2="1015.4923"/><text fill="#000000" font-family="sans-serif" font-size="13" lengthAdjust="spacing" textLength="179" x="40.5" y="1009.6833">Render saved contacts list link</text><!--SRC=[bLDBQ-Cm4BxxLmpfPGjhsijUJ0biacx9qeT9sdDHv4aZ8aj66ZU4fVzzPTbE_KhIdcoZxpMZpoH88eokhtz12FCqquQ0QqMCamKfB8s2mBrh0oyMJP0nGuABZ2c2KImPhRL9Hy0inFTmyU3m-uMssC9DZDuvRd6iQ6gGfMsPQMttm1HxSy3VyTnBJX-VuIAM-JdyR5B3NsUJYX4KSI4SkrmHJANWMmjYO3nOvKHQ1Iv-wD05Au85gWIDXPV5FMH6fncrvERAVP0_3ZnnN7X7S7Vx35Ur-jLD_HOcckSfAWeDhj6WuZWEYjbAdiiSmH-X4d0dPfyH9fs8Eq4Ri1boiHOS3Y91DN1O-_zTFZt2lwCo7wLfDSHPyF1AidpbbWbRt9_Qp2UgNb1LWWXcw0tRTa7TaKwwmKmDiJjKQ1YXooBUYoTpQsoODsKFf2Lxn-OSGe7Kd4b86B4LS-qzGQjyli6RwPsIcYLDRc_U1L9krCd5tPOtrV4iot5A-kn5DneSFoqR5VvweShwrvTHzxrTrMRT_IwFoUPMgBSZ8gs-5oh99t33x0P-S9scelou72fyN_TdH-AZktcVji_pPVECVXEgVwVmFQp5RfZf3Ik5sWxzQM3zS0FW_m00]--></g></svg>