<?xml version="1.0" encoding="us-ascii" standalone="no"?><svg xmlns="http://www.w3.org/2000/svg" xmlns:xlink="http://www.w3.org/1999/xlink" contentStyleType="text/css" height="495px" preserveAspectRatio="none" style="width:460px;height:495px;background:#FFFFFF;" version="1.1" viewBox="0 0 460 495" width="460px" zoomAndPan="magnify"><defs/><g><text fill="#000000" font-family="sans-serif" font-size="14" font-weight="bold" lengthAdjust="spacing" textLength="223" x="111.5" y="24.9659">Contacts Manager DB - Schemas</text><!--cluster GitHub--><g id="cluster_GitHub"><path d="M78.3227,65.575 C84.8705,55.6647 93.4631,57.3928 98.4883,67.1372 C104.5714,54.2098 114.9899,52.9975 123.331,64.8758 C129.8932,54.8308 138.5896,55.1613 145.2473,64.7695 C148.9512,52.7908 158.378,52.6895 165.5944,61.2979 C172.7359,51.9737 181.1146,51.0473 187.6845,61.9231 C193.0269,52.4523 202.9872,52.9165 208.8931,61.2519 C213.1395,47.2772 225.3296,46.0679 233.517,57.4203 C241.4808,49.2701 248.0886,48.9424 254.4017,59.2844 C262.8571,51.5171 270.019,52.0297 275.0619,63.0392 C281.1743,54.2751 292.0869,53.6495 297.3162,64.064 C305.9071,52.7467 312.8281,55.023 320.0066,65.5323 C325.389,53.3374 335.8033,53.5312 343.109,63.5303 C350.2269,52.8196 361.44,53.084 365.966,66.0341 C376.0387,54.6841 387.106,59.7851 391,72.4697 C392.4626,71.7552 393.4199,72.4329 393.3008,74.0383 C407.2281,82.0113 405.442,90.1331 394.8369,99.5815 C403.9211,105.2349 403.3443,113.0608 395.0602,118.9148 C405.152,126.4057 406.7741,136.1391 393.6075,142.1776 C404.6839,148.992 407.428,159.202 395.9097,168.0286 C405.5429,175.0965 405.276,183.0155 394.2154,188.3588 C405.3614,197.6638 404.8469,205.4177 393.3589,213.9657 C405.1485,219.7919 403.1643,230.1631 393.8416,236.4427 C404.3003,242.3212 403.0487,251.1332 393.2103,256.3686 C405.7028,262.2044 405.9937,273.9621 395.2471,281.6687 C406.5447,289.0579 405.7955,298.3865 393.4912,303.9126 C405.1732,310.5243 405.5289,321.3529 394.1802,328.6071 C404.2795,333.9866 405.067,342.1711 394.5435,347.9381 C404.1533,355.8515 405.5547,366.9858 392.4471,372.9989 C403.498,386.4139 398.5446,394.9252 384,400.4697 C385.2735,399.4941 386.0617,399.979 386.3957,401.4064 C380.0031,412.4442 372.2775,412.1213 365.7752,401.5109 C359.1201,412.7115 349.9232,414.1536 342.8962,401.8733 C337.9025,411.9463 328.8211,414.9528 320.6695,405.4608 C315.2021,415.3413 304.8383,414.8485 299.9194,404.8872 C294.2694,415.0192 282.8036,415.0464 276.6395,405.4951 C271.3253,418.6081 262.6779,418.1132 254.3495,408.4442 C246.487,419.634 237.0272,416.9918 231.6334,405.9246 C225.4629,416.9049 214.5511,417.0389 208.939,405.3652 C200.704,417.7035 193.5655,418.1265 185.4123,405.2888 C181.4025,414.4674 171.993,414.1676 166.6396,406.8146 C157.9942,418.7648 149.0789,415.9872 142.3559,404.7973 C135.1891,412.2842 127.1881,411.4333 122.2367,402.141 C116.1767,412.7157 105.2282,416.3771 97.7059,403.6826 C84.2389,414.8583 71.3868,411.6141 68,393.4697 C69.5764,393.2649 70.3879,394.2197 69.8859,395.7408 C58.12,388.2816 61.2426,377.5477 71.9488,372.0448 C60.1225,365.6966 58.5921,357.7967 70.3126,349.7225 C59.932,341.4036 60.0845,332.7374 70.9383,324.955 C60.8676,319.4132 61.6674,312.829 69.0809,305.6086 C55.4877,297.5383 57.6385,289.5743 67.4364,280.0018 C55.1649,272.7556 56.7492,262.6195 68.4876,256.4448 C59.3606,249.2764 57.4712,242.7683 67.4226,234.667 C55.722,225.7205 59.2136,218.3441 69.6385,211.5153 C59.0143,205.9673 58.7553,197.5144 67.1468,189.7859 C57.2662,179.9055 55.5172,172.0139 69.5974,164.4512 C58.3855,158.1157 58.215,151.5701 68.8744,144.4442 C56.4144,138.9879 58.6545,128.186 67.8564,121.7576 C57.7646,115.2324 57.5451,104.1719 69.086,98.8056 C53.9471,86.9787 59.4896,71.8592 75,65.4697 C76.0951,63.7331 77.3414,63.7208 78.3227,65.575 " fill="#F5F5F5" style="stroke:#181818;stroke-width:1.0;"/><text fill="#000000" font-family="sans-serif" font-size="14" font-weight="bold" lengthAdjust="spacing" textLength="49" x="205" y="85.4356">GitHub</text></g><!--cluster Git--><g id="cluster_Git"><path d="M84,113.4697 C84,103.4697 229.5,103.4697 229.5,103.4697 C229.5,103.4697 375,103.4697 375,113.4697 L375,374.4697 C375,384.4697 229.5,384.4697 229.5,384.4697 C229.5,384.4697 84,384.4697 84,374.4697 L84,113.4697 " fill="#D5E8D4" style="stroke:#181818;stroke-width:1.0;"/><path d="M84,113.4697 C84,123.4697 229.5,123.4697 229.5,123.4697 C229.5,123.4697 375,123.4697 375,113.4697 " fill="none" style="stroke:#181818;stroke-width:1.0;"/><text fill="#000000" font-family="sans-serif" font-size="14" font-weight="bold" lengthAdjust="spacing" textLength="20" x="219.5" y="140.4356">Git</text></g><!--cluster /--><g id="cluster_/"><path d="M110.5,164.4697 L117.5,164.4697 A3.75,3.75 0 0 1 120,166.9697 L127,189.5376 L348.5,189.5376 A2.5,2.5 0 0 1 351,192.0376 L351,357.9697 A2.5,2.5 0 0 1 348.5,360.4697 L110.5,360.4697 A2.5,2.5 0 0 1 108,357.9697 L108,166.9697 A2.5,2.5 0 0 1 110.5,164.4697 " fill="#FFF2CC" style="stroke:#000000;stroke-width:1.5;"/><line style="stroke:#000000;stroke-width:1.5;" x1="108" x2="127" y1="189.5376" y2="189.5376"/><text fill="#000000" font-family="sans-serif" font-size="14" font-weight="bold" lengthAdjust="spacing" textLength="6" x="112" y="181.4356">/</text></g><!--cluster JSON--><g id="cluster_JSON"><rect fill="#FFCC99" height="126" rx="2.5" ry="2.5" style="stroke:#181818;stroke-width:1.0;" width="195" x="132" y="210.4697"/><path d="M177,210.4697 L177,222.5376 L167,232.5376 L132,232.5376 " fill="none" style="stroke:#181818;stroke-width:1.0;"/><text fill="#000000" font-family="sans-serif" font-size="14" font-weight="bold" lengthAdjust="spacing" textLength="35" x="135" y="226.4356">JSON</text></g><!--class ECSJ--><g id="elem_ECSJ"><rect codeLine="25" fill="#FFFFFF" height="72.4799" id="ECSJ" rx="2.5" ry="2.5" style="stroke:#181818;stroke-width:0.5;" width="163" x="148" y="248.4697"/><rect fill="#DAE8FC" height="45.412" rx="2.5" ry="2.5" style="stroke:#DAE8FC;stroke-width:0.5;" width="163" x="148" y="248.4697"/><rect fill="#DAE8FC" height="2.5" style="stroke:#DAE8FC;stroke-width:0.5;" width="163" x="148" y="291.3817"/><rect codeLine="25" fill="none" height="72.4799" id="ECSJ" rx="2.5" ry="2.5" style="stroke:#181818;stroke-width:0.5;" width="163" x="148" y="248.4697"/><text fill="#000000" font-family="sans-serif" font-size="12" font-style="italic" lengthAdjust="spacing" textLength="62" x="198.5" y="266.2978">&#171;LightBlue&#187;</text><text fill="#000000" font-family="sans-serif" font-size="14" lengthAdjust="spacing" textLength="157" x="151" y="284.7798">Encrypted Contacts List</text><line style="stroke:#181818;stroke-width:0.5;" x1="149" x2="310" y1="293.8817" y2="293.8817"/><text fill="#000000" font-family="sans-serif" font-size="14" lengthAdjust="spacing" textLength="112" x="154" y="312.8477">contacts: Base64</text></g><g id="elem_GMN7"><path d="M6,424.9697 L6,488.0878 A0,0 0 0 0 6,488.0878 L453,488.0878 A0,0 0 0 0 453,488.0878 L453,434.9697 L443,424.9697 L233.5,424.9697 L229.5,320.6697 L225.5,424.9697 L6,424.9697 A0,0 0 0 0 6,424.9697 " fill="#FEFFDD" style="stroke:#181818;stroke-width:0.5;"/><path d="M443,424.9697 L443,434.9697 L453,434.9697 L443,424.9697 " fill="#FEFFDD" style="stroke:#181818;stroke-width:0.5;"/><text fill="#000000" font-family="sans-serif" font-size="13" lengthAdjust="spacing" textLength="426" x="12" y="443.8667">The file name (without file extension) identifies the document reference.</text><text fill="#000000" font-family="sans-serif" font-size="13" lengthAdjust="spacing" textLength="280" x="12" y="461.5727">The commit hash identifies the document hash</text><text fill="#000000" font-family="sans-serif" font-size="13" lengthAdjust="spacing" textLength="137" x="12" y="479.2788">Each file must end with</text><text fill="#000000" font-family="sans-serif" font-size="13" font-weight="bold" lengthAdjust="spacing" textLength="29" x="152" y="479.2788">.ecsj</text><text fill="#000000" font-family="sans-serif" font-size="13" lengthAdjust="spacing" textLength="59" x="184" y="479.2788">extension</text></g><!--SRC=[TL9DJnin4BtxLuoMGzj8fL855I348I6042s7z59L7Cnud7NnsYjxLZIgyj_hZx1f2fczs9xtPkQz7JPi2PgPTooH8toLJYufmEKKFi82M-faR8HeZI904z1IFLFNymewujQhkCb7fa2ULps9-6HSBuFiu8-059UIvQECD9Nuj0n-S6hchG_dvtTcsV9r878N5t2WZkb47HN6pCeORqWg2c-JfdQWmf5qeh5mhhpT2_z1rlhdJD1QVqRSDF63sZUJN1NqSVvg-QHdZuBx8DsIQdN4qzEjXF_mS71LGgo5UFTYC2ZInXastWc1UIPehWtV38yDx8vJtRIa6TX3o1bG9X1MRawgZTMbn3_yQd4ja4CNiw3vD696YxQW0iooeRbTt7yReQFUNMWEScpIQZHpXs7LCoaOb-lEn3HHqZkVBMvXzp- -BfG3DzGpc2P9NuvUWTRYxLizhRFDpZCbjthm6dxcpWybzxqbq2OjlylotZ-RjCe3roVwpUHYilG3fCLEWhIX29mOokFGfHS8fDEsEwJ3iHhwhZCChOpjNbfE5i9SObkRTKFav9g2F09C9eU4yTTaiXr2v6HM8Vu2]--></g></svg>